<?xml version="1.0" encoding="UTF-8"?>
<svg width="16px" height="17px" viewBox="0 0 16 17" version="1.1" xmlns="http://www.w3.org/2000/svg" xmlns:xlink="http://www.w3.org/1999/xlink">
    <!-- Generator: Sketch 52.1 (67048) - http://www.bohemiancoding.com/sketch -->
    <title>delet</title>
    <desc>Created with Sketch.</desc>
    <g id="Page-1" stroke="none" stroke-width="1" fill="none" fill-rule="evenodd">
        <g id="搜索" transform="translate(-339.000000, -140.000000)" fill="#CCCCCC" fill-rule="nonzero">
            <g id="Group" transform="translate(339.000000, 140.000000)">
                <path d="M2.78571429,3.78571429 L2.78571429,13.5714286 C2.78571429,14.5577624 3.58509476,15.3571429 4.57142857,15.3571429 L11.4285714,15.3571429 C12.4095719,15.3571429 13.2142857,14.5524291 13.2142857,13.5714286 L13.2142857,3.78571429 L2.78571429,3.78571429 Z M11.4285714,16.3571429 L4.57142857,16.3571429 C3.03281001,16.3571429 1.78571429,15.1100471 1.78571429,13.5714286 L1.78571429,2.78571429 L14.2142857,2.78571429 L14.2142857,13.5714286 C14.2142857,15.1047138 12.9618567,16.3571429 11.4285714,16.3571429 Z" id="Shape"></path>
                <path d="M9.78571429,2.14285714 C9.78571429,1.78776142 9.49795286,1.5 9.14285714,1.5 L6.85714286,1.5 C6.50204714,1.5 6.21428571,1.78776142 6.21428571,2.14285714 L6.21428571,2.78571429 L9.78571429,2.78571429 L9.78571429,2.14285714 Z M5.21428571,3.78571429 L5.21428571,2.14285714 C5.21428571,1.23547667 5.94976239,0.5 6.85714286,0.5 L9.14285714,0.5 C10.0502376,0.5 10.7857143,1.23547667 10.7857143,2.14285714 L10.7857143,3.78571429 L5.21428571,3.78571429 Z" id="Shape"></path>
                <polygon id="Shape" points="0 3.78571429 0 2.78571429 16 2.78571429 16 3.78571429"></polygon>
                <polygon id="Shape" points="7.5 5.57142857 8.5 5.57142857 8.5 12.047619 7.5 12.047619"></polygon>
                <polygon id="Shape" points="4.07142857 6.71428571 5.07142857 6.71428571 5.07142857 11.6666667 4.07142857 11.6666667"></polygon>
                <polygon id="Shape" points="10.7857143 6.71428571 11.7857143 6.71428571 11.7857143 11.6666667 10.7857143 11.6666667"></polygon>
            </g>
        </g>
    </g>
</svg>