<?xml version="1.0" encoding="UTF-8"?>
<svg width="20px" height="20px" viewBox="0 0 20 20" version="1.1" xmlns="http://www.w3.org/2000/svg" xmlns:xlink="http://www.w3.org/1999/xlink">
    <!-- Generator: Sketch 52.1 (67048) - http://www.bohemiancoding.com/sketch -->
    <title>details_bar_zan_pre</title>
    <desc>Created with Sketch.</desc>
    <g id="Page-1" stroke="none" stroke-width="1" fill="none" fill-rule="evenodd">
        <g id="查看别人文章" transform="translate(-92.000000, -867.000000)" fill="#FD6258" fill-rule="nonzero">
            <g id="Group-Copy" transform="translate(92.000000, 867.000000)">
                <path d="M5.04638798,18.5344296 L5.04638798,6.89241038 C7.00749115,6.50758203 8.3718879,4.84150873 8.3718879,2.69109686 L8.3718879,2.16971428 C8.3718879,0.996025018 9.428036,0 10.6081122,0 L10.6611341,0 C11.5779635,0 12.4187806,0.606682778 12.7031336,1.46104847 L12.8447698,1.85416368 C13.2470374,3.06148491 13.300468,4.35914223 12.9960567,5.57764821 L12.9334124,5.84060413 C12.920331,6.04289655 12.8650598,6.27668897 12.7750329,6.51146837 L16.8321457,6.51146837 C18.2723911,6.51146837 19.3124361,7.93712033 18.914388,9.32224604 L16.7427472,16.9051404 C16.4834244,17.8559905 15.6209293,18.5344296 14.6405715,18.5344296 L5.04638798,18.5344296 Z M3.72083907,18.5344296 L2.17762106,18.5344296 C0.974857153,18.5344296 0,17.5595724 0,16.3568085 L0,9.28721431 C0,8.07490693 0.979505065,6.97657325 2.17762106,6.97657325 L3.72083907,6.97657325 L3.72083907,18.5344296 Z" id="details_bar_zan_pre"></path>
            </g>
        </g>
    </g>
</svg>