<?xml version="1.0" encoding="UTF-8"?>
<svg width="21px" height="21px" viewBox="0 0 21 21" version="1.1" xmlns="http://www.w3.org/2000/svg" xmlns:xlink="http://www.w3.org/1999/xlink">
    <!-- Generator: Sketch 52.1 (67048) - http://www.bohemiancoding.com/sketch -->
    <title>details_huifu</title>
    <desc>Created with Sketch.</desc>
    <g id="Page-1" stroke="none" stroke-width="1" fill="none" fill-rule="evenodd">
        <g id="查看别人文章" transform="translate(-330.000000, -695.000000)" fill="#999999" fill-rule="nonzero">
            <g id="Group-3" transform="translate(15.000000, 635.000000)">
                <g id="Group" transform="translate(315.000000, 60.000000)">
                    <path d="M3.92987284,16.4375 L3.85,16.4375 C1.88234712,16.4375 0.2875,14.8426529 0.2875,12.875 L0.2875,4.47415 C0.2875,2.16972212 2.16972212,0.2875 4.47415,0.2875 L17.484875,0.2875 C19.2672779,0.2875 20.7125,1.73272212 20.7125,3.515125 L20.7125,12.875 C20.7125,14.8426529 19.1176529,16.4375 17.15,16.4375 L15.0701272,16.4375 L9.00321358,19.5044136 C8.17301502,20.3346121 6.82698498,20.3346121 5.99678642,19.5044136 L3.92987284,16.4375 Z M17.484875,1.7125 L4.47415,1.7125 C2.95672788,1.7125 1.7125,2.95672788 1.7125,4.47415 L1.7125,12.875 C1.7125,14.0556471 2.66935288,15.0125 3.85,15.0125 L4.52012716,15.0125 L7.00441358,18.4967864 C7.27811502,18.7704879 7.72188498,18.7704879 7.99558642,18.4967864 L14.4798728,15.0125 L17.15,15.0125 C18.3306471,15.0125 19.2875,14.0556471 19.2875,12.875 L19.2875,3.515125 C19.2875,2.51972788 18.4802721,1.7125 17.484875,1.7125 Z M5.275,7.4125 L5.275,5.9875 L15.25,5.9875 L15.25,7.4125 L5.275,7.4125 Z M6.7,10.7375 L6.7,9.3125 L13.825,9.3125 L13.825,10.7375 L6.7,10.7375 Z" id="Shape"></path>
                </g>
            </g>
        </g>
    </g>
</svg>