<?xml version="1.0" encoding="UTF-8"?>
<svg width="20px" height="16px" viewBox="0 0 20 16" version="1.1" xmlns="http://www.w3.org/2000/svg" xmlns:xlink="http://www.w3.org/1999/xlink">
    <!-- Generator: Sketch 52.1 (67048) - http://www.bohemiancoding.com/sketch -->
    <title>details_bar_weinxin</title>
    <desc>Created with Sketch.</desc>
    <g id="Page-1" stroke="none" stroke-width="1" fill="none" fill-rule="evenodd">
        <g id="查看别人文章" transform="translate(-202.000000, -875.000000)" fill="#09BB07" fill-rule="nonzero">
            <g id="Group-3-Copy-2" transform="translate(190.000000, 868.000000)">
                <g id="Group-10" transform="translate(12.000000, 7.000000)">
                    <g id="微信-(5)">
                        <path d="M13.3856041,4.83667944 C13.6103806,4.83667944 13.8351571,4.85744061 14.0587688,4.87705747 C13.4572465,2.08559898 10.439765,0 7.00242146,0 C3.15866156,0.01348659 0.00907279693,2.61135121 0.00907279693,5.91010983 C0.00907279693,7.8118825 1.05896296,9.38039336 2.80294253,10.5947791 L2.09900383,12.6780077 L4.54694253,11.4648685 C5.4239387,11.6364138 6.1279387,11.8079591 6.99377778,11.8079591 C7.21855428,11.8079591 7.4322963,11.7981507 7.64591571,11.778493 C7.5070925,11.3047767 7.43518315,10.8139773 7.43227586,10.3203474 C7.44218646,7.29604087 10.06306,4.83790549 13.386871,4.83790549 L13.385645,4.83667944 L13.3856041,4.83667944 Z M9.62339719,2.956894 C10.1544828,2.956894 10.5002912,3.29998467 10.5002912,3.82688123 C10.5002912,4.34157854 10.1544828,4.69695019 9.62339719,4.69695019 C9.1033461,4.69695019 8.57348659,4.35263346 8.57348659,3.82686079 C8.57348659,3.29998467 9.1033461,2.956894 9.62339719,2.956894 Z M4.72850064,4.69695019 C4.20979821,4.69695019 3.67871264,4.35263346 3.67871264,3.82686079 C3.67871264,3.29998467 4.20979821,2.956894 4.72850064,2.956894 C5.24855172,2.956894 5.60549681,3.29998467 5.60549681,3.82688123 C5.60549681,4.34157854 5.25966794,4.69695019 4.72850064,4.69695019 Z M19.7712593,10.2480102 C19.7712593,7.47616858 16.9773895,5.21042146 13.8252465,5.21042146 C10.5015172,5.21042146 7.88056194,7.47616858 7.88056194,10.2480102 C7.88056194,13.0296807 10.5015172,15.286825 13.8252465,15.286825 C14.5194381,15.286825 15.2234176,15.1152797 15.9262529,14.9425083 L17.8431673,15.9841022 L17.3133078,14.2537931 C18.7213691,13.1926437 19.7712593,11.8054662 19.7712593,10.2480102 Z M11.8984623,9.37792082 C11.5526539,9.37792082 11.1944623,9.03483014 11.1944623,8.67949936 C11.1944623,8.33640868 11.5526539,7.98105747 11.8984623,7.98105747 C12.4295479,7.98105747 12.7754585,8.3253742 12.7754585,8.67949936 C12.7754585,9.03485057 12.4295479,9.37794125 11.8984623,9.37794125 L11.8984623,9.37792082 Z M15.7434687,9.37792082 C15.3964138,9.37792082 15.0492771,9.03483014 15.0492771,8.67949936 C15.0492771,8.33640868 15.3951673,7.98105747 15.7434687,7.98105747 C16.2733282,7.98105747 16.6203627,8.3253742 16.6203627,8.67949936 C16.6203627,9.03485057 16.2733282,9.37794125 15.7434687,9.37794125 L15.7434687,9.37792082 Z" id="Shape"></path>
                    </g>
                </g>
            </g>
        </g>
    </g>
</svg>