<?xml version="1.0" encoding="UTF-8"?>
<svg width="60px" height="60px" viewBox="0 0 60 60" version="1.1" xmlns="http://www.w3.org/2000/svg" xmlns:xlink="http://www.w3.org/1999/xlink">
    <!-- Generator: Sketch 52.1 (67048) - http://www.bohemiancoding.com/sketch -->
    <title>details_share_lianjie</title>
    <desc>Created with Sketch.</desc>
    <g id="Page-1" stroke="none" stroke-width="1" fill="none" fill-rule="evenodd">
        <g id="查看别人文章分享" transform="translate(-264.000000, -500.000000)">
            <g id="Group-11" transform="translate(0.000000, 467.000000)">
                <g id="Group-5" transform="translate(264.000000, 33.000000)">
                    <circle id="Oval-Copy-5" fill="#F2F2F2" fill-rule="nonzero" cx="30" cy="30" r="30"></circle>
                    <path d="M42.2003946,17.81408 C43.3622278,18.9759131 44,20.523376 44,22.1598303 C44,23.8111166 43.3622278,25.3585794 42.2003946,26.5204126 L37.9980194,30.7227878 L36.727419,29.4521873 L40.9297941,25.2498121 C41.7504933,24.4291129 42.2053386,23.3315514 42.2053386,22.1647743 C42.2053386,21.0029412 41.7504933,19.9053796 40.9297941,19.0846805 C39.2290682,17.3839545 36.4604445,17.3839545 34.7597186,19.0846805 L27.8233275,26.0260155 C26.1226016,27.7267415 26.1226016,30.4953651 27.8233275,32.1960911 C28.2040133,32.5767768 28.6489707,32.883303 29.1433677,33.1008377 L28.416604,34.742236 C27.7195041,34.4307659 27.0916199,34.0006404 26.552727,33.4617476 C24.1499572,31.0589778 24.1499572,27.1532408 26.552727,24.750471 L33.4891181,17.81408 C35.8918879,15.4113102 39.7976248,15.4113102 42.2003946,17.81408 Z M30.784766,24.8542944 C31.7933361,25.1311568 32.7228026,25.6749936 33.4742862,26.4215332 C34.6361193,27.5833663 35.2738915,29.1308292 35.2738915,30.7821154 C35.2738916,32.4284577 34.6361193,33.9759205 33.4742862,35.1377537 L26.5378951,42.0692008 C25.376062,43.2310339 23.8285991,43.8737501 22.1822569,43.8737501 C20.5359146,43.8737501 18.9884517,43.2310339 17.8266186,42.0692008 C16.6647854,40.9073676 16.0220692,39.3549608 16.0220692,37.7135625 C16.0220692,36.0721642 16.6647854,34.5247013 17.8266186,33.3579242 L22.2415845,28.9429583 L23.512185,30.2135588 L19.0972191,34.6285247 C18.2765199,35.4541678 17.8216746,36.5467854 17.8216746,37.7135625 C17.8216746,38.8803396 18.271576,39.9729571 19.0972191,40.7986003 C19.9228622,41.6192994 21.0154797,42.0741447 22.1822569,42.0741447 C23.349034,42.0741447 24.4416515,41.6242434 25.2672946,40.7986003 L32.2036857,33.8622092 C33.0243848,33.0415101 33.4792301,31.9488925 33.4792301,30.7821154 C33.4792301,29.6153383 33.0243848,28.5177768 32.2036857,27.6970777 C31.6647929,27.1581848 31.0270206,26.787387 30.3101449,26.5896282 L30.784766,24.8542944 Z" id="Combined-Shape" fill="#666666"></path>
                </g>
            </g>
        </g>
    </g>
</svg>