<?xml version="1.0" encoding="UTF-8"?>
<svg width="20px" height="20px" viewBox="0 0 20 20" version="1.1" xmlns="http://www.w3.org/2000/svg" xmlns:xlink="http://www.w3.org/1999/xlink">
    <!-- Generator: Sketch 52.1 (67048) - http://www.bohemiancoding.com/sketch -->
    <title>details_bar_zan_nor</title>
    <desc>Created with Sketch.</desc>
    <g id="Page-1" stroke="none" stroke-width="1" fill="none" fill-rule="evenodd">
        <g id="查看别人文章" transform="translate(-71.000000, -867.000000)" fill="#999999" fill-rule="nonzero">
            <g id="Group" transform="translate(71.000000, 867.000000)">
                <path d="M3.72083907,17.2088807 L3.72083907,8.30212217 L2.17762106,8.30212217 C1.74755222,8.30212217 1.32554892,8.77532078 1.32554892,9.28721431 L1.32554892,16.3568085 C1.32554892,16.827492 1.7069376,17.2088807 2.17762106,17.2088807 L3.72083907,17.2088807 Z M5.04638798,17.2088807 L14.6405715,17.2088807 C15.0152887,17.2088807 15.3598687,16.9378339 15.4661649,16.5482829 L17.6402329,8.95672128 C17.7977213,8.40869346 17.3806708,7.83701728 16.8321457,7.83701728 L11.3601868,7.83701728 L11.3601868,6.51146837 C11.2716596,6.51146837 11.2350679,6.53138654 11.2382494,6.52809183 C11.2896993,6.47481016 11.3533473,6.37959328 11.4154849,6.25819894 C11.5235029,6.04717114 11.6108783,5.77242981 11.6108783,5.75009167 L11.6289214,5.59649661 L11.7083079,5.26343377 C11.9530672,4.28357368 11.9102074,3.24264633 11.5925502,2.2886271 L11.4508922,1.89544642 C11.3414256,1.56679159 11.0070813,1.32554892 10.6611341,1.32554892 L10.6081122,1.32554892 C10.1433095,1.32554892 9.69743682,1.74603952 9.69743682,2.16971428 L9.69743682,2.69109686 C9.69743682,5.57257329 7.75634418,7.83290175 5.04638798,8.2374856 L5.04638798,17.2088807 Z M16.8321457,6.51146837 C18.2723911,6.51146837 19.3124361,7.93712033 18.914388,9.32224604 L16.7427472,16.9051404 C16.4834244,17.8559905 15.6209293,18.5344296 14.6405715,18.5344296 L2.17762106,18.5344296 C0.974857153,18.5344296 -1.33226763e-13,17.5595724 -1.33226763e-13,16.3568085 L-1.33226763e-13,9.28721431 C-1.33226763e-13,8.07490693 0.979505065,6.97657325 2.17762106,6.97657325 L4.16594444,6.97657325 C6.58702964,6.97657325 8.3718879,5.15063283 8.3718879,2.69109686 L8.3718879,2.16971428 C8.3718879,0.996025018 9.428036,-3.55271368e-14 10.6081122,-3.55271368e-14 L10.6611341,-3.55271368e-14 C11.5779635,-3.55271368e-14 12.4187806,0.606682778 12.7031336,1.46104847 L12.8447698,1.85416368 C13.2470374,3.06148491 13.300468,4.35914223 12.9960567,5.57764821 L12.9334124,5.84060413 C12.920331,6.04289655 12.8650598,6.27668897 12.7750329,6.51146837 L16.8321457,6.51146837 Z" id="details_bar_zan_nor"></path>
            </g>
        </g>
    </g>
</svg>