<?xml version="1.0" encoding="UTF-8"?>
<svg width="20px" height="20px" viewBox="0 0 20 20" version="1.1" xmlns="http://www.w3.org/2000/svg" xmlns:xlink="http://www.w3.org/1999/xlink">
    <!-- Generator: Sketch 52.1 (67048) - http://www.bohemiancoding.com/sketch -->
    <title>details_bar_shouchang_nor</title>
    <desc>Created with Sketch.</desc>
    <g id="Page-1" stroke="none" stroke-width="1" fill="none" fill-rule="evenodd">
        <g id="查看别人文章" transform="translate(-15.000000, -867.000000)" fill="#999999" fill-rule="nonzero">
            <g id="Shape-2" transform="translate(15.000000, 867.000000)">
                <path d="M10.6412947,1.79396771 C10.3790196,1.26235439 9.62095914,1.26235439 9.35868401,1.79396771 L7.57884155,5.4006252 C7.27173178,6.02318257 6.6772829,6.45478688 5.98990194,6.55487064 L2.00966107,7.1334427 C1.42330136,7.21865435 1.18910354,7.93952537 1.61355234,8.35314521 L4.49338542,11.1604244 C4.99082754,11.6453609 5.21786055,12.3436623 5.10047637,13.0285191 L4.42049967,16.9925693 C4.32023433,17.576509 4.93349738,18.022113 5.45797795,17.7462193 L9.01805094,15.8747975 C9.63244782,15.5516137 10.3673011,15.5516137 10.9822575,15.8747263 L14.5421763,17.7463116 C15.0664814,18.022113 15.6797444,17.576509 15.5794597,16.9924563 L14.8994868,13.0284281 C14.7821182,12.3436623 15.0091512,11.6453609 15.5066072,11.1604108 L18.3865082,8.35306549 C18.8108752,7.93952537 18.5766774,7.21865435 17.990292,7.13343897 L14.0099142,6.55484699 C13.3229719,6.45482708 12.729101,6.02350517 12.421183,5.40071803 L10.6412947,1.79396771 Z M13.6721353,4.7828054 C13.7765241,4.99393933 13.9779622,5.14024162 14.2107812,5.17414046 L18.1909708,5.75270507 C19.9217785,6.00423152 20.6129255,8.13161177 19.3603452,9.3522349 L16.4805399,12.159487 C16.3118053,12.3239796 16.2348839,12.5605722 16.2746586,12.7926306 L16.9545965,16.7564548 C17.2505979,18.4803504 15.440679,19.7954583 13.892764,18.981205 L10.3331397,17.1097746 C10.1247397,17.0002763 9.87546878,17.0002763 9.66742307,17.1097121 L6.10735696,18.9811302 C4.55929971,19.7954583 2.74938078,18.4803504 3.04536282,16.7565678 L3.72530453,12.7927216 C3.76509483,12.5605722 3.68817341,12.3239796 3.51945273,12.1595005 L0.639715304,9.35231462 C-0.612946748,8.13161177 0.0782002045,6.00423152 1.80898228,5.75270879 L5.78903491,5.17416412 C6.02216391,5.14022016 6.22371974,4.99387895 6.32761203,4.78327379 L8.10746774,1.17658944 C8.88143918,-0.392196479 11.1185395,-0.392196479 11.892511,1.17658944 L13.6721353,4.7828054 Z" id="details_bar_shouchang_nor"></path>
            </g>
        </g>
    </g>
</svg>