<?xml version="1.0" encoding="UTF-8"?>
<svg width="20px" height="19px" viewBox="0 0 20 19" version="1.1" xmlns="http://www.w3.org/2000/svg" xmlns:xlink="http://www.w3.org/1999/xlink">
    <!-- Generator: Sketch 52.1 (67048) - http://www.bohemiancoding.com/sketch -->
    <title>details_pinglun</title>
    <desc>Created with Sketch.</desc>
    <g id="Page-1" stroke="none" stroke-width="1" fill="none" fill-rule="evenodd">
        <g id="查看别人文章" transform="translate(-302.000000, -599.000000)" fill="#FD6258" fill-rule="nonzero">
            <g id="Group-Copy-2" transform="translate(302.000000, 599.000000)">
                <path d="M5.49987594,15.2878049 L3.58658537,15.2878049 C1.74371182,15.2878049 0.25,13.7940931 0.25,11.9512195 L0.25,4.16506585 C0.25,2.01005938 2.01005938,0.25 4.16506585,0.25 L16.2237866,0.25 C17.894965,0.25 19.25,1.60503499 19.25,3.27621341 L19.25,11.9512195 C19.25,13.7940931 17.7562882,15.2878049 15.9134146,15.2878049 L14.0001241,15.2878049 L11.1677986,18.1201303 C10.3847732,18.9031557 9.11522681,18.9031557 8.33220138,18.1201303 L5.49987594,15.2878049 Z M4.90731707,6.92317073 L14.152439,6.92317073 L14.152439,5.53292683 L4.90731707,5.53292683 L4.90731707,6.92317073 Z M6.22804878,10.004878 L12.8317073,10.004878 L12.8317073,8.61463415 L6.22804878,8.61463415 L6.22804878,10.004878 Z" id="Combined-Shape"></path>
            </g>
        </g>
    </g>
</svg>