<?xml version="1.0" encoding="UTF-8"?>
<svg width="18px" height="18px" viewBox="0 0 18 18" version="1.1" xmlns="http://www.w3.org/2000/svg" xmlns:xlink="http://www.w3.org/1999/xlink">
    <!-- Generator: Sketch 52.1 (67048) - http://www.bohemiancoding.com/sketch -->
    <title>details_zan</title>
    <desc>Created with Sketch.</desc>
    <g id="Page-1" stroke="none" stroke-width="1" fill="none" fill-rule="evenodd">
        <g id="查看别人文章" transform="translate(-88.000000, -544.000000)" fill="#666666" fill-rule="nonzero">
            <g id="Group" transform="translate(89.000000, 545.000000)">
                <path d="M4.01842105,7.08668746 L4.01842105,15.3324324 L12.6538947,15.3324324 C12.9702758,15.3324324 13.2626831,15.0962083 13.3532246,14.7554537 L15.3213892,7.6971349 C15.4548808,7.22005622 15.1008306,6.72162162 14.6378947,6.72162162 L9.68421053,6.72162162 L9.68421053,5.38648649 C9.60608941,5.38648649 9.56182963,5.40317349 9.54507516,5.41260982 L9.53970924,5.41563395 C9.58216712,5.36973752 9.63635853,5.28611477 9.68976304,5.17896202 C9.78426389,4.98935208 9.86115789,4.74103341 9.86115789,4.72994595 L9.87885322,4.5752401 L9.95084992,4.26502985 C10.1701122,3.36351966 10.1317106,2.40566048 9.8475339,1.52907008 L9.71888694,1.16230722 C9.62658825,0.87770651 9.34301547,0.667567568 9.05136842,0.667567568 L9.00336842,0.667567568 C8.60956965,0.667567568 8.22894737,1.03622374 8.22894737,1.40108108 L8.22894737,1.88583784 C8.22894737,4.57494011 6.47373065,6.68915186 4.01842105,7.08668746 Z M2.71842105,7.15405405 L1.37136842,7.15405405 C1.01100431,7.15405405 0.65,7.56979411 0.65,8.01859459 L0.65,14.5915676 C0.65,15.0008261 0.972879824,15.3324324 1.37136842,15.3324324 L2.71842105,15.3324324 L2.71842105,7.15405405 Z M11.0374223,5.38648649 L14.6378947,5.38648649 C15.9753637,5.38648649 16.9404006,6.74507273 16.5709859,8.06530309 L14.6052017,15.1148919 C14.3645832,16.0210049 13.5642432,16.6675676 12.6538947,16.6675676 L1.37136842,16.6675676 C0.254909649,16.6675676 -0.65,15.7382009 -0.65,14.5915676 L-0.65,8.01859459 C-0.65,6.86431495 0.257760665,5.81891892 1.37136842,5.81891892 L3.17136842,5.81891892 C5.33526925,5.81891892 6.92894737,4.14449526 6.92894737,1.88583784 L6.92894737,1.40108108 C6.92894737,0.280785216 7.90808248,-0.667567568 9.00336842,-0.667567568 L9.05136842,-0.667567568 C9.90289442,-0.667567568 10.6831781,-0.0893456963 10.9469924,0.724767755 L11.075618,1.09146467 C11.4427743,2.22318892 11.491543,3.43963471 11.2137784,4.58151666 L11.1580668,4.82169237 C11.14681,4.99385453 11.1050843,5.1887522 11.0374223,5.38648649 Z" id="details_zan"></path>
            </g>
        </g>
    </g>
</svg>