<?xml version="1.0" encoding="UTF-8"?>
<svg width="20px" height="20px" viewBox="0 0 20 20" version="1.1" xmlns="http://www.w3.org/2000/svg" xmlns:xlink="http://www.w3.org/1999/xlink">
    <!-- Generator: Sketch 52.1 (67048) - http://www.bohemiancoding.com/sketch -->
    <title>details_bar_shouchang_pre</title>
    <desc>Created with Sketch.</desc>
    <g id="Page-1" stroke="none" stroke-width="1" fill="none" fill-rule="evenodd">
        <g id="查看别人文章" transform="translate(-39.000000, -867.000000)" fill="#FD6258" fill-rule="nonzero">
            <g id="details_bar_shouchang_pre-2" transform="translate(39.000000, 867.000000)">
                <path d="M13.6721353,4.7828054 C13.7765241,4.99393933 13.9779622,5.14024162 14.2107812,5.17414046 L18.1909708,5.75270507 C19.9217785,6.00423152 20.6129255,8.13161177 19.3603452,9.3522349 L16.4805399,12.159487 C16.3118053,12.3239796 16.2348839,12.5605722 16.2746586,12.7926306 L16.9545965,16.7564548 C17.2505979,18.4803504 15.440679,19.7954583 13.892764,18.981205 L10.3331397,17.1097746 C10.1247397,17.0002763 9.87546878,17.0002763 9.66742307,17.1097121 L6.10735696,18.9811302 C4.55929971,19.7954583 2.74938078,18.4803504 3.04536282,16.7565678 L3.72530453,12.7927216 C3.76509483,12.5605722 3.68817341,12.3239796 3.51945273,12.1595005 L0.639715304,9.35231462 C-0.612946748,8.13161177 0.0782002045,6.00423152 1.80898228,5.75270879 L5.78903491,5.17416412 C6.02216391,5.14022016 6.22371974,4.99387895 6.32761203,4.78327379 L8.10746774,1.17658944 C8.88143918,-0.392196479 11.1185395,-0.392196479 11.892511,1.17658944 L13.6721353,4.7828054 Z" id="details_bar_shouchang_pre"></path>
            </g>
        </g>
    </g>
</svg>