<?xml version="1.0" encoding="UTF-8"?>
<svg width="42px" height="42px" viewBox="0 0 42 42" version="1.1" xmlns="http://www.w3.org/2000/svg" xmlns:xlink="http://www.w3.org/1999/xlink">
    <!-- Generator: Sketch 52.1 (67048) - http://www.bohemiancoding.com/sketch -->
    <title>fabu_chenggong</title>
    <desc>Created with Sketch.</desc>
    <g id="Page-1" stroke="none" stroke-width="1" fill="none" fill-rule="evenodd">
        <g id="发布成功" transform="translate(-167.000000, -93.000000)" fill="#FD6258" fill-rule="nonzero">
            <g id="Group" transform="translate(168.000000, 94.000000)">
                <path d="M39,20 C39,9.50369718 30.4951279,1 20,1 C9.50487213,1 1,9.50369718 1,20 C1,30.4963028 9.50487213,39 20,39 C30.4951279,39 39,30.4963028 39,20 Z M41,20 C41,31.6009342 31.5996355,41 20,41 C8.40036448,41 -1,31.6009342 -1,20 C-1,8.39906582 8.40036448,-1 20,-1 C31.5996355,-1 41,8.39906582 41,20 Z M17,26.5857864 L31.2928932,12.2928932 L32.7071068,13.7071068 L17,29.4142136 L7.29289322,19.7071068 L8.70710678,18.2928932 L17,26.5857864 Z" id="fabu_chenggong"></path>
            </g>
        </g>
    </g>
</svg>