<?xml version="1.0" encoding="UTF-8"?>
<svg width="20px" height="21px" viewBox="0 0 20 21" version="1.1" xmlns="http://www.w3.org/2000/svg" xmlns:xlink="http://www.w3.org/1999/xlink">
    <!-- Generator: Sketch 52.1 (67048) - http://www.bohemiancoding.com/sketch -->
    <title>fabu_lianjie</title>
    <desc>Created with Sketch.</desc>
    <g id="Page-1" stroke="none" stroke-width="1" fill="none" fill-rule="evenodd">
        <g id="发布成功" transform="translate(-120.000000, -429.000000)" fill="#666666">
            <g id="Group-5" transform="translate(120.000000, 429.000000)">
                <path d="M18.7145676,1.34376297 C19.5444484,2.2043801 20,3.35064889 20,4.56283728 C20,5.78601227 19.5444484,6.93228106 18.7145676,7.7928982 L15.712871,10.9057687 L14.8052993,9.96458317 L17.8069958,6.85171267 C18.3932095,6.24378736 18.718099,5.43077883 18.718099,4.56649949 C18.718099,3.70588234 18.3932095,2.89287381 17.8069958,2.28494851 C16.5921916,1.0251515 14.6146032,1.0251515 13.399799,2.28494851 L8.44523396,7.42667815 C7.2304297,8.68647517 7.2304297,10.7373075 8.44523396,11.9971045 C8.71715234,12.2790939 9.03497904,12.5061504 9.3881198,12.6672872 L8.86900287,13.8831378 C8.37107439,13.6524192 7.92258561,13.3338077 7.53766217,12.9346278 C5.82139803,11.1547984 5.82139803,8.26165989 7.53766217,6.4818304 L12.4922272,1.34376297 C14.2084913,-0.436066512 16.9983034,-0.436066512 18.7145676,1.34376297 Z M10.5605472,6.5587366 C11.2809543,6.76381983 11.944859,7.16666191 12.481633,7.71965419 C13.3115138,8.58027134 13.7670654,9.72654013 13.7670654,10.9497151 C13.7670654,12.1692279 13.3115138,13.3154967 12.481633,14.1761138 L7.52706794,19.3105191 C6.69718714,20.1711362 5.59185652,20.6472223 4.41589775,20.6472223 C3.23993898,20.6472223 2.13460835,20.1711362 1.30472755,19.3105191 C0.474846745,18.4499019 0.0157637341,17.2999709 0.0157637341,16.0841204 C0.0157637341,14.8682698 0.474846745,13.722001 1.30472755,12.8577216 L4.45827464,9.58737651 L5.36584643,10.528562 L2.21229934,13.7989072 C1.62608565,14.4104947 1.30119615,15.219841 1.30119615,16.0841204 C1.30119615,16.9483997 1.62255425,17.757746 2.21229934,18.3693335 C2.80204442,18.9772588 3.58248553,19.3141813 4.41589775,19.3141813 C5.24930997,19.3141813 6.02975109,18.980921 6.61949617,18.3693335 L11.5740612,13.2312661 C12.1602749,12.6233408 12.4851644,11.8139945 12.4851644,10.9497151 C12.4851644,10.0854358 12.1602749,9.27242727 11.5740612,8.66450196 C11.1891378,8.2653221 10.7335862,7.99065705 10.221532,7.84416903 L10.5605472,6.5587366 Z" id="fabu_lianjie"></path>
            </g>
        </g>
    </g>
</svg>