<?xml version="1.0" encoding="UTF-8"?>
<svg width="22px" height="24px" viewBox="0 0 22 24" version="1.1" xmlns="http://www.w3.org/2000/svg" xmlns:xlink="http://www.w3.org/1999/xlink">
    <!-- Generator: Sketch 52.1 (67048) - http://www.bohemiancoding.com/sketch -->
    <title>fabu_haibao</title>
    <desc>Created with Sketch.</desc>
    <g id="Page-1" stroke="none" stroke-width="1" fill="none" fill-rule="evenodd">
        <g id="发布成功" transform="translate(-119.000000, -363.000000)" fill="#666666" fill-rule="nonzero">
            <g id="Group" transform="translate(120.000000, 364.000000)">
                <path d="M19.3,18.3333333 L19.3,3.33333333 C19.3,1.87882155 18.1211785,0.7 16.6666667,0.7 L3.33333333,0.7 C1.87882155,0.7 0.7,1.87882155 0.7,3.33333333 L0.7,18.3333333 C0.7,19.7878451 1.87882155,20.9666667 3.33333333,20.9666667 L16.6666667,20.9666667 C18.1211785,20.9666667 19.3,19.7878451 19.3,18.3333333 Z M20.7,18.3333333 C20.7,20.5610438 18.8943771,22.3666667 16.6666667,22.3666667 L3.33333333,22.3666667 C1.1056229,22.3666667 -0.7,20.5610438 -0.7,18.3333333 L-0.7,3.33333333 C-0.7,1.1056229 1.1056229,-0.7 3.33333333,-0.7 L16.6666667,-0.7 C18.8943771,-0.7 20.7,1.1056229 20.7,3.33333333 L20.7,18.3333333 Z M15,2.63333333 C16.3071549,2.63333333 17.3666667,3.69284512 17.3666667,5 L17.3666667,8.33333333 C17.3666667,9.64048821 16.3071549,10.7 15,10.7 L5.3030303,10.7 C3.99587542,10.7 2.93636364,9.64048821 2.93636364,8.33333333 L2.93636364,5 C2.93636364,3.69284512 3.99587542,2.63333333 5.3030303,2.63333333 L15,2.63333333 Z M15,4.03333333 L5.3030303,4.03333333 C4.76907407,4.03333333 4.33636364,4.46604377 4.33636364,5 L4.33636364,8.33333333 C4.33636364,8.86728956 4.76907407,9.3 5.3030303,9.3 L15,9.3 C15.5339562,9.3 15.9666667,8.86728956 15.9666667,8.33333333 L15.9666667,5 C15.9666667,4.46604377 15.5339562,4.03333333 15,4.03333333 Z M3.33333333,14.0333333 L3.33333333,12.6333333 L16.6666667,12.6333333 L16.6666667,14.0333333 L3.33333333,14.0333333 Z M3.33333333,17.3666667 L3.33333333,15.9666667 L11.6666667,15.9666667 L11.6666667,17.3666667 L3.33333333,17.3666667 Z" id="fabu_haibao"></path>
            </g>
        </g>
    </g>
</svg>