<?xml version="1.0" encoding="UTF-8"?>
<svg width="30px" height="24px" viewBox="0 0 30 24" version="1.1" xmlns="http://www.w3.org/2000/svg" xmlns:xlink="http://www.w3.org/1999/xlink">
    <!-- Generator: Sketch 52.1 (67048) - http://www.bohemiancoding.com/sketch -->
    <title>fabu_weixin</title>
    <desc>Created with Sketch.</desc>
    <g id="Page-1" stroke="none" stroke-width="1" fill="none" fill-rule="evenodd">
        <g id="发布成功" transform="translate(-115.000000, -235.000000)" fill="#09BB07" fill-rule="nonzero">
            <g id="Group-10" transform="translate(115.000000, 235.000000)">
                <g id="微信-(5)">
                    <path d="M20.0784061,7.25501916 C20.4155709,7.25501916 20.7527356,7.28616092 21.0881533,7.31558621 C20.1858697,3.12839847 15.6596475,0 10.5036322,0 C4.73799234,0.0202298851 0.0136091954,3.91702682 0.0136091954,8.86516475 C0.0136091954,11.7178238 1.58844444,14.07059 4.20441379,15.8921686 L3.14850575,19.0170115 L6.82041379,17.1973027 C8.13590805,17.4546207 9.19190805,17.7119387 10.4906667,17.7119387 C10.8278314,17.7119387 11.1484444,17.6972261 11.4688736,17.6677395 C11.2606388,16.9571651 11.1527747,16.220966 11.1484138,15.4805211 C11.1632797,10.9440613 15.09459,7.25685824 20.0803065,7.25685824 L20.0784674,7.25501916 L20.0784061,7.25501916 Z M14.4350958,4.435341 C15.2317241,4.435341 15.7504368,4.94997701 15.7504368,5.74032184 C15.7504368,6.51236782 15.2317241,7.04542529 14.4350958,7.04542529 C13.6550192,7.04542529 12.8602299,6.52895019 12.8602299,5.74029119 C12.8602299,4.94997701 13.6550192,4.435341 14.4350958,4.435341 Z M7.09275096,7.04542529 C6.31469732,7.04542529 5.51806897,6.52895019 5.51806897,5.74029119 C5.51806897,4.94997701 6.31469732,4.435341 7.09275096,4.435341 C7.87282759,4.435341 8.40824521,4.94997701 8.40824521,5.74032184 C8.40824521,6.51236782 7.88950192,7.04542529 7.09275096,7.04542529 Z M29.6568889,15.3720153 C29.6568889,11.2142529 25.4660843,7.81563218 20.7378697,7.81563218 C15.7522759,7.81563218 11.8208429,11.2142529 11.8208429,15.3720153 C11.8208429,19.5445211 15.7522759,22.9302375 20.7378697,22.9302375 C21.7791571,22.9302375 22.8351264,22.6729195 23.8893793,22.4137625 L26.764751,23.9761533 L25.9699617,21.3806897 C28.0820536,19.7889655 29.6568889,17.7081992 29.6568889,15.3720153 Z M17.8476935,14.0668812 C17.3289808,14.0668812 16.7916935,13.5522452 16.7916935,13.019249 C16.7916935,12.504613 17.3289808,11.9715862 17.8476935,11.9715862 C18.6443218,11.9715862 19.1631877,12.4880613 19.1631877,13.019249 C19.1631877,13.5522759 18.6443218,14.0669119 17.8476935,14.0669119 L17.8476935,14.0668812 Z M23.6152031,14.0668812 C23.0946207,14.0668812 22.5739157,13.5522452 22.5739157,13.019249 C22.5739157,12.504613 23.092751,11.9715862 23.6152031,11.9715862 C24.4099923,11.9715862 24.9305441,12.4880613 24.9305441,13.019249 C24.9305441,13.5522759 24.4099923,14.0669119 23.6152031,14.0669119 L23.6152031,14.0668812 Z" id="Shape"></path>
                </g>
            </g>
        </g>
    </g>
</svg>