<?xml version="1.0" encoding="UTF-8"?>
<svg width="375px" height="66px" viewBox="0 0 375 66" version="1.1" xmlns="http://www.w3.org/2000/svg" xmlns:xlink="http://www.w3.org/1999/xlink">
    <!-- Generator: Sketch 52.1 (67048) - http://www.bohemiancoding.com/sketch -->
    <title>family_bar_pic</title>
    <desc>Created with Sketch.</desc>
    <defs>
        <linearGradient x1="50%" y1="50%" x2="50%" y2="100%" id="linearGradient-1">
            <stop stop-color="#FFFFFF" offset="0%"></stop>
            <stop stop-color="#FFF4F1" offset="100%"></stop>
        </linearGradient>
        <path d="M0,62 L0,0 L375,0 L375,62 C374.998319,62.166524 375,62.3331913 375,62.5 C375,99.7792206 291.053391,130 187.5,130 C83.9466094,130 0,99.7792206 0,62.5 C0,62.3331913 0.00168076428,62.166524 0.00503652868,62 L0,62 Z" id="path-2"></path>
    </defs>
    <g id="Page-1" stroke="none" stroke-width="1" fill="none" fill-rule="evenodd">
        <g id="我的家庭" transform="translate(0.000000, -63.000000)">
            <g id="Path-2" transform="translate(0.000000, -1.000000)">
                <mask id="mask-3" fill="white">
                    <use xlink:href="#path-2"></use>
                </mask>
                <use id="Path" fill="url(#linearGradient-1)" fill-rule="nonzero" xlink:href="#path-2"></use>
                <g id="Group" mask="url(#mask-3)">
                    <g transform="translate(28.000000, 26.000000)">
                        <circle id="Oval-2" stroke="#FD6256" stroke-width="1" fill="none" opacity="0.100000001" cx="78" cy="86" r="12"></circle>
                        <path d="M118,72.5 C118,72.2238576 118.223858,72 118.5,72 C118.776142,72 119,72.2238576 119,72.5 L119,74.5 C119,74.7761424 118.776142,75 118.5,75 C118.223858,75 118,74.7761424 118,74.5 L118,72.5 Z M118,80.5 C118,80.2238576 118.223858,80 118.5,80 C118.776142,80 119,80.2238576 119,80.5 L119,82.5 C119,82.7761424 118.776142,83 118.5,83 C118.223858,83 118,82.7761424 118,82.5 L118,80.5 Z M114.611447,74.3185534 C114.416184,74.1232912 114.416184,73.8067088 114.611447,73.6114466 C114.806709,73.4161845 115.123291,73.4161845 115.318553,73.6114466 L116.733553,75.0264466 C116.928816,75.2217088 116.928816,75.5382912 116.733553,75.7335534 C116.538291,75.9288155 116.221709,75.9288155 116.026447,75.7335534 L114.611447,74.3185534 Z M120.266447,79.9735534 C120.071184,79.7782912 120.071184,79.4617088 120.266447,79.2664466 C120.461709,79.0711845 120.778291,79.0711845 120.973553,79.2664466 L122.388553,80.6814466 C122.583816,80.8767088 122.583816,81.1932912 122.388553,81.3885534 C122.193291,81.5838155 121.876709,81.5838155 121.681447,81.3885534 L120.266447,79.9735534 Z M113.5,78 C113.223858,78 113,77.7761424 113,77.5 C113,77.2238576 113.223858,77 113.5,77 L115.5,77 C115.776142,77 116,77.2238576 116,77.5 C116,77.7761424 115.776142,78 115.5,78 L113.5,78 Z M121.5,78 C121.223858,78 121,77.7761424 121,77.5 C121,77.2238576 121.223858,77 121.5,77 L123.5,77 C123.776142,77 124,77.2238576 124,77.5 C124,77.7761424 123.776142,78 123.5,78 L121.5,78 Z M115.318553,81.3885534 C115.123291,81.5838155 114.806709,81.5838155 114.611447,81.3885534 C114.416184,81.1932912 114.416184,80.8767088 114.611447,80.6814466 L116.026447,79.2664466 C116.221709,79.0711845 116.538291,79.0711845 116.733553,79.2664466 C116.928816,79.4617088 116.928816,79.7782912 116.733553,79.9735534 L115.318553,81.3885534 Z M120.973553,75.7335534 C120.778291,75.9288155 120.461709,75.9288155 120.266447,75.7335534 C120.071184,75.5382912 120.071184,75.2217088 120.266447,75.0264466 L121.681447,73.6114466 C121.876709,73.4161845 122.193291,73.4161845 122.388553,73.6114466 C122.583816,73.8067088 122.583816,74.1232912 122.388553,74.3185534 L120.973553,75.7335534 Z" id="Combined-Shape" stroke="none" fill="#FEE6E4" fill-rule="nonzero"></path>
                        <path d="M58,60.2 C58,60.0895431 58.0805887,60 58.18,60 C58.2794113,60 58.36,60.0895431 58.36,60.2 L58.36,61 C58.36,61.1104569 58.2794113,61.2 58.18,61.2 C58.0805887,61.2 58,61.1104569 58,61 L58,60.2 Z M58,63.4 C58,63.2895431 58.0805887,63.2 58.18,63.2 C58.2794113,63.2 58.36,63.2895431 58.36,63.4 L58.36,64.2 C58.36,64.3104569 58.2794113,64.4 58.18,64.4 C58.0805887,64.4 58,64.3104569 58,64.2 L58,63.4 Z M56.6445786,60.9274214 C56.5664738,60.8493165 56.5664738,60.7226835 56.6445786,60.6445786 C56.7226835,60.5664738 56.8493165,60.5664738 56.9274214,60.6445786 L57.4934214,61.2105786 C57.5715262,61.2886835 57.5715262,61.4153165 57.4934214,61.4934214 C57.4153165,61.5715262 57.2886835,61.5715262 57.2105786,61.4934214 L56.6445786,60.9274214 Z M58.9065786,63.1894214 C58.8284738,63.1113165 58.8284738,62.9846835 58.9065786,62.9065786 C58.9846835,62.8284738 59.1113165,62.8284738 59.1894214,62.9065786 L59.7554214,63.4725786 C59.8335262,63.5506835 59.8335262,63.6773165 59.7554214,63.7554214 C59.6773165,63.8335262 59.5506835,63.8335262 59.4725786,63.7554214 L58.9065786,63.1894214 Z M56.2,62.36 C56.0895431,62.36 56,62.2794113 56,62.18 C56,62.0805887 56.0895431,62 56.2,62 L57,62 C57.1104569,62 57.2,62.0805887 57.2,62.18 C57.2,62.2794113 57.1104569,62.36 57,62.36 L56.2,62.36 Z M59.4,62.36 C59.2895431,62.36 59.2,62.2794113 59.2,62.18 C59.2,62.0805887 59.2895431,62 59.4,62 L60.2,62 C60.3104569,62 60.4,62.0805887 60.4,62.18 C60.4,62.2794113 60.3104569,62.36 60.2,62.36 L59.4,62.36 Z M56.9274214,63.7554214 C56.8493165,63.8335262 56.7226835,63.8335262 56.6445786,63.7554214 C56.5664738,63.6773165 56.5664738,63.5506835 56.6445786,63.4725786 L57.2105786,62.9065786 C57.2886835,62.8284738 57.4153165,62.8284738 57.4934214,62.9065786 C57.5715262,62.9846835 57.5715262,63.1113165 57.4934214,63.1894214 L56.9274214,63.7554214 Z M59.1894214,61.4934214 C59.1113165,61.5715262 58.9846835,61.5715262 58.9065786,61.4934214 C58.8284738,61.4153165 58.8284738,61.2886835 58.9065786,61.2105786 L59.4725786,60.6445786 C59.5506835,60.5664738 59.6773165,60.5664738 59.7554214,60.6445786 C59.8335262,60.7226835 59.8335262,60.8493165 59.7554214,60.9274214 L59.1894214,61.4934214 Z" id="Combined-Shape" stroke="none" fill="#FEE6E3" fill-rule="nonzero"></path>
                        <path d="M75.3739301,44.6517073 L73.7646702,46.6636851 L72.1554103,44.6517073 C70.3094683,42.3438177 69.2691386,41.6830524 67.0925166,41.6830524 C66.7474784,41.6830524 66.3790822,41.7027954 65.9838562,41.7435451 C63.7033234,41.9776482 61.5972997,44.3341154 61.3187577,47.8892975 L61.3127473,49.4707985 C61.6080873,53.4387409 64.5844007,57.016097 73.69334,63.8344823 C73.7400389,63.8694489 73.7884944,63.8694489 73.8353684,63.8343513 C82.9447314,57.0150723 85.9213145,53.4379153 86.2105827,49.6325326 L86.2169647,48.05595 C85.931465,44.3340847 83.8251303,41.9776564 81.5426082,41.7434151 C81.149342,41.7027973 80.7810802,41.6830524 80.4360167,41.6830524 C78.25966,41.6830524 77.2202214,42.3433809 75.3739301,44.6517073 Z" id="Path-Copy" stroke="none" fill="#FEE6E3" fill-rule="nonzero" transform="translate(73.764856, 52.771872) rotate(-14.000000) translate(-73.764856, -52.771872) "></path>
                        <path d="M123.389149,47.9464453 L122.555305,49.0512129 L121.721461,47.9464453 C120.764979,46.6791938 120.225928,46.3163706 119.098103,46.3163706 C118.91932,46.3163706 118.728434,46.3272114 118.523646,46.3495868 C117.341979,46.4781318 116.250735,47.772057 116.106407,49.724191 L116.103293,50.5925859 C116.256324,52.7713647 117.798513,54.7356743 122.518345,58.4796181 C122.542542,58.4988181 122.56765,58.4988181 122.591938,58.4795461 C127.31199,54.7351117 128.854318,52.7709113 129.004203,50.6813933 L129.00751,49.8156991 C128.859577,47.7720401 127.768172,46.4781363 126.585474,46.3495155 C126.381702,46.3272124 126.190885,46.3163706 126.012089,46.3163706 C124.884402,46.3163706 124.345812,46.6789539 123.389149,47.9464453 Z" id="Path-Copy-4" stroke="none" fill="#FEE6E3" fill-rule="nonzero" transform="translate(122.555401, 52.405190) rotate(28.000000) translate(-122.555401, -52.405190) "></path>
                        <path d="M11.7716704,44.6452758 L10.6793543,46.0222065 L9.58703815,44.6452758 C8.33406948,43.0658329 7.6279256,42.6136271 6.15050152,42.6136271 C5.91630018,42.6136271 5.66624416,42.6271385 5.39797691,42.6550262 C3.85002133,42.8152386 2.42051716,44.4279265 2.23145139,46.8609749 L2.22737175,47.9433016 C2.42783945,50.6588295 4.44806954,53.1070531 10.6309375,57.7733293 C10.6626354,57.7972592 10.6955255,57.7972592 10.7273421,57.7732396 C16.9104977,53.1063518 18.9309109,50.6582644 19.1272572,48.053987 L19.1315891,46.9750263 C18.9378007,44.4279054 17.5080855,42.8152443 15.9587796,42.6549373 C15.6918426,42.6271398 15.4418778,42.6136271 15.2076593,42.6136271 C13.7304153,42.6136271 13.0248763,43.0655339 11.7716704,44.6452758 Z" id="Path-Copy-2" stroke="#FEE6E4" stroke-width="1" fill="none" fill-rule="nonzero" transform="translate(10.679480, 50.202446) rotate(-22.000000) translate(-10.679480, -50.202446) "></path>
                        <path d="M163.603787,45.9203388 L162.834561,46.9343854 L162.065335,45.9203388 C161.182974,44.7571511 160.685696,44.4241221 159.645271,44.4241221 C159.480343,44.4241221 159.304249,44.4340727 159.115331,44.4546107 C158.025237,44.5725998 157.018557,45.7602709 156.885414,47.5521 L156.882541,48.3491843 C157.023714,50.3490467 158.446392,52.1520517 162.800465,55.5885514 C162.822787,55.6061747 162.845949,55.6061747 162.868355,55.5884853 C167.222631,52.1515353 168.645438,50.3486306 168.783708,48.4306991 L168.786758,47.6360937 C168.65029,45.7602554 167.643461,44.572604 166.552416,44.4545452 C166.364434,44.4340736 166.188405,44.4241221 166.023465,44.4241221 C164.983166,44.4241221 164.486315,44.7569309 163.603787,45.9203388 Z" id="Path-Copy-3" stroke="#FEE6E4" stroke-width="1" fill="none" fill-rule="nonzero" transform="translate(162.834650, 50.012941) rotate(16.000000) translate(-162.834650, -50.012941) "></path>
                    </g>
                </g>
                <g id="Group-Copy" mask="url(#mask-3)">
                    <g transform="translate(303.500000, 109.500000) scale(-1, 1) translate(-303.500000, -109.500000) translate(221.000000, 64.000000)">
                        <circle id="Oval-2-Copy" stroke="#FD6256" stroke-width="1" fill="none" opacity="0.100000001" cx="109.5" cy="7.5" r="5.5"></circle>
                        <path d="M70.3,1 C70.3,0.613400675 70.6134007,0.3 71,0.3 C71.3865993,0.3 71.7,0.613400675 71.7,1 L71.7,3.8 C71.7,4.18659932 71.3865993,4.5 71,4.5 C70.6134007,4.5 70.3,4.18659932 70.3,3.8 L70.3,1 Z M70.3,12.2 C70.3,11.8134007 70.6134007,11.5 71,11.5 C71.3865993,11.5 71.7,11.8134007 71.7,12.2 L71.7,15 C71.7,15.3865993 71.3865993,15.7 71,15.7 C70.6134007,15.7 70.3,15.3865993 70.3,15 L70.3,12.2 Z M65.5560253,3.54597475 C65.2826582,3.27260774 65.2826582,2.82939226 65.5560253,2.55602525 C65.8293923,2.28265825 66.2726077,2.28265825 66.5459747,2.55602525 L68.5269747,4.53702525 C68.8003418,4.81039226 68.8003418,5.25360774 68.5269747,5.52697475 C68.2536077,5.80034175 67.8103923,5.80034175 67.5370253,5.52697475 L65.5560253,3.54597475 Z M73.4730253,11.4629747 C73.1996582,11.1896077 73.1996582,10.7463923 73.4730253,10.4730253 C73.7463923,10.1996582 74.1896077,10.1996582 74.4629747,10.4730253 L76.4439747,12.4540253 C76.7173418,12.7273923 76.7173418,13.1706077 76.4439747,13.4439747 C76.1706077,13.7173418 75.7273923,13.7173418 75.4540253,13.4439747 L73.4730253,11.4629747 Z M64,8.7 C63.6134007,8.7 63.3,8.38659932 63.3,8 C63.3,7.61340068 63.6134007,7.3 64,7.3 L66.8,7.3 C67.1865993,7.3 67.5,7.61340068 67.5,8 C67.5,8.38659932 67.1865993,8.7 66.8,8.7 L64,8.7 Z M75.2,8.7 C74.8134007,8.7 74.5,8.38659932 74.5,8 C74.5,7.61340068 74.8134007,7.3 75.2,7.3 L78,7.3 C78.3865993,7.3 78.7,7.61340068 78.7,8 C78.7,8.38659932 78.3865993,8.7 78,8.7 L75.2,8.7 Z M66.5459747,13.4439747 C66.2726077,13.7173418 65.8293923,13.7173418 65.5560253,13.4439747 C65.2826582,13.1706077 65.2826582,12.7273923 65.5560253,12.4540253 L67.5370253,10.4730253 C67.8103923,10.1996582 68.2536077,10.1996582 68.5269747,10.4730253 C68.8003418,10.7463923 68.8003418,11.1896077 68.5269747,11.4629747 L66.5459747,13.4439747 Z M74.4629747,5.52697475 C74.1896077,5.80034175 73.7463923,5.80034175 73.4730253,5.52697475 C73.1996582,5.25360774 73.1996582,4.81039226 73.4730253,4.53702525 L75.4540253,2.55602525 C75.7273923,2.28265825 76.1706077,2.28265825 76.4439747,2.55602525 C76.7173418,2.82939226 76.7173418,3.27260774 76.4439747,3.54597475 L74.4629747,5.52697475 Z" id="Combined-Shape" stroke="none" fill="#FEE6E3" fill-rule="nonzero"></path>
                        <path d="M119,65.5 C119,65.2238576 119.223858,65 119.5,65 C119.776142,65 120,65.2238576 120,65.5 L120,67.5 C120,67.7761424 119.776142,68 119.5,68 C119.223858,68 119,67.7761424 119,67.5 L119,65.5 Z M119,73.5 C119,73.2238576 119.223858,73 119.5,73 C119.776142,73 120,73.2238576 120,73.5 L120,75.5 C120,75.7761424 119.776142,76 119.5,76 C119.223858,76 119,75.7761424 119,75.5 L119,73.5 Z M115.611447,67.3185534 C115.416184,67.1232912 115.416184,66.8067088 115.611447,66.6114466 C115.806709,66.4161845 116.123291,66.4161845 116.318553,66.6114466 L117.733553,68.0264466 C117.928816,68.2217088 117.928816,68.5382912 117.733553,68.7335534 C117.538291,68.9288155 117.221709,68.9288155 117.026447,68.7335534 L115.611447,67.3185534 Z M121.266447,72.9735534 C121.071184,72.7782912 121.071184,72.4617088 121.266447,72.2664466 C121.461709,72.0711845 121.778291,72.0711845 121.973553,72.2664466 L123.388553,73.6814466 C123.583816,73.8767088 123.583816,74.1932912 123.388553,74.3885534 C123.193291,74.5838155 122.876709,74.5838155 122.681447,74.3885534 L121.266447,72.9735534 Z M114.5,71 C114.223858,71 114,70.7761424 114,70.5 C114,70.2238576 114.223858,70 114.5,70 L116.5,70 C116.776142,70 117,70.2238576 117,70.5 C117,70.7761424 116.776142,71 116.5,71 L114.5,71 Z M122.5,71 C122.223858,71 122,70.7761424 122,70.5 C122,70.2238576 122.223858,70 122.5,70 L124.5,70 C124.776142,70 125,70.2238576 125,70.5 C125,70.7761424 124.776142,71 124.5,71 L122.5,71 Z M116.318553,74.3885534 C116.123291,74.5838155 115.806709,74.5838155 115.611447,74.3885534 C115.416184,74.1932912 115.416184,73.8767088 115.611447,73.6814466 L117.026447,72.2664466 C117.221709,72.0711845 117.538291,72.0711845 117.733553,72.2664466 C117.928816,72.4617088 117.928816,72.7782912 117.733553,72.9735534 L116.318553,74.3885534 Z M121.973553,68.7335534 C121.778291,68.9288155 121.461709,68.9288155 121.266447,68.7335534 C121.071184,68.5382912 121.071184,68.2217088 121.266447,68.0264466 L122.681447,66.6114466 C122.876709,66.4161845 123.193291,66.4161845 123.388553,66.6114466 C123.583816,66.8067088 123.583816,67.1232912 123.388553,67.3185534 L121.973553,68.7335534 Z" id="Combined-Shape" stroke="none" fill="#FEE6E4" fill-rule="nonzero"></path>
                        <path d="M120.35,17 C120.35,16.9171573 120.417157,16.85 120.5,16.85 C120.582843,16.85 120.65,16.9171573 120.65,17 L120.65,17.6 C120.65,17.6828427 120.582843,17.75 120.5,17.75 C120.417157,17.75 120.35,17.6828427 120.35,17.6 L120.35,17 Z M120.35,19.4 C120.35,19.3171573 120.417157,19.25 120.5,19.25 C120.582843,19.25 120.65,19.3171573 120.65,19.4 L120.65,20 C120.65,20.0828427 120.582843,20.15 120.5,20.15 C120.417157,20.15 120.35,20.0828427 120.35,20 L120.35,19.4 Z M119.333434,17.545566 C119.274855,17.4869874 119.274855,17.3920126 119.333434,17.333434 C119.392013,17.2748553 119.486987,17.2748553 119.545566,17.333434 L119.970066,17.757934 C120.028645,17.8165126 120.028645,17.9114874 119.970066,17.970066 C119.911487,18.0286447 119.816513,18.0286447 119.757934,17.970066 L119.333434,17.545566 Z M121.029934,19.242066 C120.971355,19.1834874 120.971355,19.0885126 121.029934,19.029934 C121.088513,18.9713553 121.183487,18.9713553 121.242066,19.029934 L121.666566,19.454434 C121.725145,19.5130126 121.725145,19.6079874 121.666566,19.666566 C121.607987,19.7251447 121.513013,19.7251447 121.454434,19.666566 L121.029934,19.242066 Z M119,18.65 C118.917157,18.65 118.85,18.5828427 118.85,18.5 C118.85,18.4171573 118.917157,18.35 119,18.35 L119.6,18.35 C119.682843,18.35 119.75,18.4171573 119.75,18.5 C119.75,18.5828427 119.682843,18.65 119.6,18.65 L119,18.65 Z M121.4,18.65 C121.317157,18.65 121.25,18.5828427 121.25,18.5 C121.25,18.4171573 121.317157,18.35 121.4,18.35 L122,18.35 C122.082843,18.35 122.15,18.4171573 122.15,18.5 C122.15,18.5828427 122.082843,18.65 122,18.65 L121.4,18.65 Z M119.545566,19.666566 C119.486987,19.7251447 119.392013,19.7251447 119.333434,19.666566 C119.274855,19.6079874 119.274855,19.5130126 119.333434,19.454434 L119.757934,19.029934 C119.816513,18.9713553 119.911487,18.9713553 119.970066,19.029934 C120.028645,19.0885126 120.028645,19.1834874 119.970066,19.242066 L119.545566,19.666566 Z M121.242066,17.970066 C121.183487,18.0286447 121.088513,18.0286447 121.029934,17.970066 C120.971355,17.9114874 120.971355,17.8165126 121.029934,17.757934 L121.454434,17.333434 C121.513013,17.2748553 121.607987,17.2748553 121.666566,17.333434 C121.725145,17.3920126 121.725145,17.4869874 121.666566,17.545566 L121.242066,17.970066 Z" id="Combined-Shape" stroke="none" fill="#FEE6E3" fill-rule="nonzero"></path>
                        <path d="M59,53.2 C59,53.0895431 59.0805887,53 59.18,53 C59.2794113,53 59.36,53.0895431 59.36,53.2 L59.36,54 C59.36,54.1104569 59.2794113,54.2 59.18,54.2 C59.0805887,54.2 59,54.1104569 59,54 L59,53.2 Z M59,56.4 C59,56.2895431 59.0805887,56.2 59.18,56.2 C59.2794113,56.2 59.36,56.2895431 59.36,56.4 L59.36,57.2 C59.36,57.3104569 59.2794113,57.4 59.18,57.4 C59.0805887,57.4 59,57.3104569 59,57.2 L59,56.4 Z M57.6445786,53.9274214 C57.5664738,53.8493165 57.5664738,53.7226835 57.6445786,53.6445786 C57.7226835,53.5664738 57.8493165,53.5664738 57.9274214,53.6445786 L58.4934214,54.2105786 C58.5715262,54.2886835 58.5715262,54.4153165 58.4934214,54.4934214 C58.4153165,54.5715262 58.2886835,54.5715262 58.2105786,54.4934214 L57.6445786,53.9274214 Z M59.9065786,56.1894214 C59.8284738,56.1113165 59.8284738,55.9846835 59.9065786,55.9065786 C59.9846835,55.8284738 60.1113165,55.8284738 60.1894214,55.9065786 L60.7554214,56.4725786 C60.8335262,56.5506835 60.8335262,56.6773165 60.7554214,56.7554214 C60.6773165,56.8335262 60.5506835,56.8335262 60.4725786,56.7554214 L59.9065786,56.1894214 Z M57.2,55.36 C57.0895431,55.36 57,55.2794113 57,55.18 C57,55.0805887 57.0895431,55 57.2,55 L58,55 C58.1104569,55 58.2,55.0805887 58.2,55.18 C58.2,55.2794113 58.1104569,55.36 58,55.36 L57.2,55.36 Z M60.4,55.36 C60.2895431,55.36 60.2,55.2794113 60.2,55.18 C60.2,55.0805887 60.2895431,55 60.4,55 L61.2,55 C61.3104569,55 61.4,55.0805887 61.4,55.18 C61.4,55.2794113 61.3104569,55.36 61.2,55.36 L60.4,55.36 Z M57.9274214,56.7554214 C57.8493165,56.8335262 57.7226835,56.8335262 57.6445786,56.7554214 C57.5664738,56.6773165 57.5664738,56.5506835 57.6445786,56.4725786 L58.2105786,55.9065786 C58.2886835,55.8284738 58.4153165,55.8284738 58.4934214,55.9065786 C58.5715262,55.9846835 58.5715262,56.1113165 58.4934214,56.1894214 L57.9274214,56.7554214 Z M60.1894214,54.4934214 C60.1113165,54.5715262 59.9846835,54.5715262 59.9065786,54.4934214 C59.8284738,54.4153165 59.8284738,54.2886835 59.9065786,54.2105786 L60.4725786,53.6445786 C60.5506835,53.5664738 60.6773165,53.5664738 60.7554214,53.6445786 C60.8335262,53.7226835 60.8335262,53.8493165 60.7554214,53.9274214 L60.1894214,54.4934214 Z" id="Combined-Shape" stroke="none" fill="#FEE6E3" fill-rule="nonzero"></path>
                        <path d="M86.0977162,29.9318068 L84.6823102,31.6716216 L83.2669042,29.9318068 C81.6433272,27.9361086 80.7283172,27.364726 78.8138944,27.364726 C78.51042,27.364726 78.1864014,27.3817983 77.8387849,27.4170357 C75.8329686,27.6194714 73.9806397,29.657176 73.7356513,32.7314436 L73.7303649,34.0990128 C73.9901278,37.5302061 76.60791,40.6236483 84.6195725,46.5197012 C84.6606461,46.5499377 84.7032646,46.5499377 84.744492,46.5195879 C92.7565272,40.6227622 95.3745466,37.5294922 95.6289691,34.2388689 L95.6345823,32.8755529 C95.3834744,29.6571494 93.530872,27.6194785 91.5233059,27.4169233 C91.1774132,27.3817999 90.8535127,27.364726 90.5500162,27.364726 C88.6358267,27.364726 87.7216004,27.9357309 86.0977162,29.9318068 Z" id="Path-Copy" stroke="none" fill="#FEE6E3" fill-rule="nonzero" transform="translate(84.682474, 36.953545) rotate(-14.000000) translate(-84.682474, -36.953545) "></path>
                        <path d="M124.389149,40.9464453 L123.555305,42.0512129 L122.721461,40.9464453 C121.764979,39.6791938 121.225928,39.3163706 120.098103,39.3163706 C119.91932,39.3163706 119.728434,39.3272114 119.523646,39.3495868 C118.341979,39.4781318 117.250735,40.772057 117.106407,42.724191 L117.103293,43.5925859 C117.256324,45.7713647 118.798513,47.7356743 123.518345,51.4796181 C123.542542,51.4988181 123.56765,51.4988181 123.591938,51.4795461 C128.31199,47.7351117 129.854318,45.7709113 130.004203,43.6813933 L130.00751,42.8156991 C129.859577,40.7720401 128.768172,39.4781363 127.585474,39.3495155 C127.381702,39.3272124 127.190885,39.3163706 127.012089,39.3163706 C125.884402,39.3163706 125.345812,39.6789539 124.389149,40.9464453 Z" id="Path-Copy-4" stroke="none" fill="#FEE6E3" fill-rule="nonzero" transform="translate(123.555401, 45.405190) rotate(28.000000) translate(-123.555401, -45.405190) "></path>
                        <path d="M12.5442987,34.0316487 L11.4519826,35.4085794 L10.3596664,34.0316487 C9.10669773,32.4522058 8.40055385,32 6.92312977,32 C6.68892843,32 6.43887242,32.0135114 6.17060516,32.0413992 C4.62264958,32.2016115 3.19314541,33.8142994 3.00407964,36.2473478 L3,37.3296745 C3.2004677,40.0452024 5.22069779,42.493426 11.4035658,47.1597022 C11.4352636,47.1836322 11.4681537,47.1836322 11.4999703,47.1596126 C17.6831259,42.4927247 19.7035391,40.0446373 19.8998855,37.44036 L19.9042174,36.3613992 C19.710429,33.8142784 18.2807137,32.2016172 16.7314078,32.0413102 C16.4644708,32.0135127 16.214506,32 15.9802876,32 C14.5030435,32 13.7975045,32.4519069 12.5442987,34.0316487 Z" id="Path-Copy-2" stroke="#FEE6E4" stroke-width="1" fill="none" fill-rule="nonzero" transform="translate(11.452109, 39.588819) rotate(-22.000000) translate(-11.452109, -39.588819) "></path>
                        <path d="M157.512958,25.9203388 L156.743732,26.9343854 L155.974506,25.9203388 C155.092145,24.7571511 154.594868,24.4241221 153.554442,24.4241221 C153.389514,24.4241221 153.213421,24.4340727 153.024503,24.4546107 C151.934408,24.5725998 150.927728,25.7602709 150.794585,27.5521 L150.791712,28.3491843 C150.932885,30.3490467 152.355563,32.1520517 156.709636,35.5885514 C156.731958,35.6061747 156.75512,35.6061747 156.777526,35.5884853 C161.131802,32.1515353 162.554609,30.3486306 162.692879,28.4306991 L162.69593,27.6360937 C162.559461,25.7602554 161.552633,24.572604 160.461587,24.4545452 C160.273606,24.4340736 160.097576,24.4241221 159.932636,24.4241221 C158.892337,24.4241221 158.395486,24.7569309 157.512958,25.9203388 Z" id="Path-Copy-3" stroke="#FEE6E4" stroke-width="1" fill="none" fill-rule="nonzero" transform="translate(156.743821, 30.012941) rotate(16.000000) translate(-156.743821, -30.012941) "></path>
                    </g>
                </g>
            </g>
        </g>
    </g>
</svg>