<?xml version="1.0" encoding="UTF-8"?>
<svg width="20px" height="19px" viewBox="0 0 20 19" version="1.1" xmlns="http://www.w3.org/2000/svg" xmlns:xlink="http://www.w3.org/1999/xlink">
    <!-- Generator: Sketch 52.1 (67048) - http://www.bohemiancoding.com/sketch -->
    <title>Group</title>
    <desc>Created with Sketch.</desc>
    <g id="Page-1" stroke="none" stroke-width="1" fill="none" fill-rule="evenodd">
        <g id="查看别人文章" transform="translate(-125.000000, -868.000000)" fill="#999999" fill-rule="nonzero">
            <g id="Group" transform="translate(125.000000, 868.000000)">
                <path d="M5.49987594,15.2878049 L3.58658537,15.2878049 C1.74371182,15.2878049 0.25,13.7940931 0.25,11.9512195 L0.25,4.16506585 C0.25,2.01005938 2.01005938,0.25 4.16506585,0.25 L16.2237866,0.25 C17.894965,0.25 19.25,1.60503499 19.25,3.27621341 L19.25,11.9512195 C19.25,13.7940931 17.7562882,15.2878049 15.9134146,15.2878049 L14.0001241,15.2878049 L11.1677986,18.1201303 C10.3847732,18.9031557 9.11522681,18.9031557 8.33220138,18.1201303 L5.49987594,15.2878049 Z M16.2237866,1.6402439 L4.16506585,1.6402439 C2.77786989,1.6402439 1.6402439,2.77786989 1.6402439,4.16506585 L1.6402439,11.9512195 C1.6402439,13.0262826 2.51152233,13.897561 3.58658537,13.897561 L6.07573382,13.897561 L9.31525227,17.1370794 C9.55535368,17.3771808 9.94464632,17.3771808 10.1847477,17.1370794 L13.4242662,13.897561 L15.9134146,13.897561 C16.9884777,13.897561 17.8597561,13.0262826 17.8597561,11.9512195 L17.8597561,3.27621341 C17.8597561,2.3728455 17.1271545,1.6402439 16.2237866,1.6402439 Z M4.90731707,6.92317073 L4.90731707,5.53292683 L14.152439,5.53292683 L14.152439,6.92317073 L4.90731707,6.92317073 Z M6.22804878,10.004878 L6.22804878,8.61463415 L12.8317073,8.61463415 L12.8317073,10.004878 L6.22804878,10.004878 Z" id="details_bar_pinglun"></path>
            </g>
        </g>
    </g>
</svg>