<?xml version="1.0" encoding="UTF-8"?>
<svg width="20px" height="20px" viewBox="0 0 20 20" version="1.1" xmlns="http://www.w3.org/2000/svg" xmlns:xlink="http://www.w3.org/1999/xlink">
    <!-- Generator: Sketch 52.1 (67048) - http://www.bohemiancoding.com/sketch -->
    <title>haoyou_duoxuan_pre</title>
    <desc>Created with Sketch.</desc>
    <g id="Page-1" stroke="none" stroke-width="1" fill="none" fill-rule="evenodd">
        <g id="指定好友" transform="translate(-318.000000, -220.000000)" fill="#FD6258" fill-rule="nonzero">
            <g id="Group-6" transform="translate(318.000000, 220.000000)">
                <path d="M4,0 L16,0 C18.209139,-4.05812251e-16 20,1.790861 20,4 L20,16 C20,18.209139 18.209139,20 16,20 L4,20 C1.790861,20 2.705415e-16,18.209139 0,16 L0,4 C-2.705415e-16,1.790861 1.790861,4.05812251e-16 4,0 Z M7.82842712,11.6568542 L5.70710678,9.53553391 C5.31658249,9.14500961 4.68341751,9.14500961 4.29289322,9.53553391 C3.90236893,9.9260582 3.90236893,10.5592232 4.29289322,10.9497475 L7.12132034,13.7781746 C7.51184464,14.1686989 8.14500961,14.1686989 8.53553391,13.7781746 L15.6066017,6.70710678 C15.997126,6.31658249 15.997126,5.68341751 15.6066017,5.29289322 C15.2160774,4.90236893 14.5829124,4.90236893 14.1923882,5.29289322 L7.82842712,11.6568542 Z" id="Combined-Shape"></path>
            </g>
        </g>
    </g>
</svg>