<?xml version="1.0" encoding="UTF-8"?>
<svg width="24px" height="24px" viewBox="0 0 24 24" version="1.1" xmlns="http://www.w3.org/2000/svg" xmlns:xlink="http://www.w3.org/1999/xlink">
    <!-- Generator: Sketch 52.1 (67048) - http://www.bohemiancoding.com/sketch -->
    <title>home_nor</title>
    <desc>Created with Sketch.</desc>
    <g id="Symbols" stroke="none" stroke-width="1" fill="none" fill-rule="evenodd">
        <g id="live_nor" transform="translate(-12.000000, -6.000000)" fill="#8E8E93" fill-rule="nonzero">
            <g id="Group" transform="translate(0.000000, 6.000000)">
                <path d="M19.4482759,23.1310345 L18.8068966,23.1310345 C17.7672293,23.1310345 16.597986,22.6015412 15.8045309,21.8087627 C15.0122519,21.0158071 14.4827586,19.8465638 14.4827586,18.8068966 L14.4827586,10.7259254 L13.1717483,12.0399983 L12,10.870981 L22.1320743,0.715237432 C22.5859293,0.260544994 23.2026026,1.77635684e-15 23.8587569,1.77635684e-15 C24.5142503,1.77635684e-15 25.1306189,0.260416279 25.5842189,0.714017094 L35.7634879,10.8696171 L34.5944673,12.0413622 L33.8896552,11.3381889 L33.8896552,18.8068966 C33.8896552,20.0040206 33.5774452,21.0675335 32.8363489,21.8092622 C31.9811491,22.6637323 31.1136075,23.1310345 30.1034483,23.1310345 L28.3862069,23.1310345 L28.3862069,23.1931034 L19.4482759,23.1931034 L19.4482759,23.1310345 Z M19.4482759,21.4758621 L19.4482759,15.0821994 C19.4482759,12.6864689 21.4562969,10.7586207 23.9172414,10.7586207 C26.3781858,10.7586207 28.3862069,12.6864689 28.3862069,15.0821994 L28.3862069,21.4758621 L30.1034483,21.4758621 C30.602172,21.4758621 31.0927344,21.2116202 31.6659654,20.6388787 C32.0419854,20.2625376 32.2344828,19.6068139 32.2344828,18.8068966 L32.2344828,9.68686494 L24.4145168,1.88508147 C24.2677227,1.73828739 24.0710013,1.65517241 23.8587569,1.65517241 C23.6460976,1.65517241 23.449627,1.7381814 23.3036793,1.88439835 L16.137931,9.06688638 L16.137931,18.8068966 C16.137931,19.3868961 16.4806447,20.1436869 16.9749144,20.6383792 C17.4701062,21.1331485 18.226897,21.4758621 18.8068966,21.4758621 L19.4482759,21.4758621 Z M21.1034483,21.4758621 L26.7310345,21.4758621 L26.7310345,15.0821994 C26.7310345,13.6160235 25.4788073,12.4137931 23.9172414,12.4137931 C22.3556755,12.4137931 21.1034483,13.6160235 21.1034483,15.0821994 L21.1034483,21.4758621 Z" id="home_nor"></path>
            </g>
        </g>
    </g>
</svg>