<?xml version="1.0" encoding="UTF-8"?>
<svg width="24px" height="24px" viewBox="0 0 24 24" version="1.1" xmlns="http://www.w3.org/2000/svg" xmlns:xlink="http://www.w3.org/1999/xlink">
    <!-- Generator: Sketch 52.1 (67048) - http://www.bohemiancoding.com/sketch -->
    <title>home_pre</title>
    <desc>Created with Sketch.</desc>
    <g id="Page-1" stroke="none" stroke-width="1" fill="none" fill-rule="evenodd">
        <g id="添加" transform="translate(-50.000000, -624.000000)" fill="#FD6258" fill-rule="nonzero">
            <g id="Bars/Tab-Bar/3-Items" transform="translate(0.000000, 593.000000)">
                <g id="Item-1" transform="translate(38.000000, 31.000000)">
                    <g id="Group" transform="translate(12.000000, 0.000000)">
                        <path d="M7.44827586,23.1310345 L6.80689655,23.1310345 C5.76722931,23.1310345 4.59798599,22.6015412 3.80453089,21.8087627 C3.01225189,21.0158071 2.48275862,19.8465638 2.48275862,18.8068966 L2.48275862,10.7259254 L1.1717483,12.0399983 L0,10.870981 L10.1320743,0.715237432 C10.5859293,0.260544994 11.2026026,0 11.8587569,0 C12.5142503,0 13.1306189,0.260416279 13.5842189,0.714017094 L23.7634879,10.8696171 L22.5944673,12.0413622 L21.8896552,11.3381889 L21.8896552,18.8068966 C21.8896552,20.0040206 21.5774452,21.0675335 20.8363489,21.8092622 C19.9811491,22.6637323 19.1136075,23.1310345 18.1034483,23.1310345 L16.3862069,23.1310345 L16.3862069,23.1931034 L7.44827586,23.1931034 L7.44827586,23.1310345 Z M7.44827586,21.4758621 L7.44827586,15.0821994 C7.44827586,12.6864689 9.45629693,10.7586207 11.9172414,10.7586207 C14.3781858,10.7586207 16.3862069,12.6864689 16.3862069,15.0821994 L16.3862069,21.4758621 L18.1034483,21.4758621 C18.602172,21.4758621 19.0927344,21.2116202 19.6659654,20.6388787 C20.0419854,20.2625376 20.2344828,19.6068139 20.2344828,18.8068966 L20.2344828,9.68686494 L12.4145168,1.88508147 C12.2677227,1.73828739 12.0710013,1.65517241 11.8587569,1.65517241 C11.6460976,1.65517241 11.449627,1.7381814 11.3036793,1.88439835 L4.13793103,9.06688638 L4.13793103,18.8068966 C4.13793103,19.3868961 4.48064465,20.1436869 4.97491442,20.6383792 C5.47010622,21.1331485 6.22689697,21.4758621 6.80689655,21.4758621 L7.44827586,21.4758621 Z M9.10344828,21.4758621 L14.7310345,21.4758621 L14.7310345,15.0821994 C14.7310345,13.6160235 13.4788073,12.4137931 11.9172414,12.4137931 C10.3556755,12.4137931 9.10344828,13.6160235 9.10344828,15.0821994 L9.10344828,21.4758621 Z" id="home_pre"></path>
                    </g>
                </g>
            </g>
        </g>
    </g>
</svg>