<?xml version="1.0" encoding="UTF-8"?>
<svg width="22px" height="22px" viewBox="0 0 22 22" version="1.1" xmlns="http://www.w3.org/2000/svg" xmlns:xlink="http://www.w3.org/1999/xlink">
    <!-- Generator: Sketch 52.1 (67048) - http://www.bohemiancoding.com/sketch -->
    <title>jubao_danxuan_pre</title>
    <desc>Created with Sketch.</desc>
    <g id="Page-1" stroke="none" stroke-width="1" fill="none" fill-rule="evenodd">
        <g id="举报投诉" transform="translate(-25.000000, -167.000000)" fill="#FD6258" fill-rule="nonzero">
            <g id="Group-3" transform="translate(25.000000, 125.000000)">
                <path d="M10.9987703,42 C17.0737585,42 21.9976054,46.92622 21.9976054,53.0012081 C21.9976054,59.0761962 17.0713207,64 10.9987919,64 C4.92626311,64 8.52651283e-14,59.0712776 8.52651283e-14,52.9987488 C8.52651283e-14,46.92622 4.92624153,42 10.9987703,42 Z M17.1866721,50.3159598 C17.6653148,49.8373387 17.6653148,49.0592182 17.1866721,48.5805971 C16.7080295,48.1019761 15.9299521,48.1019761 15.4513095,48.5805971 L9.19713509,54.8347715 L6.58795357,52.2256116 C6.10933253,51.746969 5.33125512,51.7469906 4.8526125,52.2256116 C4.37396988,52.7042326 4.37396988,53.4823316 4.8526125,53.9609527 L8.32335936,57.431678 C8.56389956,57.6722181 8.88052811,57.7924882 9.19715666,57.7900505 C9.51380679,57.7924882 9.83043535,57.6722181 10.0709755,57.431678 L17.1866721,50.3159598 Z" id="Combined-Shape-Copy-3"></path>
            </g>
        </g>
    </g>
</svg>