<?xml version="1.0" encoding="UTF-8"?>
<svg width="28px" height="23px" viewBox="0 0 28 23" version="1.1" xmlns="http://www.w3.org/2000/svg" xmlns:xlink="http://www.w3.org/1999/xlink">
    <!-- Generator: Sketch 52.1 (67048) - http://www.bohemiancoding.com/sketch -->
    <title>login_weixin</title>
    <desc>Created with Sketch.</desc>
    <g id="Page-1" stroke="none" stroke-width="1" fill="none" fill-rule="evenodd">
        <g id="注册-" transform="translate(-133.000000, -323.000000)" fill="#FFFFFF" fill-rule="nonzero">
            <g id="Group-6" transform="translate(133.000000, 322.000000)">
                <g id="Group-10" transform="translate(0.000000, 1.000000)">
                    <g id="微信-(5)">
                        <path d="M18.7398457,6.77135121 C19.0545328,6.77135121 19.3692199,6.80041686 19.6822764,6.82788046 C18.8401451,2.91983857 14.615671,0 9.80339004,0 C4.42212618,0.0188812261 0.0127019157,3.6558917 0.0127019157,8.27415377 C0.0127019157,10.9366355 1.48254815,13.1325507 3.92411954,14.8326907 L2.93860536,17.7492107 L6.36571954,16.0508158 C7.59351418,16.2909793 8.57911418,16.5311428 9.79128889,16.5311428 C10.105976,16.5311428 10.4052148,16.517411 10.704282,16.4898902 C10.5099295,15.8266874 10.4092564,15.1395683 10.4051862,14.4484863 C10.419061,10.2144572 14.088284,6.77306769 18.7416194,6.77306769 L18.7399029,6.77135121 L18.7398457,6.77135121 Z M13.4727561,4.1396516 C14.2162759,4.1396516 14.7004077,4.61997854 14.7004077,5.35763372 C14.7004077,6.07820996 14.2162759,6.57573027 13.4727561,6.57573027 C12.7446845,6.57573027 12.0028812,6.09368685 12.0028812,5.35760511 C12.0028812,4.61997854 12.7446845,4.1396516 13.4727561,4.1396516 Z M6.61990089,6.57573027 C5.8937175,6.57573027 5.1501977,6.09368685 5.1501977,5.35760511 C5.1501977,4.61997854 5.8937175,4.1396516 6.61990089,4.1396516 C7.34797241,4.1396516 7.84769553,4.61997854 7.84769553,5.35763372 C7.84769553,6.07820996 7.36353512,6.57573027 6.61990089,6.57573027 Z M27.679763,14.3472143 C27.679763,10.466636 23.7683453,7.29459004 19.3553451,7.29459004 C14.7021241,7.29459004 11.0327867,10.466636 11.0327867,14.3472143 C11.0327867,18.241553 14.7021241,21.401555 19.3553451,21.401555 C20.3272133,21.401555 21.3127847,21.1613916 22.296754,20.9195116 L24.9804342,22.377743 L24.2386309,19.9553103 C26.2099167,18.4697011 27.679763,16.5276526 27.679763,14.3472143 Z M16.6578473,13.1290891 C16.1737155,13.1290891 15.6722473,12.6487622 15.6722473,12.1512991 C15.6722473,11.6709722 16.1737155,11.1734805 16.6578473,11.1734805 C17.401367,11.1734805 17.8856419,11.6555239 17.8856419,12.1512991 C17.8856419,12.6487908 17.401367,13.1291178 16.6578473,13.1291178 L16.6578473,13.1290891 Z M22.0408562,13.1290891 C21.5549793,13.1290891 21.068988,12.6487622 21.068988,12.1512991 C21.068988,11.6709722 21.5532342,11.1734805 22.0408562,11.1734805 C22.7826595,11.1734805 23.2685078,11.6555239 23.2685078,12.1512991 C23.2685078,12.6487908 22.7826595,13.1291178 22.0408562,13.1291178 L22.0408562,13.1290891 Z" id="Shape"></path>
                    </g>
                </g>
            </g>
        </g>
    </g>
</svg>