<?xml version="1.0" encoding="UTF-8"?>
<svg width="168px" height="71px" viewBox="0 0 168 71" version="1.1" xmlns="http://www.w3.org/2000/svg" xmlns:xlink="http://www.w3.org/1999/xlink">
    <!-- Generator: Sketch 52.1 (67048) - http://www.bohemiancoding.com/sketch -->
    <title>login_logo</title>
    <desc>Created with Sketch.</desc>
    <g id="Page-1" stroke="none" stroke-width="1" fill="none" fill-rule="evenodd">
        <g id="注册-" transform="translate(-104.000000, -154.000000)">
            <g id="login_logo" transform="translate(104.000000, 154.000000)">
                <g id="Group-14" fill="#FD6258">
                    <path d="M57.4701636,39.0243902 L57.4701636,35.2891735 C58.1918686,35.2222612 58.8646084,35.1812505 59.529897,35.0938328 C60.2899227,34.9934644 61.0254657,34.7992029 61.685432,34.3761445 C62.1612464,34.0707223 62.4411998,33.6530601 62.4422643,33.0702757 C62.4422643,31.8565011 62.4422643,30.6423668 62.4422643,29.4278728 C62.4365378,29.3858731 62.4276412,29.3443808 62.4156527,29.3037613 C56.8804518,32.5209473 50.9737536,34.7161022 44.7860376,36.2896202 C44.5124709,35.0625351 44.2420976,33.853797 43.9653376,32.6202366 C44.4219917,32.5015212 44.8573565,32.3914397 45.2905924,32.2738036 C50.6274488,30.8449706 55.766105,28.7419905 60.585843,26.0142668 C61.153556,25.6940951 61.7148821,25.3681674 62.2698215,25.0364839 C62.3432693,24.9933147 62.4390709,24.8983424 62.436942,24.8303509 L62.4422643,21.8690394 C57.1359226,25.5805131 51.0291056,28.0399824 44.7817797,29.5681727 C44.6412708,28.9379021 44.5082131,28.3356915 44.3751554,27.7334809 C44.2420976,27.1312703 44.106911,26.5247428 43.966402,25.8869176 C49.6453054,24.5022649 57.59577,20.9126178 62.4422643,17.4849818 L62.4422643,15.6471787 C59.7527243,17.2437204 58.3824073,18.0571004 58.3313131,18.0873189 C56.6280698,18.9734643 54.8626573,19.7309822 53.049454,20.3537029 C50.8939825,21.1010043 48.6807289,21.6645216 46.4327599,22.0383817 C45.8494348,22.1398293 45.261852,22.2348016 44.6465931,22.3384077 C44.4592478,21.0832627 44.275096,19.8561776 44.0877507,18.5967156 C49.0822051,17.8574428 53.9435291,16.4663147 58.2205363,13.6829793 L48.2859877,13.6829793 L48.2859877,9.92725717 L75.7086508,9.92725717 L75.7086508,13.6624739 L75.3893123,13.6624739 C71.6104732,13.6624739 70.0098775,13.6829793 66.231748,13.6829793 C66.0499,13.6729143 66.2464008,22.5272731 66.231748,23.4996597 L66.231748,32.9418472 C66.231748,33.8699855 66.1125283,34.7689844 65.6196826,35.581645 C65.0363575,36.5432394 64.2220443,37.2458184 63.2480618,37.7649283 C61.9153557,38.4750619 60.4804613,38.7977518 58.9902149,38.9304972 C58.473951,38.9758249 57.9619449,38.9930926 57.4701636,39.0243902 Z M47.761773,9.92725717 L43.9941936,9.92725717 C43.9798852,9.89286429 43.9702018,9.8566962 43.9654009,9.81971457 C43.9654009,8.18936879 43.9771312,6.55794759 43.9654009,4.92652639 C43.9568697,3.96939727 44.8121198,3.06711488 45.8539894,3.04990806 C45.9510315,3.04990806 46.0491399,3.04990806 46.146182,3.04990806 L59.4772068,3.04990806 L58.8960206,1.07542597 L62.462051,0 L63.4122105,3.05205891 L63.7662542,3.05205891 C68.3784197,3.05205891 72.9905853,3.0595869 77.6027509,3.04560636 C78.716069,3.04560636 79.4038949,3.79840454 79.562788,4.53399591 C79.5960169,4.69131525 79.6128154,4.85171176 79.6129086,5.01256047 C79.6129086,6.59021037 79.6129086,8.16786027 79.6129086,9.74443475 C79.6129086,9.79713062 79.6065102,9.85197735 79.6022446,9.91757833 L75.8741219,9.91757833 L75.8741219,6.85691601 L47.761773,6.85691601 L47.761773,9.92725717 Z" id="Combined-Shape"></path>
                    <path d="M8.3299969,13.0244719 L8.32825012,13.0244689 C8.32808819,12.851937 8.32796932,12.6793947 8.32790792,12.506841 C8.32432171,12.3991292 8.31655187,12.2874729 8.30802498,12.1604901 C8.30459436,12.1487437 8.30088057,12.1370781 8.29688626,12.1255036 C6.39249025,14.0753534 4.24884314,15.6648348 1.95673219,17.1159606 L0,13.9101846 C0.505204325,13.5787745 1.00506822,13.2666698 1.48357042,12.9331146 C3.77247712,11.3189651 5.88942209,9.51176113 7.61224361,7.27983741 C8.06432582,6.69427395 8.23173457,6.46788486 8.293682,6.09704576 L8.293682,0.684638425 L12.052274,0.684638425 C12.052274,6.42804861 12.052274,24.4048366 12.052274,30.1482468 C12.052274,31.4946269 11.8258399,32.7883974 11.0835207,33.9372226 C10.2695325,35.1936478 9.17158863,36.2388357 7.87926492,36.9875145 C6.36044769,37.8829539 4.71025597,38.3832834 2.98957063,38.6817632 C2.94879834,38.683074 2.90799947,38.680196 2.86780891,38.6731739 C2.69691527,37.4427499 2.52602163,36.2155469 2.35299182,34.9690179 C2.67341739,34.9024505 2.98102594,34.8433987 3.28329407,34.7757576 C4.82240492,34.4300364 6.20877958,33.780467 7.366584,32.6821042 C8.04268197,32.0379032 8.32786073,31.2294308 8.32786073,30.3200337 C8.33960967,27.9944679 8.32786073,25.6689022 8.32786073,23.3411891 C8.32086896,23.2999609 8.31050908,23.2593821 8.29688626,23.2198646 C6.39249025,25.1717937 4.24884314,26.7629703 1.95673219,28.2156436 L0,25.0064488 C0.505204325,24.6746852 1.00506822,24.3622477 1.48357042,24.0283369 C3.77247712,22.4124659 5.88942209,20.6033347 7.61224361,18.3690307 C8.34174584,17.4231288 8.3299969,17.4134658 8.3299969,16.2216939 L8.3299969,13.0244719 Z M23.7693159,5.60449047 L23.7693159,0.855798032 L27.4649404,0.855798032 L27.4649404,5.60449047 L27.8041934,5.60449047 C29.9935629,5.60449047 32.1825779,5.60449047 34.3712384,5.60449047 C35.3166802,5.60449047 36.0568686,6.15121846 36.2918997,7.03199833 C36.3446242,7.25820879 36.3682159,7.49034715 36.36209,7.72265864 C36.36209,12.5390208 36.3514551,17.3543087 36.3737884,22.1695967 C36.3801693,23.424171 35.4708861,24.2233176 34.3414608,24.2104281 C32.1708796,24.1857233 29.9992349,24.2039834 27.8275902,24.2039834 L27.4894006,24.2039834 L27.4894006,33.548843 C29.3778882,33.5852022 31.244448,33.1353366 32.9131949,32.2416368 C32.5452277,30.9956555 32.1815144,29.7604154 31.8114202,28.5069153 L35.385807,27.472536 L38.3635764,37.6079492 L34.7902531,38.682071 L33.9873189,35.9355416 C33.2556384,36.1976273 32.5537356,36.4726025 31.8380075,36.6992422 C30.3629481,37.1707817 28.8410953,37.3093434 27.3011631,37.3082693 L13.82782,37.3082693 C13.7501853,37.3082693 13.6725506,37.3018245 13.5800271,37.297528 L13.5800271,33.5746219 L23.7576175,33.5746219 L23.7576175,24.2082799 L23.4492057,24.2082799 C21.277561,24.2082799 19.1062708,24.2082799 16.9353351,24.2082799 C16.119639,24.2082799 15.4751646,23.9010811 15.1210227,23.1427511 C14.9920673,22.8493308 14.9267955,22.5314291 14.9295947,22.2104134 C14.9154148,17.3697045 14.9122244,12.5279215 14.9200233,7.68506438 C14.9200233,6.66357456 15.4889899,5.88053977 16.3801938,5.66464129 C16.5794571,5.62261463 16.7828974,5.60423009 16.9863826,5.60986108 C19.1303765,5.60986108 21.2750795,5.60986108 23.4204915,5.60986108 L23.7693159,5.60449047 Z M23.7576175,20.4510019 L23.7576175,9.40580749 L18.6411716,9.40580749 L18.6411716,20.4542242 L23.7576175,20.4510019 Z M32.6069101,20.4510019 L32.6069101,9.40043688 L27.4862102,9.40043688 L27.4862102,20.4510019 L32.6069101,20.4510019 Z" id="Combined-Shape"></path>
                    <path d="M71.9398187,21.7742827 C73.371948,26.7497053 75.8770957,31.008512 79.9524093,34.2967671 L77.5917685,37.3127942 C70.8279774,31.6282878 67.6790185,24.248006 67.0513836,15.5776005 L70.8829763,15.5776005 C70.9088582,15.9671124 70.923956,16.3684603 70.966014,16.7612002 C71.008072,17.1539401 71.073855,17.5542119 71.1374812,17.9867638 L77.1453066,15.4043646 C77.6392186,16.5782802 78.1234249,17.7317519 78.6151802,18.9013636 L71.9398187,21.7742827 Z" id="Path-Copy-20"></path>
                </g>
                <g id="Group-13" transform="translate(85.663296, 0.951814)">
                    <path d="M33.3060971,14.2413433 L33.3060971,5.17613474 L15.2091595,5.17613474 L15.2091595,1.38277663 C15.3025533,1.38277663 15.3895062,1.37198472 15.4764591,1.37198472 C21.9982843,1.37198472 28.5197516,1.37198472 35.0408611,1.37198472 C36.0542381,1.37198472 36.8067564,1.92776834 37.0343368,2.83860596 C37.0772945,3.03157348 37.0967601,3.22907511 37.0923054,3.42676532 C37.0923054,7.6172659 37.0815704,11.8088457 37.1041138,15.9993462 C37.1094813,17.0860921 36.2721571,18.0012465 35.2158404,17.9882962 C35.0999032,17.9882962 34.9828925,17.9882962 34.8669553,17.9882962 L19.2744758,17.9882962 L19.2744758,33.0969771 C19.2744758,33.5826133 19.4161768,33.7736302 19.8874401,33.8588863 C20.2029842,33.9214418 20.5234237,33.9557506 20.8449954,33.9614095 C24.3520956,33.9614095 27.8591958,33.9959436 31.3652225,33.9365881 C33.2599369,33.9042123 34.8497794,33.0915811 36.0821489,31.6195639 C36.1454849,31.5450997 36.2141885,31.4749523 36.2968474,31.3864586 C37.3456496,32.0458446 38.3901579,32.7009138 39.4754589,33.3808045 C39.1791749,33.7542047 38.9172427,34.1362385 38.6027094,34.4729463 C37.1148487,36.0539618 35.3092342,37.0899856 33.1869394,37.5076327 C32.3953238,37.6515645 31.5921243,37.7212918 30.7876835,37.7159167 C27.5049433,37.7385797 24.2211295,37.7267086 20.9383893,37.7245502 C19.6330223,37.7245502 18.3909914,37.4795738 17.3121314,36.6896056 C16.2118015,35.8845287 15.5290603,34.8269211 15.5129579,33.4228929 C15.4925615,31.6702859 15.5022229,29.9165998 15.5022229,28.1629136 C15.5022229,24.2141519 15.5022229,20.2664694 15.5022229,16.3187869 C15.5022229,15.4727008 15.8242707,14.8219483 16.5757155,14.4496273 C16.8941134,14.3094168 17.2394879,14.2419656 17.5869455,14.2521352 C22.7132303,14.2406238 27.8391573,14.2381057 32.9647265,14.2445809 L33.3060971,14.2413433 Z M12.9875969,15.26333 L0,15.26333 L0,11.6864945 C0.0708594624,11.6769187 0.142295039,11.6703813 0.214007611,11.6669095 C2.65598732,11.6669095 10.546891,11.6555708 12.9875969,11.6669095 L12.9875969,15.26333 Z M12.9875969,21.094265 L0,21.094265 L0,17.5174295 C0.0708594624,17.5078538 0.142295039,17.5013163 0.214007611,17.4978445 C2.65598732,17.4978445 10.546891,17.4865059 12.9875969,17.4978445 L12.9875969,21.094265 Z M2.56334148,1.99472156 L5.76131236,0 L10.2533659,7.25096497 L7.01546091,9.26089683 L2.56334148,1.99472156 Z" id="Combined-Shape" fill="#FD6258"></path>
                    <path d="M60.9715297,33.4437799 L61.3563688,33.4437799 C65.056414,33.4437799 68.7561009,33.4437799 72.4554294,33.4437799 C73.6378959,33.4437799 74.799938,33.3516138 75.9050067,32.8907836 C76.7090839,32.5564138 77.4422131,32.1234478 77.9560486,31.3904063 C78.0635455,31.2371535 78.1495431,31.0688969 78.2656398,30.877063 L81.8560381,31.9798403 C81.5796544,32.8465036 81.1070253,33.6381775 80.4747022,34.2936364 C78.8095744,35.9965647 76.7596075,36.9000062 74.4021992,37.1111307 C73.5121245,37.1904363 72.6134499,37.2065118 71.7147754,37.2086552 C67.4062974,37.2183005 63.0978195,37.2086552 58.7882666,37.2150854 C57.9487154,37.2150854 57.3101835,36.8850024 56.939319,36.1273118 C56.8262893,35.8853842 56.7627051,35.6234422 56.7522743,35.3567609 C56.7243251,34.7683987 56.7382997,34.177893 56.7425995,33.5895308 C56.7425995,33.1833572 56.9113698,32.8393421 57.1242137,32.4942554 C60.256675,27.4779939 63.385553,22.4592318 66.5108478,17.437969 L73.4003276,6.38447502 C73.4422514,6.31802974 73.4798754,6.24944106 73.5432986,6.13905616 L57.7412463,6.13905616 L57.7412463,2.40097325 L58.0078387,2.40097325 C63.9560035,2.40097325 69.9041683,2.40097325 75.8523332,2.40097325 C76.84668,2.40097325 77.5851841,2.94861097 77.8044779,3.87027132 C77.8572956,4.15066792 77.8778529,4.43615672 77.8657511,4.7211996 C77.8657511,6.66097312 77.9614234,6.21514672 76.9939508,7.76589384 C71.7323332,16.2030156 66.4667741,24.6376367 61.1972733,33.0697572 C61.1327752,33.1747836 61.0704269,33.2808817 60.9715297,33.4437799 Z" id="Path-Copy-26" fill="#FD6258"></path>
                    <polygon id="Path-Copy-19" fill="#FD6258" points="43.7518172 7.54591593 47.3363727 7.54591593 47.3363727 22.1232535 43.7476947 22.1232535"></polygon>
                    <path d="M10.9875969,37.5580816 L2,37.5580816 C0.8954305,37.5580816 1.3527075e-16,36.6626511 0,35.5580816 L4.4408921e-16,26.368746 C3.08970599e-16,25.2654188 0.893492542,24.3705038 1.99681833,24.3687485 L10.9844152,24.3544507 C12.0889833,24.3526936 12.9858371,25.2466984 12.9875943,26.3512665 C12.987596,26.3523271 12.9875969,26.3533877 12.9875969,26.3544482 L12.9875969,35.5580816 C12.9875969,36.6626511 12.0921664,37.5580816 10.9875969,37.5580816 Z" id="Path-Copy-31" fill="#FFD05D"></path>
                    <polygon id="Path-Copy-32" fill="#FD6258" points="48.5347177 -1.98951966e-13 52.1983905 -1.98951966e-13 52.1983905 8.04268735 56.338828 8.04268735 56.338828 11.7809284 52.2068663 11.7809284 52.2068663 38.062286 48.5325988 38.062286"></polygon>
                </g>
                <path d="M9.376,64.464 C8.8959976,64.6346675 8.48533504,64.757333 8.144,64.832 C8.410668,65.6106706 8.55999984,66.4693286 8.592,67.408 C8.592,68.6346728 8.42666832,69.4986642 8.096,70 C7.73333152,70.5226693 6.89067328,70.784 5.568,70.784 L5.008,70.784 L4.72,70.032 L5.456,70.032 C6.43733824,70.0106666 7.05599872,69.8613347 7.312,69.584 C7.61066816,69.1999981 7.76,68.474672 7.76,67.408 C7.74933328,67.0346648 7.7173336,66.677335 7.664,66.336 C5.9039912,67.7760072 3.49334864,68.9653286 0.432,69.904 L0,69.152 C3.2533496,68.1919952 5.74399136,66.9706741 7.472,65.488 C7.35466608,65.029331 7.17333456,64.5600024 6.928,64.08 C5.39199232,65.3173395 3.29068,66.3199962 0.624,67.088 L0.208,66.336 C2.97068048,65.5786629 5.08265936,64.6133392 6.544,63.44 C6.277332,63.0453314 6.01600128,62.714668 5.76,62.448 L5.248,62.704 C4.06399408,63.2480027 2.62400848,63.7546643 0.928,64.224 L0.464,63.504 C2.02134112,63.1413315 3.4133272,62.6986693 4.64,62.176 C5.34400352,61.8666651 6.0159968,61.5200019 6.656,61.136 L1.968,61.136 L1.968,60.32 L11.616,60.32 L11.616,61.136 L7.904,61.136 C7.39199744,61.4880018 6.8960024,61.8079986 6.416,62.096 C7.02400304,62.7146698 7.50399824,63.3973296 7.856,64.144 C9.41334112,63.7279979 10.8853264,63.0613379 12.272,62.144 L12.864,62.72 C11.9999957,63.3066696 11.072005,63.8026646 10.08,64.208 C10.8480038,66.3200106 12.0959914,67.9999938 13.824,69.248 L13.216,69.968 C11.4026576,68.5279928 10.1226704,66.6933445 9.376,64.464 Z M6.848,56.112 C7.0613344,56.6133358 7.25333248,57.1519971 7.424,57.728 L13.456,57.728 L13.456,60.352 L12.592,60.352 L12.592,58.544 L0.96,58.544 L0.96,60.352 L0.096,60.352 L0.096,57.728 L6.576,57.728 C6.4159992,57.2799978 6.21333456,56.789336 5.968,56.256 L6.848,56.112 Z M32.9279996,63.408 L35.3919996,63.408 L35.3919996,60.848 C34.4959951,60.922667 33.67467,60.96 32.9279996,60.96 L32.6719996,60.192 C34.9440109,60.192 36.7999924,59.9360026 38.2399996,59.424 L38.6719996,60.128 C37.9466626,60.4053347 37.1360041,60.6079994 36.2399996,60.736 L36.2399996,63.408 L38.7039996,63.408 L38.7039996,64.192 L36.2399996,64.192 L36.2399996,67.12 L39.0559996,67.12 L39.0559996,67.92 L32.4959996,67.92 L32.4959996,67.12 L35.3919996,67.12 L35.3919996,64.192 L32.9279996,64.192 L32.9279996,63.408 Z M28.0959996,59.856 L31.7439996,59.856 L31.7439996,60.544 C30.9866625,61.7386726 30.2400033,62.7519958 29.5039996,63.584 L31.7279996,63.584 L31.7279996,64.064 C31.6639993,65.7600085 31.2640033,67.1839942 30.5279996,68.336 C30.8586679,68.6453349 31.2106644,68.8799992 31.5839996,69.04 C32.7040052,69.5200024 34.4373212,69.76 36.7839996,69.76 C37.3493357,69.76 38.2506601,69.7386669 39.4879996,69.696 L39.3279996,70.56 L37.1839996,70.56 C34.3999857,70.56 32.3840058,70.2720029 31.1359996,69.696 C30.7306642,69.503999 30.3733345,69.2586682 30.0639996,68.96 C29.4453298,69.685337 28.6826708,70.277331 27.7759996,70.736 L27.3439996,69.984 C28.1973372,69.5573312 28.9066634,69.0133366 29.4719996,68.352 C28.8746633,67.6479965 28.3840015,66.7466722 27.9999996,65.648 L28.7039996,65.376 C29.0560013,66.3466715 29.4666639,67.1199971 29.9359996,67.696 C30.5120025,66.7573286 30.8479991,65.6266733 30.9439996,64.304 L28.3839996,64.304 L28.3839996,63.696 C29.3013375,62.7253285 30.0959962,61.706672 30.7679996,60.64 L28.0959996,60.64 L28.0959996,59.856 Z M32.5919996,56.032 C32.8586676,56.5013357 33.114665,57.039997 33.3599996,57.648 L39.2799996,57.648 L39.2799996,58.48 L27.1359996,58.48 L27.1359996,62.736 C27.0719993,66.0853501 26.5493378,68.7413235 25.5679996,70.704 L24.9279996,70.128 C25.7920039,68.3466578 26.2399994,65.8826824 26.2719996,62.736 L26.2719996,57.648 L32.4799996,57.648 C32.234665,57.0933306 31.9733343,56.6080021 31.6959996,56.192 L32.5919996,56.032 Z M51.2479992,57.92 L55.0559992,57.92 C54.831998,57.3439971 54.5600008,56.8053358 54.2399992,56.304 L55.1359992,56.144 C55.4240006,56.6666693 55.6959979,57.2586634 55.9519992,57.92 L59.4559992,57.92 C59.7440006,57.3759973 59.9733316,56.7786699 60.1439992,56.128 L61.0399992,56.256 C60.8906651,56.8213362 60.661334,57.3759973 60.3519992,57.92 L64.0799992,57.92 L64.0799992,58.72 L58.0959992,58.72 L58.0959992,60.496 L63.2639992,60.496 L63.2639992,61.264 L58.0959992,61.264 L58.0959992,63.056 L64.6239992,63.056 L64.6239992,63.888 L50.7039992,63.888 L50.7039992,63.056 L57.2319992,63.056 L57.2319992,61.264 L52.1279992,61.264 L52.1279992,60.496 L57.2319992,60.496 L57.2319992,58.72 L51.2479992,58.72 L51.2479992,57.92 Z M58.2079992,64.464 C58.1546656,64.9120022 58.0533332,65.3706643 57.9039992,65.84 L64.2559992,65.84 L64.2559992,66.672 L58.4479992,66.672 C59.5680048,68.3146749 61.7599828,69.4346637 65.0239992,70.032 L64.5759992,70.832 C60.9813145,70.0959963 58.6453379,68.7146768 57.5679992,66.688 C57.2053307,67.4560038 56.7253355,68.1119973 56.1279992,68.656 C55.0933273,69.6053381 53.2853454,70.3519973 50.7039992,70.896 L50.3519992,70.048 C52.6986776,69.5999978 54.3893273,68.9440043 55.4239992,68.08 C55.8826681,67.6853314 56.2719976,67.2160027 56.5919992,66.672 L51.0879992,66.672 L51.0879992,65.84 L56.9759992,65.84 C57.1466667,65.3386642 57.2693321,64.8533357 57.3439992,64.384 L58.2079992,64.464 Z M79.4879987,56.096 C79.3493314,56.9386709 79.152,58.02666 78.8959987,59.36 L81.7439987,59.36 L81.7439987,59.888 C81.5626645,62.480013 81.0133367,64.7039907 80.0959987,66.56 C81.152004,67.3920042 81.9466627,68.074664 82.4799987,68.608 L81.8879987,69.28 C81.2799957,68.671997 80.5440031,68.0160035 79.6799987,67.312 C78.8479946,68.6986736 77.7920051,69.8826618 76.5119987,70.864 L75.9359987,70.128 C77.2053384,69.1999954 78.2293282,68.0800066 79.0079987,66.768 C78.3146619,66.2133306 77.4826703,65.5840035 76.5119987,64.88 C77.0240013,63.4293261 77.4719968,61.8720083 77.8559987,60.208 L76.0319987,60.208 L76.0319987,59.36 L78.0319987,59.36 C78.2773333,58.1759941 78.4799979,57.0560053 78.6399987,56 L79.4879987,56.096 Z M79.4079987,66.032 C80.2186695,64.3679917 80.7146645,62.4266778 80.8959987,60.208 L78.7039987,60.208 C78.2986634,61.9786755 77.8826675,63.4453275 77.4559987,64.608 C78.1600023,65.0986691 78.8106624,65.573331 79.4079987,66.032 Z M82.3999987,63.024 L86.1599987,63.024 L86.1599987,60.88 C87.0560032,60.0906627 87.9039947,59.1306723 88.7039987,58 L82.8959987,58 L82.8959987,57.136 L89.7119987,57.136 L89.7119987,58 C88.9333282,59.1200056 88.0373371,60.175995 87.0239987,61.168 L87.0239987,63.024 L90.4159987,63.024 L90.4159987,63.888 L87.0239987,63.888 L87.0239987,69.28 C87.0239987,70.1866712 86.629336,70.64 85.8399987,70.64 L83.5999987,70.64 L83.3759987,69.808 C84.2293363,69.8293334 84.9333293,69.84 85.4879987,69.84 C85.936001,69.84 86.1599987,69.5626694 86.1599987,69.008 L86.1599987,63.888 L82.3999987,63.888 L82.3999987,63.024 Z M101.999998,56.928 L105.807998,56.928 L105.807998,57.6 C105.498663,59.0933408 105.136,60.5333264 104.719998,61.92 C105.434669,63.2853402 105.807998,64.4746616 105.839998,65.488 C105.839998,66.1173365 105.717333,66.565332 105.471998,66.832 C105.119997,67.1840018 104.506669,67.36 103.631998,67.36 L103.375998,66.544 C103.664,66.5760002 103.909331,66.592 104.111998,66.592 C104.453333,66.5599998 104.698664,66.4693341 104.847998,66.32 C104.986666,66.127999 105.055998,65.8506685 105.055998,65.488 C105.055998,64.4639949 104.677335,63.3173397 103.919998,62.048 C104.368001,60.5546592 104.730664,59.1093403 105.007998,57.712 L102.815998,57.712 L102.815998,70.704 L101.999998,70.704 L101.999998,56.928 Z M106.911998,57.168 C107.616002,58.1706717 108.13333,59.0133299 108.463998,59.696 L107.823998,60.144 C107.418663,59.3333293 106.901335,58.4746712 106.271998,57.568 L106.911998,57.168 Z M112.687998,69.728 C113.445335,69.728 114.485325,69.7173334 115.807998,69.696 L115.583998,70.544 L112.623998,70.544 C112.32533,70.544 111.877335,70.5333334 111.279998,70.512 C110.575995,70.4906666 109.984001,70.3893342 109.503998,70.208 C108.981329,69.9946656 108.549333,69.6693355 108.207998,69.232 C108.026664,68.9866654 107.855999,68.864 107.695998,68.864 C107.343997,68.864 106.704003,69.4879938 105.775998,70.736 L105.263998,70.096 C106.096002,68.9759944 106.789329,68.3146677 107.343998,68.112 L107.343998,62.464 L105.871998,62.464 L105.871998,61.664 L108.159998,61.664 L108.159998,68.192 C108.245332,68.2560003 108.325331,68.3359995 108.399998,68.432 C108.698666,68.8480021 109.077329,69.1679989 109.535998,69.392 C109.930667,69.5413341 110.426662,69.6426664 111.023998,69.696 C111.749335,69.7173334 112.303996,69.728 112.687998,69.728 Z M108.943998,57.84 L111.231998,57.84 C111.306665,57.4879982 111.407998,56.949337 111.535998,56.224 L112.383998,56.336 C112.298665,56.7840022 112.191999,57.2853306 112.063998,57.84 L115.743998,57.84 L115.743998,58.64 L111.855998,58.64 C111.674664,59.2586698 111.456,59.871997 111.199998,60.48 L115.071998,60.48 L115.071998,67.504 C115.071998,68.1440032 114.741335,68.4746666 114.079998,68.496 L112.863998,68.496 L112.655998,67.744 C113.210668,67.7653334 113.60533,67.776 113.839998,67.776 C114.149333,67.776 114.303998,67.605335 114.303998,67.264 L114.303998,65.792 L111.103998,65.792 L111.103998,68.544 L110.335998,68.544 L110.335998,62.176 C109.94133,62.8160032 109.504001,63.365331 109.023998,63.824 L108.543998,63.232 C109.653337,62.0373274 110.479996,60.506676 111.023998,58.64 L108.943998,58.64 L108.943998,57.84 Z M111.103998,63.536 L111.103998,65.056 L114.303998,65.056 L114.303998,63.536 L111.103998,63.536 Z M114.303998,62.816 L114.303998,61.184 L111.103998,61.184 L111.103998,62.816 L114.303998,62.816 Z M131.807998,57.472 L131.807998,69.136 L130.975998,69.136 L130.975998,68.016 L128.271998,68.016 L128.271998,69.504 L127.407998,69.504 L127.407998,57.472 L131.807998,57.472 Z M128.271998,67.2 L130.975998,67.2 L130.975998,63.04 L128.271998,63.04 L128.271998,67.2 Z M128.271998,62.224 L130.975998,62.224 L130.975998,58.272 L128.271998,58.272 L128.271998,62.224 Z M134.047998,62.208 C135.029336,63.6480072 135.807995,64.9706606 136.383998,66.176 L135.663998,66.672 C135.087995,65.4666606 134.314669,64.1280074 133.343998,62.656 L134.047998,62.208 Z M135.055998,70.64 L134.863998,69.808 C136.101337,69.8506669 136.986662,69.872 137.519998,69.872 C138.074667,69.872 138.351998,69.5840029 138.351998,69.008 L138.351998,60.096 L132.639998,60.096 L132.639998,59.248 L138.351998,59.248 L138.351998,56.352 L139.231998,56.352 L139.231998,59.248 L141.311998,59.248 L141.311998,60.096 L139.231998,60.096 L139.231998,69.232 C139.231998,70.1706714 138.762669,70.64 137.823998,70.64 L135.055998,70.64 Z M166.783997,66.384 C166.67733,68.0266749 166.469332,69.0879976 166.159997,69.568 C165.871996,70.0480024 165.296002,70.288 164.431997,70.288 L160.303997,70.288 C159.354659,70.288 158.879997,69.792005 158.879997,68.8 L158.879997,61.984 L164.607997,61.984 L164.607997,57.936 L158.031997,57.936 L158.031997,57.104 L165.439997,57.104 L165.439997,62.816 L159.727997,62.816 L159.727997,68.528 C159.727997,69.1466698 160.021328,69.4613333 160.607997,69.472 L164.287997,69.472 C164.938667,69.472 165.359997,69.2373357 165.551997,68.768 C165.743998,68.3519979 165.871997,67.4666734 165.935997,66.112 L166.783997,66.384 Z M153.887997,56.384 C154.976003,57.2160042 155.909327,58.0639957 156.687997,58.928 L156.095997,59.536 C155.359994,58.7039958 154.416003,57.850671 153.263997,56.976 L153.887997,56.384 Z M152.175997,61.2 L155.471997,61.2 L155.471997,68.624 C156.112001,68.1439976 156.837327,67.5360037 157.647997,66.8 L157.871997,67.728 C156.922659,68.602671 155.861337,69.4079963 154.687997,70.144 L154.351997,69.376 C154.533332,69.1733323 154.623997,68.9813342 154.623997,68.8 L154.623997,62.048 L152.175997,62.048 L152.175997,61.2 Z" id="家庭美好随时记" fill="#666666"></path>
            </g>
        </g>
    </g>
</svg>