<?xml version="1.0" encoding="UTF-8"?>
<svg width="161px" height="37px" viewBox="0 0 161 37" version="1.1" xmlns="http://www.w3.org/2000/svg" xmlns:xlink="http://www.w3.org/1999/xlink">
    <!-- Generator: Sketch 52.1 (67048) - http://www.bohemiancoding.com/sketch -->
    <title>login_logo copy</title>
    <desc>Created with Sketch.</desc>
    <g id="Page-1" stroke="none" stroke-width="1" fill="none" fill-rule="evenodd">
        <g id="注册-" transform="translate(-107.000000, -154.000000)" fill="#FD6258">
            <g id="Group-2" transform="translate(107.000000, 154.000000)">
                <path d="M0.4375,1.28125 L6.84375,1.28125 L8.875,4.09375 L11.0625,1.28125 L17.625,1.28125 L16.0625,3.3125 L22.625,3.3125 L22.625,1.125 L27.78125,1.125 L27.78125,3.3125 L35.28125,3.3125 L35.28125,24.5625 C35.1770828,26.5416766 34.3958406,27.53125 32.9375,27.53125 L27.78125,27.53125 L27.78125,31.4375 L30.28125,31.4375 C30.5937516,31.5416672 30.75,31.3333359 30.75,30.8125 L30.75,28.78125 L35.75,28.78125 L35.75,33.78125 C35.6458328,35.447925 34.8125078,36.3333328 33.25,36.4375 L14.96875,36.4375 L14.96875,31.4375 L22.625,31.4375 L22.625,27.53125 L15.125,27.53125 L15.125,4.71875 L12,9.09375 C12,9.30208437 12.0520828,9.51041563 12.15625,9.71875 C12.5729187,10.5520875 12.78125,11.1770813 12.78125,11.59375 L12.78125,33.46875 C12.78125,35.7604281 11.5833453,36.90625 9.1875,36.90625 L1.6875,36.90625 L1.6875,32.375 L6.6875,32.375 C7.00000156,32.4791672 7.15625,32.2708359 7.15625,31.75 L7.15625,24.09375 C6.42707969,24.7187531 5.75000313,25.03125 5.125,25.03125 L0.59375,25.03125 L0.59375,20.1875 L4.03125,20.1875 C4.76042031,20.1875 5.74999375,19.5104234 7,18.15625 C7,18.0520828 7.05208281,17.9479172 7.15625,17.84375 L7.15625,13.625 C6.63541406,14.0416687 6.11458594,14.25 5.59375,14.25 L0.59375,14.25 L0.59375,9.40625 L3.875,9.40625 C4.29166875,9.40625 4.65624844,9.14583594 4.96875,8.625 L0.4375,1.28125 Z M29.96875,22.21875 C30.1770844,22.3229172 30.28125,22.1145859 30.28125,21.59375 L30.28125,8 L27.78125,8 L27.78125,22.21875 L29.96875,22.21875 Z M20.125,22.21875 L22.625,22.21875 L22.625,8 L20.125,8 L20.125,22.21875 Z M56.350962,2.21875 L56.350962,0.8125 L62.288462,0.8125 L62.288462,2.21875 L77.288462,2.21875 L76.194712,8.15625 L70.725962,8.15625 L70.725962,6.75 L46.975962,6.75 L46.975962,8 L41.194712,8 L41.194712,2.21875 L56.350962,2.21875 Z M76.819712,9.09375 L76.819712,13.46875 L55.413462,13.46875 L54.475962,15.1875 L65.100962,15.1875 L65.100962,33 C65.100962,35.3958453 64.0072229,36.5416672 61.819712,36.4375 L55.100962,36.4375 L55.100962,32.6875 L58.225962,32.6875 C59.0592995,32.7916672 59.475962,32.4270875 59.475962,31.59375 L59.475962,19.40625 L52.288462,19.40625 C51.5592917,20.1354203 50.4655526,20.4479172 49.007212,20.34375 L41.194712,20.34375 L41.194712,15.96875 L46.194712,15.96875 C46.9238823,16.0729172 47.4967932,15.8125031 47.913462,15.1875 L49.007212,13.46875 L41.507212,13.46875 L41.507212,9.09375 L76.819712,9.09375 Z M66.194712,17.375 L68.382212,17.375 C69.1113823,17.4791672 69.6842932,17.2187531 70.100962,16.59375 L71.350962,14.71875 L76.507212,14.71875 L73.069712,20.65625 C72.7572104,21.4895875 71.8197198,21.8541672 70.257212,21.75 L66.194712,21.75 L66.194712,17.375 Z M41.194712,24.09375 L46.663462,24.09375 C47.1842979,24.1979172 47.8613745,23.8333375 48.694712,23 L50.725962,21.28125 L56.663462,21.28125 L50.569712,27.84375 C50.1530432,28.5729203 49.1634698,28.8854172 47.600962,28.78125 L41.194712,28.78125 L41.194712,24.09375 Z M76.975962,36.4375 L71.350962,36.4375 C69.0592839,36.6458344 67.913462,35.5520953 67.913462,33.15625 L66.819712,23.625 L71.975962,23.625 L73.069712,31.28125 C73.069712,32.1145875 73.4342917,32.4791672 74.163462,32.375 L76.975962,32.375 L76.975962,36.4375 Z M41.194712,32.6875 L46.194712,32.6875 C47.1322167,32.7916672 47.9134589,32.4791703 48.538462,31.75 L51.507212,28.78125 L57.288462,28.78125 L51.819712,35.1875 C51.0905417,36.0208375 49.9447198,36.4375 48.382212,36.4375 L41.194712,36.4375 L41.194712,32.6875 Z M82.264424,6.125 L82.264424,0.96875 L92.733174,0.96875 L92.733174,6.125 L82.264424,6.125 Z M96.014424,13.9375 L110.858174,13.9375 C111.483177,14.0416672 111.795674,13.6250047 111.795674,12.6875 L111.795674,6.125 L95.858174,6.125 L95.858174,0.8125 L117.733174,0.8125 L117.733174,14.875 C117.837341,17.8958484 116.691519,19.2500016 114.295674,18.9375 L102.108174,18.9375 L102.108174,30.8125 C102.004007,31.6458375 102.316504,32.0104172 103.045674,31.90625 L117.733174,31.90625 L117.733174,36.59375 L99.139424,36.59375 C96.7435787,36.8020844 95.7019224,35.5520969 96.014424,32.84375 L96.014424,13.9375 Z M84.764424,16.4375 L82.264424,16.4375 L82.264424,11.59375 L90.701924,11.59375 L90.701924,30.96875 C90.701924,31.8020875 91.0144209,32.1666672 91.639424,32.0625 L93.826924,32.0625 L93.826924,36.75 L87.733174,36.75 C85.5456631,36.9583344 84.5560896,35.7083469 84.764424,33 L84.764424,16.4375 Z M132.865386,5.8125 L132.865386,0.8125 L138.177886,0.8125 L138.177886,5.8125 L139.896636,5.8125 L139.896636,10.65625 L138.021636,10.65625 L138.021636,36.125 L132.865386,36.125 L132.865386,10.65625 L130.365386,10.65625 L130.365386,34.875 L125.209136,34.875 L125.209136,2.21875 L130.365386,2.21875 L130.365386,5.8125 L132.865386,5.8125 Z M154.427886,6.59375 L141.459136,6.59375 L141.459136,1.28125 L160.521636,1.28125 L160.521636,5.65625 L147.865386,30.65625 C147.657052,31.0729187 147.604969,31.3333328 147.709136,31.4375 C147.813303,31.6458344 148.1258,31.6979172 148.646636,31.59375 L160.365386,31.59375 L160.365386,36.125 L143.646636,36.125 C141.979961,36.125 141.198719,35.3437578 141.302886,33.78125 L141.302886,33 C141.198719,32.4791641 141.459133,31.6979219 142.084136,30.65625 C142.188303,30.3437484 142.344552,30.0312516 142.552886,29.71875 L154.427886,6.59375 Z" id="独家记忆"></path>
            </g>
        </g>
    </g>
</svg>