<?xml version="1.0" encoding="UTF-8"?>
<svg width="18px" height="18px" viewBox="0 0 18 18" version="1.1" xmlns="http://www.w3.org/2000/svg" xmlns:xlink="http://www.w3.org/1999/xlink">
    <!-- Generator: Sketch 52.1 (67048) - http://www.bohemiancoding.com/sketch -->
    <title>my_bianji</title>
    <desc>Created with Sketch.</desc>
    <g id="Page-1" stroke="none" stroke-width="1" fill="none" fill-rule="evenodd">
        <g id="我的" transform="translate(-111.000000, -333.000000)" fill="#666666" fill-rule="nonzero">
            <g id="Group-7" transform="translate(111.000000, 332.000000)">
                <g id="Group" transform="translate(0.000000, 1.000000)">
                    <path d="M15.4078947,6.47368421 L16.9078947,6.47368421 L16.9078947,14.0096842 C16.9078947,15.8428451 15.4217925,17.3289474 13.5886316,17.3289474 L3.56926316,17.3289474 C1.73610223,17.3289474 0.25,15.8428451 0.25,14.0096842 L0.25,3.94736842 C0.25,2.13778644 1.71673381,0.671052632 3.52631579,0.671052632 L13.2105263,0.671052632 L13.2105263,2.17105263 L3.52631579,2.17105263 C2.54516093,2.17105263 1.75,2.96621356 1.75,3.94736842 L1.75,14.0096842 C1.75,15.014418 2.56452935,15.8289474 3.56926316,15.8289474 L13.5886316,15.8289474 C14.5933654,15.8289474 15.4078947,15.014418 15.4078947,14.0096842 L15.4078947,6.47368421 Z M16.4696699,0.469669914 L17.5303301,1.53033009 L7.84611956,11.2145406 L6.78545939,10.1538804 L16.4696699,0.469669914 Z" id="Combined-Shape"></path>
                </g>
            </g>
        </g>
    </g>
</svg>