<?xml version="1.0" encoding="UTF-8"?>
<svg width="20px" height="19px" viewBox="0 0 20 19" version="1.1" xmlns="http://www.w3.org/2000/svg" xmlns:xlink="http://www.w3.org/1999/xlink">
    <!-- Generator: Sketch 52.1 (67048) - http://www.bohemiancoding.com/sketch -->
    <title>my_jiating</title>
    <desc>Created with Sketch.</desc>
    <g id="Page-1" stroke="none" stroke-width="1" fill="none" fill-rule="evenodd">
        <g id="我的" transform="translate(-303.000000, -98.000000)" fill="#FFFFFF" fill-rule="nonzero">
            <g id="Group" transform="translate(302.687500, 98.000000)">
                <path d="M17.609127,8.8151049 L17.609127,15.3219462 C17.609127,16.2738398 17.3591488,17.1179615 16.7680626,17.7044079 C16.0820208,18.3839038 15.3886504,18.7541408 14.5833333,18.7541408 L5.41666667,18.7541408 C4.5859492,18.7541408 3.64875842,18.3334233 3.01330619,17.7040339 C2.37877307,17.0744813 1.95436508,16.14544 1.95436508,15.3219462 L1.95436508,9.24367314 L1.27579037,9.91791861 L0.390876294,9.04274391 L8.61261145,0.873462547 C8.97223968,0.516303769 9.46082562,0.311670807 9.98079365,0.311670807 C10.5002323,0.311670807 10.9885866,0.516206774 11.348054,0.872548951 L19.6080937,9.04172286 L18.7252396,9.91893966 L17.609127,8.8151049 Z M16.9691769,8.18219462 L10.4646852,1.74925612 C10.3369203,1.62260213 10.165487,1.55080124 9.98079365,1.55080124 C9.79575674,1.55080124 9.62451138,1.62252341 9.49741736,1.7487447 L3.0226592,8.18219462 L3.20436508,8.18219462 L3.20436508,15.3219462 C3.20436508,15.8013138 3.48771552,16.4215761 3.89718958,16.8278364 C4.30739089,17.2341238 4.93309405,17.5150104 5.41666667,17.5150104 L14.5833333,17.5150104 C15.00241,17.5150104 15.4110826,17.2967926 15.8841792,16.8282104 C16.1995568,16.5153083 16.359127,15.9764745 16.359127,15.3219462 L16.359127,8.18219462 L16.9691769,8.18219462 Z M12.004784,7.31677019 L12.004784,6.69720497 C12.151276,6.69720497 12.3037494,6.70512196 12.4624135,6.72099214 C13.7680839,6.85075499 14.8563427,8.0297939 14.9900794,9.74247837 L14.9882732,10.296863 C14.8627403,11.9301775 13.7739132,13.1973859 10.7591865,15.3829701 C10.3056713,15.7118265 9.69408616,15.7118265 9.24064392,15.3830229 C6.22608603,13.1977459 5.13727451,11.9303703 5.00992063,10.2497951 L5.01183082,9.69407589 C5.14338225,8.02992512 6.23156141,6.85077884 7.53681184,6.72102099 C7.69609534,6.70511646 7.84853291,6.69720497 7.99497354,6.69720497 C8.85099831,6.69720497 9.42199922,6.9350173 9.99998171,7.48753568 C10.5779438,6.93495781 11.1487543,6.69720497 12.004784,6.69720497 L12.004784,7.31677019 Z M12.004784,7.31677019 L12.004784,7.9363354 C11.3507743,7.9363354 11.0384161,8.12850436 10.4835933,8.80027409 L10,9.38580036 L9.51640672,8.80027409 C8.9616889,8.12863148 8.64906289,7.9363354 7.99497354,7.9363354 C7.89128727,7.9363354 7.78058176,7.94208101 7.66181373,7.95393999 C6.97649848,8.02206873 6.34362436,8.70784841 6.25992063,9.74247837 L6.25811448,10.2027272 C6.34686611,11.3574788 7.24126807,12.3985618 9.9785648,14.38285 C9.99259814,14.393026 10.0071594,14.393026 10.0212453,14.3828119 C12.7586694,12.3982636 13.6531524,11.3572385 13.7400794,10.2497951 L13.7419972,9.79097764 C13.6562027,8.70783947 13.0232351,8.02207114 12.337322,7.95390217 C12.2191429,7.94208156 12.1084778,7.9363354 12.004784,7.9363354 L12.004784,7.31677019 Z" id="my_jiating"></path>
            </g>
        </g>
    </g>
</svg>