<?xml version="1.0" encoding="UTF-8"?>
<svg width="25px" height="24px" viewBox="0 0 25 24" version="1.1" xmlns="http://www.w3.org/2000/svg" xmlns:xlink="http://www.w3.org/1999/xlink">
    <!-- Generator: Sketch 52.1 (67048) - http://www.bohemiancoding.com/sketch -->
    <title>my_nor</title>
    <desc>Created with Sketch.</desc>
    <g id="Page-1" stroke="none" stroke-width="1" fill="none" fill-rule="evenodd">
        <g id="添加" transform="translate(-301.000000, -624.000000)" fill="#8E8E93" fill-rule="nonzero">
            <g id="Bars/Tab-Bar/3-Items" transform="translate(0.000000, 593.000000)">
                <g id="Item-3" transform="translate(289.000000, 31.000000)">
                    <g id="Group-Copy" transform="translate(12.000000, 0.000000)">
                        <path d="M16.2418128,14.5010304 C15.1503118,15.0926181 13.9000773,15.4285714 12.5714286,15.4285714 C11.243041,15.4285714 9.99303694,15.0927501 8.90168812,14.5013793 C5.9824017,15.5104997 3.65962604,17.8045165 2.61837564,20.7135875 C2.44110516,21.2085354 2.78814468,21.7148571 3.29314286,21.7148571 L3.29314286,23.4291429 C1.59083699,23.4291429 0.430946675,21.7368926 1.0044232,20.1357182 C2.08984662,17.1032354 4.3648998,14.6450967 7.2648865,13.3133157 C5.78201757,11.9074329 4.85714286,9.91879609 4.85714286,7.71428571 C4.85714286,3.45404164 8.3111845,0 12.5714286,0 C16.8316726,0 20.2857143,3.45404164 20.2857143,7.71428571 C20.2857143,9.9185948 19.3610085,11.9070698 17.8783768,13.3129306 C20.778169,14.6447525 23.0530541,17.1027856 24.1383756,20.1349839 C24.7119105,21.7363212 23.5520202,23.4285714 21.8497143,23.4285714 L21.8497143,21.7142857 C22.3547125,21.7142857 22.701752,21.2079639 22.5244232,20.7128533 C21.4833066,17.8041561 19.1607969,15.5102655 16.2418128,14.5010304 Z M18.5714286,7.71428571 C18.5714286,4.4008155 15.8848988,1.71428571 12.5714286,1.71428571 C9.25795836,1.71428571 6.57142857,4.4008155 6.57142857,7.71428571 C6.57142857,11.0277559 9.25795836,13.7142857 12.5714286,13.7142857 C15.8848988,13.7142857 18.5714286,11.0277559 18.5714286,7.71428571 Z" id="my_nor"></path>
                    </g>
                </g>
            </g>
        </g>
    </g>
</svg>