<?xml version="1.0" encoding="UTF-8"?>
<svg width="23px" height="22px" viewBox="0 0 23 22" version="1.1" xmlns="http://www.w3.org/2000/svg" xmlns:xlink="http://www.w3.org/1999/xlink">
    <!-- Generator: Sketch 52.1 (67048) - http://www.bohemiancoding.com/sketch -->
    <title>search</title>
    <desc>Created with Sketch.</desc>
    <g id="Page-1" stroke="none" stroke-width="1" fill="none" fill-rule="evenodd">
        <g id="home" transform="translate(-14.687500, -31.000000)" fill="#666666" fill-rule="nonzero">
            <g id="Group-6" transform="translate(15.000000, 31.000000)">
                <path d="M16.9968968,9.87922991 C16.9968968,5.94802908 13.8104307,2.76156304 9.87922991,2.76156304 C5.94802908,2.76156304 2.76156304,5.94802908 2.76156304,9.87922991 C2.76156304,13.8104307 5.94802908,16.9968968 9.87922991,16.9968968 C11.6003545,16.9968968 13.2245015,16.3851352 14.5048828,15.2892459 C16.0760949,13.944432 16.9968968,11.9876977 16.9968968,9.87922991 Z M20.1192185,19.7543868 L18.8736053,21 L15.0045429,17.1309376 C13.5226567,18.1803889 11.7447494,18.7584598 9.87922991,18.7584598 C4.97514468,18.7584598 1,14.7833151 1,9.87922991 C1,4.97514468 4.97514468,1 9.87922991,1 C14.7833151,1 18.7584598,4.97514468 18.7584598,9.87922991 C18.7584598,12.1834489 17.8748719,14.3454924 16.3378121,15.9729804 L20.1192185,19.7543868 Z" id="Path"></path>
            </g>
        </g>
    </g>
</svg>