<?xml version="1.0" encoding="UTF-8"?>
<svg width="12px" height="12px" viewBox="0 0 12 12" version="1.1" xmlns="http://www.w3.org/2000/svg" xmlns:xlink="http://www.w3.org/1999/xlink">
    <!-- Generator: Sketch 52.1 (67048) - http://www.bohemiancoding.com/sketch -->
    <title>search_search</title>
    <desc>Created with Sketch.</desc>
    <g id="Page-1" stroke="none" stroke-width="1" fill="none" fill-rule="evenodd">
        <g id="搜索" transform="translate(-30.000000, -97.000000)" fill="#999999" fill-rule="nonzero">
            <g id="Group-2" transform="translate(15.000000, 84.000000)">
                <g id="Content" transform="translate(15.000000, 7.000000)">
                    <path d="M11.7393927,17.4249313 L11.4249313,17.7386422 C11.2581414,17.9054633 11.0319071,17.9991851 10.7960085,17.9991851 C10.5601099,17.9991851 10.3338755,17.9054633 10.1670856,17.7386422 L8.09194045,15.6634971 C7.24705245,16.212744 6.26125534,16.5057202 5.2535321,16.5070642 C2.35208644,16.5070642 3.55342223e-16,14.1549778 0,11.2535321 C-3.55342223e-16,8.35208644 2.35208644,6 5.2535321,6 C8.15497777,6 10.5070642,8.35208644 10.5070642,11.2535321 C10.506013,12.2609555 10.2132875,13.2465254 9.66424755,14.0911899 L11.7393927,16.1663351 C12.0868691,16.5139181 12.0868691,17.0773483 11.7393927,17.4249313 Z M5.2535321,7.50100917 C3.18086367,7.50121642 1.50080193,9.18161417 1.50100917,11.2542826 C1.50121642,13.326951 3.18161417,15.0070128 5.25428261,15.0068055 C7.32695104,15.0065983 9.00701278,13.3262005 9.00680554,11.2535321 C9.00659829,9.18086367 7.32620054,7.50080193 5.2535321,7.50100917 Z" id="Shape"></path>
                </g>
            </g>
        </g>
    </g>
</svg>