<?xml version="1.0" encoding="UTF-8"?>
<svg width="14px" height="9px" viewBox="0 0 14 9" version="1.1" xmlns="http://www.w3.org/2000/svg" xmlns:xlink="http://www.w3.org/1999/xlink">
    <!-- Generator: Sketch 52.1 (67048) - http://www.bohemiancoding.com/sketch -->
    <title>see</title>
    <desc>Created with Sketch.</desc>
    <g id="Page-1" stroke="none" stroke-width="1" fill="none" fill-rule="evenodd">
        <g id="搜索结果" transform="translate(-163.000000, -245.000000)" fill="#999999" fill-rule="nonzero">
            <g id="阅读量" transform="translate(163.000000, 245.000000)">
                <path d="M13.8595595,3.80621226 C13.751778,3.65158388 11.1738423,0.0134870244 6.99862112,0.0134870244 C2.8233681,0.0134870244 0.245464224,3.65158388 0.137666884,3.80621226 C-0.0292502778,4.04590696 -0.0292502778,4.36430072 0.137666884,4.60396358 C0.245448311,4.75860789 2.82336812,8.39670474 6.99862112,8.39670474 C11.1738423,8.39670474 13.7517621,4.75860789 13.8595595,4.60396358 C14.0264607,4.3642848 14.0264607,4.04589103 13.8595595,3.80621226 Z M6.99862112,7.69809132 C3.14039292,7.69809132 0.711195893,4.20508791 0.711195893,4.20508791 C0.711195893,4.20508791 3.14037699,0.712068591 6.99862112,0.712068591 C10.8568493,0.712068591 13.2860304,4.20508791 13.2860304,4.20508791 C13.2860304,4.20508791 10.8568493,7.69809132 6.99862112,7.69809132 Z" id="Shape"></path>
                <path d="M6.99862112,1.41069793 C5.45540943,1.41069793 4.2041993,2.66190806 4.2041993,4.20510384 C4.2041993,5.74829962 5.45540943,6.99950975 6.99862112,6.99950975 C8.5418169,6.99950975 9.79301112,5.74829962 9.79301112,4.20510384 C9.79301112,2.66190806 8.5418169,1.41069793 6.99862112,1.41069793 Z M6.99862112,6.30089633 C5.84291957,6.30089633 4.90281271,5.36078947 4.90281271,4.20510384 C4.90281271,3.04941821 5.84291957,2.10929542 6.99862112,2.10929542 C8.15430677,2.10929542 9.0943977,3.04940228 9.0943977,4.20510384 C9.0943977,5.3608054 8.15430677,6.30089633 6.99862112,6.30089633 Z" id="Shape"></path>
            </g>
        </g>
    </g>
</svg>