<?xml version="1.0" encoding="UTF-8"?>
<svg width="60px" height="60px" viewBox="0 0 60 60" version="1.1" xmlns="http://www.w3.org/2000/svg" xmlns:xlink="http://www.w3.org/1999/xlink">
    <!-- Generator: Sketch 52.1 (67048) - http://www.bohemiancoding.com/sketch -->
    <title>set_tianjiafengmian</title>
    <desc>Created with Sketch.</desc>
    <g id="Page-1" stroke="none" stroke-width="1" fill="none" fill-rule="evenodd">
        <g id="设置" transform="translate(-158.000000, -115.000000)" fill-rule="nonzero">
            <g id="Group-3" transform="translate(154.000000, 115.000000)">
                <circle id="Oval" fill="#FFFFFF" cx="34" cy="30" r="30"></circle>
                <g id="Group" transform="translate(22.000000, 19.000000)" fill="#333333">
                    <path d="M23.25,19.2 L23.25,3.6 C23.25,2.02581356 21.9741864,0.75 20.4,0.75 L3.6,0.75 C2.02581356,0.75 0.75,2.02581356 0.75,3.6 L0.75,19.2 C0.75,20.7741864 2.02581356,22.05 3.6,22.05 L20.4,22.05 C21.9741864,22.05 23.25,20.7741864 23.25,19.2 Z M24.75,19.2 C24.75,21.6026136 22.8026136,23.55 20.4,23.55 L3.6,23.55 C1.19738644,23.55 -0.75,21.6026136 -0.75,19.2 L-0.75,3.6 C-0.75,1.19738644 1.19738644,-0.75 3.6,-0.75 L20.4,-0.75 C22.8026136,-0.75 24.75,1.19738644 24.75,3.6 L24.75,19.2 Z M9.45,6.9 C9.45,5.82321356 8.57678644,4.95 7.5,4.95 C6.42321356,4.95 5.55,5.82321356 5.55,6.9 C5.55,7.97678644 6.42321356,8.85 7.5,8.85 C8.57678644,8.85 9.45,7.97678644 9.45,6.9 Z M10.95,6.9 C10.95,8.80521356 9.40521356,10.35 7.5,10.35 C5.59478644,10.35 4.05,8.80521356 4.05,6.9 C4.05,4.99478644 5.59478644,3.45 7.5,3.45 C9.40521356,3.45 10.95,4.99478644 10.95,6.9 Z M4.13033009,18.5303301 L3.06966991,17.4696699 L8.4,12.1393398 L12,15.7393398 L20.4696699,7.26966991 L21.5303301,8.33033009 L12,17.8606602 L8.4,14.2606602 L4.13033009,18.5303301 Z" id="Combined-Shape"></path>
                </g>
            </g>
        </g>
    </g>
</svg>