<?xml version="1.0" encoding="UTF-8"?>
<svg width="345px" height="160px" viewBox="0 0 345 160" version="1.1" xmlns="http://www.w3.org/2000/svg" xmlns:xlink="http://www.w3.org/1999/xlink">
    <!-- Generator: Sketch 52.1 (67048) - http://www.bohemiancoding.com/sketch -->
    <title>set_fengmian</title>
    <desc>Created with Sketch.</desc>
    <defs>
        <rect id="path-1" x="0" y="0" width="345" height="160" rx="6"></rect>
    </defs>
    <g id="Page-1" stroke="none" stroke-width="1" fill="none" fill-rule="evenodd">
        <g id="设置" transform="translate(-15.000000, -79.000000)">
            <g id="Rectangle-2" transform="translate(15.000000, 79.000000)">
                <mask id="mask-2" fill="white">
                    <use xlink:href="#path-1"></use>
                </mask>
                <use id="Rectangle" fill="#F8F8F8" fill-rule="nonzero" xlink:href="#path-1"></use>
                <g id="pic" mask="url(#mask-2)">
                    <g transform="translate(-10.000000, 12.000000)" id="Shape">
                        <path d="M230,148.961484 C220.975808,148.961484 212.62777,141 200.444806,141 C188.261842,141 177.885341,148.961484 169.424949,148.961484 C160.964558,148.961484 156,154 156,154 L223.457748,154 L230,148.961484 Z" fill="#E8E8E8"></path>
                        <path d="M205,148.666667 C196.544118,148.666667 173.882353,138 161.705882,138 C149.529412,138 132.279412,148.666667 123.823529,148.666667 C115.367647,148.666667 113,154 113,154 L205,154 L205,148.666667 Z" fill="#F1F1F1"></path>
                        <path d="M291.571429,94.9452245 C279.357143,91.925378 259.003393,90.4852468 242.714286,105.682456 C224.732143,122.459381 211.274036,154 183,154 L280.714286,154 L297,105.682456 L291.571429,94.9452245" fill="#FFFFFF"></path>
                        <path d="M304.544922,97 C302.39745,96.4688732 286.053458,94.3491975 283.466792,94 C275.048674,95.2275226 266.182604,98.6408619 258.277778,106.018659 C240.427083,122.678847 227.067354,154 199,154 L279.833333,154 L296,106.018659 L304.544922,97 Z" fill="#EFEFEF"></path>
                        <path d="M11.4445831,56.125 C11.4445831,56.125 15.1033147,87.236968 10,103 L74.6866326,122.527423 L132,141 C86.6081437,113.855932 68.4510199,65.8356111 11.4445831,56.125 Z" fill="#FFFFFF"></path>
                        <path d="M10,57.95 L10,105.292893 L61.3688282,122.548474 L119,141 C76.8903895,115.986343 53.9436919,71.7911735 10,57.95 Z" fill="#EFEFEF"></path>
                        <path d="M113.249916,25.4002647 C112.226987,25.4002647 111.259842,25.5987841 110.333695,25.8859754 C107.398656,21.7316266 102.529327,19 97,19 C91.4706734,19 86.6013442,21.7316266 83.6663048,25.8859754 C82.7394856,25.5981223 81.7730128,25.4002647 80.750084,25.4002647 C75.3652579,25.4002647 71,29.6982092 71,35 L123,35 C123,29.6982092 118.634742,25.4002647 113.249916,25.4002647 Z" fill="#FFFFFF"></path>
                        <path d="M211.0625,4.8 C210.334739,4.8 209.646479,4.94869716 208.987677,5.16479444 C206.899464,2.04910249 203.434731,0 199.5,0 C195.565269,0 192.101205,2.04840764 190.012323,5.16479444 C189.352852,4.94869716 188.665261,4.8 187.9375,4.8 C184.105874,4.8 181,8.02339317 181,12 L218,12 C218,8.02339317 214.894126,4.8 211.0625,4.8 Z" fill="#FFFFFF"></path>
                        <path d="M46,26 C46,20.2010382 50.4601245,15.4998597 55.9617432,15.4998597 C56.7922767,15.4998597 57.5862081,15.6380471 58.3568474,15.8400673 C60.9562574,12.8813131 64.6417497,11 68.7691284,11 C76.6285838,11 83,17.7157688 83,26 L46,26 Z" fill="#FFFFFF"></path>
                        <path d="M258,36 C258,28.6549058 263.785975,22.7002069 270.922948,22.7002069 C271.99986,22.7002069 273.029863,22.8753857 274.03038,23.131257 C277.402516,19.3835348 282.183953,17 287.538358,17 C297.734514,17 306,25.5065157 306,36 L258,36 L258,36 Z" fill="#FFFFFF"></path>
                        <path d="M289,28 C289,23.3608347 292.977721,19.6000645 297.88451,19.6000645 C298.625171,19.6000645 299.333064,19.7110741 300.021162,19.8724251 C302.339394,17.5050826 305.626288,16 309.307745,16 C316.317736,16 322,21.3723444 322,28 L289,28 Z" fill="#FFFFFF"></path>
                        <path d="M31.6,90 L10,88 C10,88 10,131.372 10,154 L172,154 C128.4625,154 80.875,90 31.6,90 Z" fill="#FAFAFA"></path>
                        <path d="M215,155 L355,155 C355,121.22808 355,56.45 355,56.45 C292.868942,80.7175242 280.549615,155 215,155 Z" fill="#FFFFFF"></path>
                        <path d="M10,91 C10,91 10,132.495643 10,154 L144,154 C105.80196,154 52.86057,102.500027 10,91 Z" fill="#EFEFEF"></path>
                        <path d="M230,154 L355,154 L355,60.2696699 C306.64606,87.8328653 291.268342,154 230,154 Z" fill="#EFEFEF"></path>
                    </g>
                </g>
                <g id="Group-3" mask="url(#mask-2)">
                    <g transform="translate(143.000000, 36.000000)">
                        <circle id="Oval" fill="#FFFFFF" fill-rule="nonzero" cx="30" cy="30" r="30"></circle>
                        <g id="Group" stroke-width="1" fill="none" fill-rule="evenodd" transform="translate(18.000000, 19.000000)">
                            <path d="M23.25,19.2 L23.25,3.6 C23.25,2.02581356 21.9741864,0.75 20.4,0.75 L3.6,0.75 C2.02581356,0.75 0.75,2.02581356 0.75,3.6 L0.75,19.2 C0.75,20.7741864 2.02581356,22.05 3.6,22.05 L20.4,22.05 C21.9741864,22.05 23.25,20.7741864 23.25,19.2 Z M24.75,19.2 C24.75,21.6026136 22.8026136,23.55 20.4,23.55 L3.6,23.55 C1.19738644,23.55 -0.75,21.6026136 -0.75,19.2 L-0.75,3.6 C-0.75,1.19738644 1.19738644,-0.75 3.6,-0.75 L20.4,-0.75 C22.8026136,-0.75 24.75,1.19738644 24.75,3.6 L24.75,19.2 Z M9.45,6.9 C9.45,5.82321356 8.57678644,4.95 7.5,4.95 C6.42321356,4.95 5.55,5.82321356 5.55,6.9 C5.55,7.97678644 6.42321356,8.85 7.5,8.85 C8.57678644,8.85 9.45,7.97678644 9.45,6.9 Z M10.95,6.9 C10.95,8.80521356 9.40521356,10.35 7.5,10.35 C5.59478644,10.35 4.05,8.80521356 4.05,6.9 C4.05,4.99478644 5.59478644,3.45 7.5,3.45 C9.40521356,3.45 10.95,4.99478644 10.95,6.9 Z M4.13033009,18.5303301 L3.06966991,17.4696699 L8.4,12.1393398 L12,15.7393398 L20.4696699,7.26966991 L21.5303301,8.33033009 L12,17.8606602 L8.4,14.2606602 L4.13033009,18.5303301 Z" id="Combined-Shape" fill="#333333" fill-rule="nonzero"></path>
                        </g>
                    </g>
                </g>
            </g>
        </g>
    </g>
</svg>