<?xml version="1.0" encoding="UTF-8"?>
<svg width="18px" height="18px" viewBox="0 0 18 18" version="1.1" xmlns="http://www.w3.org/2000/svg" xmlns:xlink="http://www.w3.org/1999/xlink">
    <!-- Generator: Sketch 52.1 (67048) - http://www.bohemiancoding.com/sketch -->
    <title>tuwen_close</title>
    <desc>Created with Sketch.</desc>
    <g id="Page-1" stroke="none" stroke-width="1" fill="none" fill-rule="evenodd">
        <g id="添加" transform="translate(-179.000000, -609.000000)" fill="#666666" fill-rule="nonzero">
            <g id="Combined-Shape-2" transform="translate(171.000000, 601.000000)">
                <path d="M15.75,15.75 L15.75,6.25 C15.75,5.55964406 16.3096441,5 17,5 C17.6903559,5 18.25,5.55964406 18.25,6.25 L18.25,15.75 L27.75,15.75 C28.4403559,15.75 29,16.3096441 29,17 C29,17.6903559 28.4403559,18.25 27.75,18.25 L18.25,18.25 L18.25,27.75 C18.25,28.4403559 17.6903559,29 17,29 C16.3096441,29 15.75,28.4403559 15.75,27.75 L15.75,18.25 L6.25,18.25 C5.55964406,18.25 5,17.6903559 5,17 C5,16.3096441 5.55964406,15.75 6.25,15.75 L15.75,15.75 Z" id="Combined-Shape" transform="translate(17.000000, 17.000000) rotate(45.000000) translate(-17.000000, -17.000000) "></path>
            </g>
        </g>
    </g>
</svg>