<?xml version="1.0" encoding="UTF-8"?>
<svg width="28px" height="28px" viewBox="0 0 28 28" version="1.1" xmlns="http://www.w3.org/2000/svg" xmlns:xlink="http://www.w3.org/1999/xlink">
    <!-- Generator: Sketch 52.1 (67048) - http://www.bohemiancoding.com/sketch -->
    <title>tuwen_add_pre</title>
    <desc>Created with Sketch.</desc>
    <g id="Page-1" stroke="none" stroke-width="1" fill="none" fill-rule="evenodd">
        <g id="图文编辑" transform="translate(-174.000000, -134.000000)" fill="#999999" fill-rule="nonzero">
            <g id="Group" transform="translate(174.000000, 134.000000)">
                <path d="M13.125,13.125 L13.125,6.78125 L14.875,6.78125 L14.875,13.125 L21.21875,13.125 L21.21875,14.875 L14.875,14.875 L14.875,21.21875 L13.125,21.21875 L13.125,14.875 L6.78125,14.875 L6.78125,13.125 L13.125,13.125 Z M26.25,14 C26.25,7.23262033 20.7666221,1.75 14,1.75 C7.23337786,1.75 1.75,7.23262033 1.75,14 C1.75,20.7673797 7.23337786,26.25 14,26.25 C20.7666221,26.25 26.25,20.7673797 26.25,14 Z M28,14 C28,21.7339321 21.7330663,28 14,28 C6.26693367,28 0,21.7339321 0,14 C0,6.26606789 6.26693367,0 14,0 C21.7330663,0 28,6.26606789 28,14 Z" id="tuwen_add_pre"></path>
            </g>
        </g>
    </g>
</svg>