<?xml version="1.0" encoding="UTF-8"?>
<svg width="38px" height="34px" viewBox="0 0 38 34" version="1.1" xmlns="http://www.w3.org/2000/svg" xmlns:xlink="http://www.w3.org/1999/xlink">
    <!-- Generator: Sketch 52.1 (67048) - http://www.bohemiancoding.com/sketch -->
    <title>tuwen_list_pic</title>
    <desc>Created with Sketch.</desc>
    <g id="Page-1" stroke="none" stroke-width="1" fill="none" fill-rule="evenodd">
        <g id="图文编辑详情" transform="translate(-33.000000, -371.000000)" fill="#FFFFFF" fill-rule="nonzero">
            <g id="Group-3-Copy" transform="translate(-0.312500, 345.000000)">
                <g id="多行文字" transform="translate(34.000000, 26.000000)">
                    <path d="M14.2539469,15.0023503 L5.38590395,15.0023085 L3.92603525,18.9836566 C3.58220535,19.9213482 2.68964143,20.5447412 1.6909,20.5447412 C1.5501781,20.5447412 1.41067456,20.5186642 1.27945482,20.4678308 C0.692877895,20.2405959 0.40157362,19.580871 0.628808516,18.9942941 L7.30511577,1.76028702 C7.70735874,0.7219498 8.70639788,0.0375853107 9.81992542,0.0375853107 C10.9340909,0.0375853107 11.9343508,0.720541995 12.3399985,1.75823875 L19.0063052,18.811472 C19.0577966,18.9431933 19.0842224,19.0833762 19.0842224,19.2248041 C19.0842224,19.8517973 18.575944,20.3600757 17.9489508,20.3600757 C16.9480948,20.3600757 16.0514918,19.7412348 15.6965276,18.8054393 L14.2539469,15.0023503 Z M9.08097062,4.65614689 L9.08105424,4.65610508 C9.08105424,4.84093785 8.15726667,7.42742599 6.1250678,12.6004023 L13.5151175,12.6004023 C11.6675006,7.42742599 10.5591311,4.84093785 10.5591311,4.65610508 C10.5591311,4.65610508 10.3742983,4.47148136 10.3742983,4.28664859 C10.0048,3.36302825 9.82013446,2.99344633 9.82013446,2.80878079 L9.63530169,2.80878079 C9.45051073,3.5477774 9.26580339,4.10198305 9.08097062,4.65614689 Z M21.2744565,7.79700791 L35.6849322,7.79700791 C36.3991712,7.79700791 36.9781763,8.376013 36.9781763,9.09025198 C36.9781763,9.80449095 36.3991712,10.383496 35.6849322,10.383496 L21.2744565,10.383496 C20.5602175,10.383496 19.9812124,9.80449095 19.9812124,9.09025198 C19.9812124,8.376013 20.5602175,7.79700791 21.2744565,7.79700791 Z M1.32150621,23.1312712 L35.6849322,23.1312712 C36.3991712,23.1312712 36.9781763,23.7102763 36.9781763,24.4245153 C36.9781763,25.1387542 36.3991712,25.7177593 35.6849322,25.7177593 L1.32150621,25.7177593 C0.607267238,25.7177593 0.0282621469,25.1387542 0.0282621469,24.4245153 C0.0282621469,23.7102763 0.607267238,23.1312712 1.32150621,23.1312712 Z M21.2744565,15.5563469 L35.6849322,15.5563469 C36.3991712,15.5563469 36.9781763,16.135352 36.9781763,16.849591 C36.9781763,17.5638299 36.3991712,18.142835 35.6849322,18.142835 L21.2744565,18.142835 C20.5602175,18.142835 19.9812124,17.5638299 19.9812124,16.849591 C19.9812124,16.135352 20.5602175,15.5563469 21.2744565,15.5563469 Z M1.32150621,30.7059446 L35.6849322,30.7059446 C36.3991712,30.7059446 36.9781763,31.2849497 36.9781763,31.9991887 C36.9781763,32.7134277 36.3991712,33.2924328 35.6849322,33.2924328 L1.32150621,33.2924328 C0.607267238,33.2924328 0.0282621469,32.7134277 0.0282621469,31.9991887 C0.0282621469,31.2849497 0.607267238,30.7059446 1.32150621,30.7059446 Z M21.2744356,0.222418079 L35.6849531,0.222418079 C36.3991805,0.222418079 36.9781763,0.801413811 36.9781763,1.51564124 C36.9781763,2.22986867 36.3991805,2.80886441 35.6849531,2.80886441 L21.2744356,2.80886441 C20.5602082,2.80886441 19.9812124,2.22986867 19.9812124,1.51564124 C19.9812124,0.801413811 20.5602082,0.222418079 21.2744356,0.222418079 Z" id="tuwen_list_pic"></path>
                </g>
            </g>
        </g>
    </g>
</svg>