<?xml version="1.0" encoding="UTF-8"?>
<svg width="33px" height="32px" viewBox="0 0 33 32" version="1.1" xmlns="http://www.w3.org/2000/svg" xmlns:xlink="http://www.w3.org/1999/xlink">
    <!-- Generator: Sketch 52.1 (67048) - http://www.bohemiancoding.com/sketch -->
    <title>tuwen_list_play</title>
    <desc>Created with Sketch.</desc>
    <g id="Page-1" stroke="none" stroke-width="1" fill="none" fill-rule="evenodd">
        <g id="图文编辑详情" transform="translate(-35.000000, -545.000000)" fill="#FFFFFF" fill-rule="nonzero">
            <g id="Group-3-Copy" transform="translate(35.687500, 545.000000)">
                <path d="M29.7846154,16 C29.7846154,8.38674191 23.6132581,2.21538462 16,2.21538462 C8.38674191,2.21538462 2.21538462,8.38674191 2.21538462,16 C2.21538462,23.6132581 8.38674191,29.7846154 16,29.7846154 C23.6132581,29.7846154 29.7846154,23.6132581 29.7846154,16 Z M31.7538462,16 C31.7538462,24.7008342 24.7008342,31.7538462 16,31.7538462 C7.29916578,31.7538462 0.246153846,24.7008342 0.246153846,16 C0.246153846,7.29916578 7.29916578,0.246153846 16,0.246153846 C24.7008342,0.246153846 31.7538462,7.29916578 31.7538462,16 Z M14.4738474,9.4458045 L21.4759397,14.0227891 C22.8704573,14.925124 22.8259998,17.0804214 21.4458441,17.9734232 L14.4917645,22.5552177 C12.9928954,23.5236747 11.3230769,22.3316494 11.3230769,20.5769505 L11.3230769,11.4229813 C11.3230769,9.66896347 12.9725411,8.47437098 14.4738474,9.4458045 Z" id="tuwen_list_play"></path>
            </g>
        </g>
    </g>
</svg>