<?xml version="1.0" encoding="UTF-8"?>
<svg width="40px" height="39px" viewBox="0 0 40 39" version="1.1" xmlns="http://www.w3.org/2000/svg" xmlns:xlink="http://www.w3.org/1999/xlink">
    <!-- Generator: Sketch 52.1 (67048) - http://www.bohemiancoding.com/sketch -->
    <title>tuwen_list_music</title>
    <desc>Created with Sketch.</desc>
    <g id="Page-1" stroke="none" stroke-width="1" fill="none" fill-rule="evenodd">
        <g id="图文编辑详情" transform="translate(-32.000000, -704.000000)" fill="#FFFFFF" fill-rule="nonzero">
            <g id="Group-3-Copy-3" transform="translate(-0.312500, 671.000000)">
                <g id="Group" transform="translate(33.000000, 33.000000)">
                    <path d="M36,11.75 C36,10.9607486 35.4014265,10.5 34.25,10.5 L19.25,10.5 C18.0985735,10.5 17.5,10.9607486 17.5,11.75 L17.5,30.25 L17.4859524,30.25 C17.2268034,34.849725 13.4145443,38.5 8.75,38.5 C3.91764406,38.5 0,34.5823559 0,29.75 C0,24.9176441 3.91764406,21 8.75,21 C11.1983173,21 13.4118325,22.00564 15,23.6263743 L15,4.25 C15,1.90264406 16.9026441,0 19.25,0 L34.25,0 C36.5973559,0 38.5,1.90264406 38.5,4.25 L38.5,30.25 L38.4859524,30.25 C38.2268034,34.849725 34.4145443,38.5 29.75,38.5 C24.9176441,38.5 21,34.5823559 21,29.75 C21,24.9176441 24.9176441,21 29.75,21 C32.1983173,21 34.4118325,22.00564 36,23.6263743 L36,11.75 Z M36,8.28117576 L36,4.25 C36,3.28335594 35.2166441,2.5 34.25,2.5 L19.25,2.5 C18.2833559,2.5 17.5,3.28335594 17.5,4.25 L17.5,8.28117576 C18.0292657,8.09668741 18.6201451,8 19.25,8 L34.25,8 C34.8798549,8 35.4707343,8.09668741 36,8.28117576 Z M15,29.75 C15,26.2983559 12.2016441,23.5 8.75,23.5 C5.29835594,23.5 2.5,26.2983559 2.5,29.75 C2.5,33.2016441 5.29835594,36 8.75,36 C12.2016441,36 15,33.2016441 15,29.75 Z M36,29.75 C36,26.2983559 33.2016441,23.5 29.75,23.5 C26.2983559,23.5 23.5,26.2983559 23.5,29.75 C23.5,33.2016441 26.2983559,36 29.75,36 C33.2016441,36 36,33.2016441 36,29.75 Z" id="tuwen_list_music"></path>
                </g>
            </g>
        </g>
    </g>
</svg>