<?xml version="1.0" encoding="UTF-8"?>
<svg width="30px" height="30px" viewBox="0 0 30 30" version="1.1" xmlns="http://www.w3.org/2000/svg" xmlns:xlink="http://www.w3.org/1999/xlink">
    <!-- Generator: Sketch 52.1 (67048) - http://www.bohemiancoding.com/sketch -->
    <title>yulan_play</title>
    <desc>Created with Sketch.</desc>
    <g id="Page-1" stroke="none" stroke-width="1" fill="none" fill-rule="evenodd">
        <g id="预览" transform="translate(-30.000000, -830.000000)" fill="#FD6258" fill-rule="nonzero">
            <g id="Group-3-Copy-2" transform="translate(30.000000, 830.000000)">
                <path d="M28.125,15 C28.125,7.7510482 22.2489518,1.875 15,1.875 C7.7510482,1.875 1.875,7.7510482 1.875,15 C1.875,22.2489518 7.7510482,28.125 15,28.125 C22.2489518,28.125 28.125,22.2489518 28.125,15 Z M30,15 C30,23.2844857 23.2844857,30 15,30 C6.7155143,30 0,23.2844857 0,15 C0,6.7155143 6.7155143,0 15,0 C23.2844857,0 30,6.7155143 30,15 Z M13.5367376,9.27985962 L19.1742383,12.9648659 C20.2969875,13.6913507 20.2611941,15.4266163 19.1500077,16.1455869 L13.551163,19.8344657 C12.3443986,20.6141865 11,19.6544671 11,18.2417299 L11,10.8717174 C11,9.45952861 12.3280109,8.49774238 13.5367376,9.27985962 Z" id="yulan_play"></path>
            </g>
        </g>
    </g>
</svg>