<?xml version="1.0" encoding="UTF-8"?>
<svg width="20px" height="22px" viewBox="0 0 20 22" version="1.1" xmlns="http://www.w3.org/2000/svg" xmlns:xlink="http://www.w3.org/1999/xlink">
    <!-- Generator: Sketch 52.1 (67048) - http://www.bohemiancoding.com/sketch -->
    <title>yulan_bar_ziti_pre</title>
    <desc>Created with Sketch.</desc>
    <g id="Page-1" stroke="none" stroke-width="1" fill="none" fill-rule="evenodd">
        <g id="预览-字体" transform="translate(-224.000000, -625.000000)" fill="#FD6258" fill-rule="nonzero">
            <g id="Group-5" transform="translate(0.000000, 618.000000)">
                <g id="Group-Copy-4" transform="translate(224.000000, 7.000000)">
                    <g id="复制文字">
                        <path d="M19.9615385,17.6730769 C19.9615385,19.7867777 18.2483161,21.5 16.1346154,21.5 L3.82692308,21.5 C1.71322234,21.5 -1.75859327e-13,19.7867777 -1.75859327e-13,17.6730769 L-1.75859327e-13,3.82692308 C-1.75859327e-13,1.71322234 1.71322234,0 3.82692308,0 L16.1346154,0 C18.2483161,0 19.9615385,1.71322234 19.9615385,3.82692308 L19.9615385,17.6730769 Z M7.79271632,12.8990879 L12.3100222,12.8990879 L13.7167295,16.7243445 C13.8225697,17.0084482 14.0908694,17.1932055 14.3888669,17.1932055 C14.4735578,17.1932055 14.5568068,17.1781346 14.6374569,17.1475431 C15.0065954,17.0094713 15.1971017,16.5969988 15.0586843,16.2269441 L10.7353556,4.466453 C10.6274372,4.17590343 10.3486424,3.99165644 10.043559,4.00029087 C9.75262086,3.99165644 9.47382607,4.17590343 9.36590765,4.466453 L5.04390947,16.2301517 C4.90808233,16.6008463 5.09788183,17.0128075 5.46829708,17.1485321 C5.54629472,17.1781346 5.62954368,17.1932055 5.71423456,17.1932055 C6.01182757,17.1932055 6.28137217,17.0089497 6.38628144,16.7245903 L7.79271632,12.8990879 Z M11.7861352,11.4671026 L8.31880453,11.4671026 L10.0524699,6.75055789 L11.7861352,11.4671026 Z" id="Combined-Shape"></path>
                    </g>
                </g>
            </g>
        </g>
    </g>
</svg>