<?xml version="1.0" encoding="UTF-8"?>
<svg width="20px" height="20px" viewBox="0 0 20 20" version="1.1" xmlns="http://www.w3.org/2000/svg" xmlns:xlink="http://www.w3.org/1999/xlink">
    <!-- Generator: Sketch 52.1 (67048) - http://www.bohemiancoding.com/sketch -->
    <title>yulan_bar_moban_nor</title>
    <desc>Created with Sketch.</desc>
    <g id="Page-1" stroke="none" stroke-width="1" fill="none" fill-rule="evenodd">
        <g id="预览" transform="translate(-37.000000, -912.000000)" fill="#666666" fill-rule="nonzero">
            <g id="yulan_bar_moban_nor-2" transform="translate(37.000000, 912.000000)">
                <path d="M6.57282742,7.83353733 C7.26903022,7.83353733 7.83353733,7.26903022 7.83353733,6.57282742 L7.83353733,2.65605875 C7.83353733,1.95985595 7.26903022,1.39534884 6.57282742,1.39534884 L2.65605875,1.39534884 C1.95985595,1.39534884 1.39534884,1.95985595 1.39534884,2.65605875 L1.39534884,6.57282742 C1.39534884,7.26903022 1.95985595,7.83353733 2.65605875,7.83353733 L6.57282742,7.83353733 Z M6.57282742,9.22888617 L2.65605875,9.22888617 C1.18922606,9.22888617 0,8.03966011 0,6.57282742 L0,2.65605875 C0,1.18922606 1.18922606,0 2.65605875,0 L6.57282742,0 C8.03966011,0 9.22888617,1.18922606 9.22888617,2.65605875 L9.22888617,6.57282742 C9.22888617,8.03966011 8.03966011,9.22888617 6.57282742,9.22888617 Z M18.6046512,6.57282742 L18.6046512,2.65605875 C18.6046512,1.95985595 18.0401441,1.39534884 17.3439412,1.39534884 L13.4271726,1.39534884 C12.7309698,1.39534884 12.1664627,1.95985595 12.1664627,2.65605875 L12.1664627,6.57282742 C12.1664627,7.26903022 12.7309698,7.83353733 13.4271726,7.83353733 L17.3439412,7.83353733 C18.0401441,7.83353733 18.6046512,7.26903022 18.6046512,6.57282742 Z M20,6.57282742 C20,8.03966011 18.8107739,9.22888617 17.3439412,9.22888617 L13.4271726,9.22888617 C11.9603399,9.22888617 10.7711138,8.03966011 10.7711138,6.57282742 L10.7711138,2.65605875 C10.7711138,1.18922606 11.9603399,0 13.4271726,0 L17.3439412,0 C18.8107739,0 20,1.18922606 20,2.65605875 L20,6.57282742 Z M7.83353733,17.3439412 L7.83353733,13.4271726 C7.83353733,12.7309698 7.26903022,12.1664627 6.57282742,12.1664627 L2.65605875,12.1664627 C1.95985595,12.1664627 1.39534884,12.7309698 1.39534884,13.4271726 L1.39534884,17.3439412 C1.39534884,18.0401441 1.95985595,18.6046512 2.65605875,18.6046512 L6.57282742,18.6046512 C7.26903022,18.6046512 7.83353733,18.0401441 7.83353733,17.3439412 Z M9.22888617,17.3439412 C9.22888617,18.8107739 8.03966011,20 6.57282742,20 L2.65605875,20 C1.18922606,20 0,18.8107739 0,17.3439412 L0,13.4271726 C0,11.9603399 1.18922606,10.7711138 2.65605875,10.7711138 L6.57282742,10.7711138 C8.03966011,10.7711138 9.22888617,11.9603399 9.22888617,13.4271726 L9.22888617,17.3439412 Z M17.3439412,18.6046512 C18.0401441,18.6046512 18.6046512,18.0401441 18.6046512,17.3439412 L18.6046512,13.4271726 C18.6046512,12.7309698 18.0401441,12.1664627 17.3439412,12.1664627 L13.4271726,12.1664627 C12.7309698,12.1664627 12.1664627,12.7309698 12.1664627,13.4271726 L12.1664627,17.3439412 C12.1664627,18.0401441 12.7309698,18.6046512 13.4271726,18.6046512 L17.3439412,18.6046512 Z M17.3439412,20 L13.4271726,20 C11.9603399,20 10.7711138,18.8107739 10.7711138,17.3439412 L10.7711138,13.4271726 C10.7711138,11.9603399 11.9603399,10.7711138 13.4271726,10.7711138 L17.3439412,10.7711138 C18.8107739,10.7711138 20,11.9603399 20,13.4271726 L20,17.3439412 C20,18.8107739 18.8107739,20 17.3439412,20 Z" id="yulan_bar_moban_nor"></path>
            </g>
        </g>
    </g>
</svg>