<?xml version="1.0" encoding="UTF-8"?>
<svg width="30px" height="30px" viewBox="0 0 30 30" version="1.1" xmlns="http://www.w3.org/2000/svg" xmlns:xlink="http://www.w3.org/1999/xlink">
    <!-- Generator: Sketch 52.1 (67048) - http://www.bohemiancoding.com/sketch -->
    <title>yulan_zanting</title>
    <desc>Created with Sketch.</desc>
    <g id="Page-1" stroke="none" stroke-width="1" fill="none" fill-rule="evenodd">
        <g id="预览" transform="translate(-30.000000, -869.000000)" fill="#FD6258" fill-rule="nonzero">
            <g id="Group-3-Copy-3" transform="translate(30.000000, 869.000000)">
                <path d="M28.125,15 C28.125,7.7510482 22.2489518,1.875 15,1.875 C7.7510482,1.875 1.875,7.7510482 1.875,15 C1.875,22.2489518 7.7510482,28.125 15,28.125 C22.2489518,28.125 28.125,22.2489518 28.125,15 Z M30,15 C30,23.2844857 23.2844857,30 15,30 C6.7155143,30 0,23.2844857 0,15 C0,6.7155143 6.7155143,0 15,0 C23.2844857,0 30,6.7155143 30,15 Z M12,10 L12,10 C12.5522847,10 13,10.4477153 13,11 L13,19 C13,19.5522847 12.5522847,20 12,20 L12,20 C11.4477153,20 11,19.5522847 11,19 L11,11 C11,10.4477153 11.4477153,10 12,10 Z M18,10 L18,10 C18.5522847,10 19,10.4477153 19,11 L19,19 C19,19.5522847 18.5522847,20 18,20 L18,20 C17.4477153,20 17,19.5522847 17,19 L17,11 C17,10.4477153 17.4477153,10 18,10 Z" id="yulan_zanting"></path>
            </g>
        </g>
    </g>
</svg>