<?xml version="1.0" encoding="UTF-8"?>
<svg width="24px" height="24px" viewBox="0 0 24 24" version="1.1" xmlns="http://www.w3.org/2000/svg" xmlns:xlink="http://www.w3.org/1999/xlink">
    <!-- Generator: Sketch 52.1 (67048) - http://www.bohemiancoding.com/sketch -->
    <title>yulan_bar_music_nor</title>
    <desc>Created with Sketch.</desc>
    <g id="Page-1" stroke="none" stroke-width="1" fill="none" fill-rule="evenodd">
        <g id="预览" transform="translate(-129.000000, -910.000000)" fill="#666666" fill-rule="nonzero">
            <g id="Group" transform="translate(129.000000, 910.000000)">
                <path d="M16.35,2.58760748 L16.35,11.2 L16.3174593,11.2 C16.3389462,11.3803378 16.35,11.563878 16.35,11.75 C16.35,14.2905136 14.2905136,16.35 11.75,16.35 C9.20948644,16.35 7.15,14.2905136 7.15,11.75 C7.15,9.20948644 9.20948644,7.15 11.75,7.15 C12.9443008,7.15 14.0322966,7.60513827 14.85,8.35142759 L14.85,1.97710004 C13.872032,1.66718509 12.8305469,1.5 11.75,1.5 C6.08891356,1.5 1.5,6.08891356 1.5,11.75 C1.5,17.4110864 6.08891356,22 11.75,22 C17.4110864,22 22,17.4110864 22,11.75 C22,7.74302615 19.700977,4.27320562 16.35,2.58760748 Z M23.5,11.75 C23.5,18.2395136 18.2395136,23.5 11.75,23.5 C5.26048644,23.5 0,18.2395136 0,11.75 C0,5.26048644 5.26048644,0 11.75,0 C18.2395136,0 23.5,5.26048644 23.5,11.75 Z M14.85,11.75 C14.85,10.0379136 13.4620864,8.65 11.75,8.65 C10.0379136,8.65 8.65,10.0379136 8.65,11.75 C8.65,13.4620864 10.0379136,14.85 11.75,14.85 C13.4620864,14.85 14.85,13.4620864 14.85,11.75 Z" id="yulan_bar_music_nor"></path>
            </g>
        </g>
    </g>
</svg>