<?xml version="1.0" encoding="UTF-8"?>
<svg width="21px" height="22px" viewBox="0 0 21 22" version="1.1" xmlns="http://www.w3.org/2000/svg" xmlns:xlink="http://www.w3.org/1999/xlink">
    <!-- Generator: Sketch 52.1 (67048) - http://www.bohemiancoding.com/sketch -->
    <title>yulan_bar_yangshi_nor</title>
    <desc>Created with Sketch.</desc>
    <g id="Page-1" stroke="none" stroke-width="1" fill="none" fill-rule="evenodd">
        <g id="预览" transform="translate(-317.000000, -911.000000)" fill="#666666" fill-rule="nonzero">
            <g id="Group" transform="translate(317.000000, 911.000000)">
                <path d="M18.7115385,17.9230769 L18.7115385,4.07692308 C18.7115385,2.79164946 17.669889,1.75 16.3846154,1.75 L4.07692308,1.75 C2.79164946,1.75 1.75,2.79164946 1.75,4.07692308 L1.75,17.9230769 C1.75,19.2083505 2.79164946,20.25 4.07692308,20.25 L16.3846154,20.25 C17.669889,20.25 18.7115385,19.2083505 18.7115385,17.9230769 Z M20.2115385,17.9230769 C20.2115385,20.0367777 18.4983161,21.75 16.3846154,21.75 L4.07692308,21.75 C1.96322234,21.75 0.25,20.0367777 0.25,17.9230769 L0.25,4.07692308 C0.25,1.96322234 1.96322234,0.25 4.07692308,0.25 L16.3846154,0.25 C18.4983161,0.25 20.2115385,1.96322234 20.2115385,4.07692308 L20.2115385,17.9230769 Z M17.1346154,5.61538462 L17.1346154,8.69230769 C17.1346154,9.95626484 16.110111,10.9807692 14.8461538,10.9807692 L11.7692308,10.9807692 C10.5052736,10.9807692 9.48076923,9.95626484 9.48076923,8.69230769 L9.48076923,5.61538462 C9.48076923,4.35142746 10.5052736,3.32692308 11.7692308,3.32692308 L14.8461538,3.32692308 C16.110111,3.32692308 17.1346154,4.35142746 17.1346154,5.61538462 Z M15.6346154,5.61538462 C15.6346154,5.17985459 15.2816839,4.82692308 14.8461538,4.82692308 L11.7692308,4.82692308 C11.3337007,4.82692308 10.9807692,5.17985459 10.9807692,5.61538462 L10.9807692,8.69230769 C10.9807692,9.12783772 11.3337007,9.48076923 11.7692308,9.48076923 L14.8461538,9.48076923 C15.2816839,9.48076923 15.6346154,9.12783772 15.6346154,8.69230769 L15.6346154,5.61538462 Z M4.07692308,4.82692308 L4.07692308,3.32692308 L7.15384615,3.32692308 L7.15384615,4.82692308 L4.07692308,4.82692308 Z M4.07692308,7.90384615 L4.07692308,6.40384615 L7.15384615,6.40384615 L7.15384615,7.90384615 L4.07692308,7.90384615 Z M4.07692308,10.9807692 L4.07692308,9.48076923 L7.15384615,9.48076923 L7.15384615,10.9807692 L4.07692308,10.9807692 Z M4.07692308,14.0576923 L4.07692308,12.5576923 L16.3846154,12.5576923 L16.3846154,14.0576923 L4.07692308,14.0576923 Z M4.07692308,17.1346154 L4.07692308,15.6346154 L11.7692308,15.6346154 L11.7692308,17.1346154 L4.07692308,17.1346154 Z" id="yulan_bar_yangshi_nor"></path>
            </g>
        </g>
    </g>
</svg>