<?xml version="1.0" encoding="UTF-8"?>
<svg width="25px" height="25px" viewBox="0 0 25 25" version="1.1" xmlns="http://www.w3.org/2000/svg" xmlns:xlink="http://www.w3.org/1999/xlink">
    <!-- Generator: Sketch 52.1 (67048) - http://www.bohemiancoding.com/sketch -->
    <title>yulan_yinyueku</title>
    <desc>Created with Sketch.</desc>
    <g id="Page-1" stroke="none" stroke-width="1" fill="none" fill-rule="evenodd">
        <g id="预览-音乐" transform="translate(-39.000000, -523.000000)" fill="#FD6258" fill-rule="nonzero">
            <g id="Combined-Shape-2" transform="translate(39.000000, 523.000000)">
                <path d="M22.4415584,7.57467532 C22.4415584,7.23323298 22.1837699,7.04545455 21.6006494,7.04545455 L12.25,7.04545455 C11.6668795,7.04545455 11.4090909,7.23323298 11.4090909,7.57467532 L11.4090909,19.3571429 L11.3817835,19.3571429 C11.0987538,22.2550314 8.65406936,24.5 5.70454545,24.5 C2.55409654,24.5 0,21.9459035 0,18.7954545 C0,15.6450056 2.55409654,13.0909091 5.70454545,13.0909091 C7.05898349,13.0909091 8.33853419,13.5654941 9.35064935,14.4079519 L9.35064935,2.89935065 C9.35064935,1.29799264 10.648642,0 12.25,0 L21.6006494,0 C23.2020074,0 24.5,1.29799264 24.5,2.89935065 L24.5,19.3571429 L24.4726926,19.3571429 C24.1896629,22.2550314 21.7449784,24.5 18.7954545,24.5 C15.6450056,24.5 13.0909091,21.9459035 13.0909091,18.7954545 C13.0909091,15.6450056 15.6450056,13.0909091 18.7954545,13.0909091 C20.1498926,13.0909091 21.4294433,13.5654941 22.4415584,14.4079519 L22.4415584,7.57467532 Z M22.4415584,2.89935065 C22.4415584,2.43483852 22.0651615,2.05844156 21.6006494,2.05844156 L12.25,2.05844156 C11.7854879,2.05844156 11.4090909,2.43483852 11.4090909,2.89935065 L11.4090909,5.08028017 C11.6753494,5.01842192 11.9575151,4.98701299 12.25,4.98701299 L21.6006494,4.98701299 C21.8931342,4.98701299 22.1752999,5.01842192 22.4415584,5.08028017 L22.4415584,2.89935065 Z" id="Combined-Shape"></path>
            </g>
        </g>
    </g>
</svg>