<?xml version="1.0" encoding="UTF-8"?>
<svg width="60px" height="40px" viewBox="0 0 60 40" version="1.1" xmlns="http://www.w3.org/2000/svg" xmlns:xlink="http://www.w3.org/1999/xlink">
    <!-- Generator: Sketch 52.1 (67048) - http://www.bohemiancoding.com/sketch -->
    <title>yulan_pic_nor</title>
    <desc>Created with Sketch.</desc>
    <g id="Page-1" stroke="none" stroke-width="1" fill="none" fill-rule="evenodd">
        <g id="预览-样式" transform="translate(-234.000000, -506.000000)">
            <g id="Group-6" transform="translate(218.000000, 491.000000)">
                <g id="yulan_pic_nor" transform="translate(16.000000, 15.000000)">
                    <path d="M54,39 C56.7617153,39 59,36.7617153 59,34 L59,6 C59,3.23828475 56.7617153,1 54,1 L6,1 C3.23828475,1 1,3.23828475 1,6 L1,34 C1,36.7617153 3.23828475,39 6,39 L54,39 Z" id="Shape" stroke="#999999" stroke-width="2"></path>
                    <path d="M25.7071068,13.5 C25.7071068,11.5672847 24.139822,10 22.2071068,10 C20.2743915,10 18.7071068,11.5672847 18.7071068,13.5 C18.7071068,15.4327153 20.2743915,17 22.2071068,17 C24.139822,17 25.7071068,15.4327153 25.7071068,13.5 Z M27.7071068,13.5 C27.7071068,16.5372847 25.2443915,19 22.2071068,19 C19.169822,19 16.7071068,16.5372847 16.7071068,13.5 C16.7071068,10.4627153 19.169822,8 22.2071068,8 C25.2443915,8 27.7071068,10.4627153 27.7071068,13.5 Z M16.4142136,32.7071068 L15,31.2928932 L23.7071068,22.5857864 L29.7071068,28.5857864 L44,14.2928932 L45.4142136,15.7071068 L29.7071068,31.4142136 L23.7071068,25.4142136 L16.4142136,32.7071068 Z" id="Combined-Shape" fill="#999999" fill-rule="nonzero"></path>
                </g>
            </g>
        </g>
    </g>
</svg>