<?xml version="1.0" encoding="UTF-8"?>
<svg width="20px" height="20px" viewBox="0 0 20 20" version="1.1" xmlns="http://www.w3.org/2000/svg" xmlns:xlink="http://www.w3.org/1999/xlink">
    <!-- Generator: Sketch 52.1 (67048) - http://www.bohemiancoding.com/sketch -->
    <title>yulan_bar_moban_pre</title>
    <desc>Created with Sketch.</desc>
    <g id="Page-1" stroke="none" stroke-width="1" fill="none" fill-rule="evenodd">
        <g id="预览-模板" transform="translate(-37.000000, -626.000000)" fill="#FD6258" fill-rule="nonzero">
            <g id="Group-5" transform="translate(0.000000, 618.000000)">
                <g id="Shape-2" transform="translate(37.000000, 8.000000)">
                    <path d="M6.57282742,9.22888617 L2.65605875,9.22888617 C1.18922606,9.22888617 0,8.03966011 0,6.57282742 L0,2.65605875 C0,1.18922606 1.18922606,0 2.65605875,0 L6.57282742,0 C8.03966011,0 9.22888617,1.18922606 9.22888617,2.65605875 L9.22888617,6.57282742 C9.22888617,8.03966011 8.03966011,9.22888617 6.57282742,9.22888617 Z M20,6.57282742 C20,8.03966011 18.8107739,9.22888617 17.3439412,9.22888617 L13.4271726,9.22888617 C11.9603399,9.22888617 10.7711138,8.03966011 10.7711138,6.57282742 L10.7711138,2.65605875 C10.7711138,1.18922606 11.9603399,0 13.4271726,0 L17.3439412,0 C18.8107739,0 20,1.18922606 20,2.65605875 L20,6.57282742 Z M9.22888617,17.3439412 C9.22888617,18.8107739 8.03966011,20 6.57282742,20 L2.65605875,20 C1.18922606,20 0,18.8107739 0,17.3439412 L0,13.4271726 C0,11.9603399 1.18922606,10.7711138 2.65605875,10.7711138 L6.57282742,10.7711138 C8.03966011,10.7711138 9.22888617,11.9603399 9.22888617,13.4271726 L9.22888617,17.3439412 Z M17.3439412,20 L13.4271726,20 C11.9603399,20 10.7711138,18.8107739 10.7711138,17.3439412 L10.7711138,13.4271726 C10.7711138,11.9603399 11.9603399,10.7711138 13.4271726,10.7711138 L17.3439412,10.7711138 C18.8107739,10.7711138 20,11.9603399 20,13.4271726 L20,17.3439412 C20,18.8107739 18.8107739,20 17.3439412,20 Z" id="yulan_bar_moban_pre"></path>
                </g>
            </g>
        </g>
    </g>
</svg>