<?xml version="1.0" encoding="UTF-8"?>
<svg width="24px" height="25px" viewBox="0 0 24 25" version="1.1" xmlns="http://www.w3.org/2000/svg" xmlns:xlink="http://www.w3.org/1999/xlink">
    <!-- Generator: Sketch 52.1 (67048) - http://www.bohemiancoding.com/sketch -->
    <title>yulan_mobanku</title>
    <desc>Created with Sketch.</desc>
    <g id="Page-1" stroke="none" stroke-width="1" fill="none" fill-rule="evenodd">
        <g id="预览-模板" transform="translate(-41.000000, -525.000000)" fill="#FD6258" fill-rule="nonzero">
            <g id="Group" transform="translate(41.000000, 525.000000)">
                <path d="M12.5480316,24.6048099 L12.5480316,12.914988 L23.3072764,7.03540775 C23.4580874,7.47764242 23.5384615,7.9467413 23.5384615,8.42665845 L23.5384615,16.2469661 C23.5384615,17.8345672 22.6607089,19.3027417 21.262161,20.0732283 L13.8829625,24.1321666 C13.4609603,24.3644573 13.0097016,24.5220019 12.5480316,24.6048099 Z M10.9897904,24.602845 C10.5321199,24.519553 10.0848946,24.3627504 9.66650163,24.1324463 L2.27746654,20.0732283 C0.878616464,19.3025752 -2.84217094e-14,17.834242 -2.84217094e-14,16.2469661 L-2.84217094e-14,8.42665845 C-2.84217094e-14,7.94658675 0.0802020167,7.47742002 0.230754987,7.03517093 L10.9897904,12.9149752 L10.9897904,24.602845 Z M0.98900902,5.67118351 C1.34009092,5.24212886 1.77460856,4.87621777 2.2761214,4.60017395 L9.65491601,0.541458018 C10.966386,-0.180439377 12.5604156,-0.180439377 13.8713769,0.541178285 L21.2601808,4.60026897 C21.7619552,4.87645675 22.1968727,5.24256066 22.5483427,5.67179139 L11.7689217,11.5623972 L0.98900902,5.67118351 Z" id="yulan_mobanku"></path>
            </g>
        </g>
    </g>
</svg>