<?xml version="1.0" encoding="UTF-8"?>
<svg width="60px" height="40px" viewBox="0 0 60 40" version="1.1" xmlns="http://www.w3.org/2000/svg" xmlns:xlink="http://www.w3.org/1999/xlink">
    <!-- Generator: Sketch 52.1 (67048) - http://www.bohemiancoding.com/sketch -->
    <title>yulan_pic_pre</title>
    <desc>Created with Sketch.</desc>
    <g id="Page-1" stroke="none" stroke-width="1" fill="none" fill-rule="evenodd">
        <g id="预览-样式" transform="translate(-82.000000, -533.000000)" fill="#FD6258">
            <g id="Group-7" transform="translate(67.000000, 491.000000)">
                <g id="Group" transform="translate(15.000000, 42.000000)">
                    <path d="M54,40 L6,40 C2.686,40 0,37.314 0,34 L0,6 C0,2.686 2.686,0 6,0 L54,0 C57.314,0 60,2.686 60,6 L60,34 C60,37.314 57.314,40 54,40 Z M25.7071068,13.5 C25.7071068,15.4327153 24.139822,17 22.2071068,17 C20.2743915,17 18.7071068,15.4327153 18.7071068,13.5 C18.7071068,11.5672847 20.2743915,10 22.2071068,10 C24.139822,10 25.7071068,11.5672847 25.7071068,13.5 Z M27.7071068,13.5 C27.7071068,10.4627153 25.2443915,8 22.2071068,8 C19.169822,8 16.7071068,10.4627153 16.7071068,13.5 C16.7071068,16.5372847 19.169822,19 22.2071068,19 C25.2443915,19 27.7071068,16.5372847 27.7071068,13.5 Z M16.4142136,32.7071068 L23.7071068,25.4142136 L29.7071068,31.4142136 L45.4142136,15.7071068 L44,14.2928932 L29.7071068,28.5857864 L23.7071068,22.5857864 L15,31.2928932 L16.4142136,32.7071068 Z" id="yulan_pic_pre"></path>
                </g>
            </g>
        </g>
    </g>
</svg>