<?xml version="1.0" encoding="UTF-8"?>
<svg width="24px" height="24px" viewBox="0 0 24 24" version="1.1" xmlns="http://www.w3.org/2000/svg" xmlns:xlink="http://www.w3.org/1999/xlink">
    <!-- Generator: Sketch 52.1 (67048) - http://www.bohemiancoding.com/sketch -->
    <title>yulan_bar_music_pre</title>
    <desc>Created with Sketch.</desc>
    <g id="Page-1" stroke="none" stroke-width="1" fill="none" fill-rule="evenodd">
        <g id="预览-音乐" transform="translate(-129.000000, -624.000000)" fill="#FD6258" fill-rule="nonzero">
            <g id="Group-5" transform="translate(0.000000, 618.000000)">
                <g id="Group" transform="translate(129.000000, 6.000000)">
                    <path d="M14.85,0.413224845 L14.85,8.35142759 C14.0322966,7.60513827 12.9443008,7.15 11.75,7.15 C9.20948644,7.15 7.15,9.20948644 7.15,11.75 C7.15,14.2905136 9.20948644,16.35 11.75,16.35 C14.2905136,16.35 16.35,14.2905136 16.35,11.75 C16.35,11.563878 16.3389462,11.3803378 16.3174593,11.2 L16.35,11.2 L16.35,0.934510817 C20.5532729,2.72443144 23.5,6.89298828 23.5,11.75 C23.5,18.2395136 18.2395136,23.5 11.75,23.5 C5.26048644,23.5 0,18.2395136 0,11.75 C0,5.26048644 5.26048644,0 11.75,0 C12.8230082,0 13.8624161,0.143816159 14.85,0.413224845 Z M14.85,11.75 C14.85,13.4620864 13.4620864,14.85 11.75,14.85 C10.0379136,14.85 8.65,13.4620864 8.65,11.75 C8.65,10.0379136 10.0379136,8.65 11.75,8.65 C13.4620864,8.65 14.85,10.0379136 14.85,11.75 Z" id="yulan_bar_music_pre"></path>
                </g>
            </g>
        </g>
    </g>
</svg>