<?xml version="1.0" encoding="UTF-8"?>
<svg width="60px" height="60px" viewBox="0 0 60 60" version="1.1" xmlns="http://www.w3.org/2000/svg" xmlns:xlink="http://www.w3.org/1999/xlink">
    <!-- Generator: Sketch 52.1 (67048) - http://www.bohemiancoding.com/sketch -->
    <title>details_share_pengyouquan</title>
    <desc>Created with Sketch.</desc>
    <g id="Page-1" stroke="none" stroke-width="1" fill="none" fill-rule="evenodd">
        <g id="查看别人文章分享" transform="translate(-158.000000, -500.000000)">
            <g id="Group-11" transform="translate(0.000000, 467.000000)">
                <g id="Group-9" transform="translate(158.000000, 33.000000)">
                    <circle id="Oval-Copy-4" fill="#F2F2F2" fill-rule="nonzero" cx="30" cy="30" r="30"></circle>
                    <g id="朋友圈" transform="translate(16.000000, 16.000000)">
                        <path d="M18.661867,0.752707838 C18.661867,0.752707838 16.8042898,0.000698337292 13.9985036,0.000698337292 C11.1928504,0.000698337292 9.33527316,0.86208076 9.33527316,0.86208076 L18.6646936,10.3544466 L18.661867,0.752707838 Z" id="Path" fill="#FB5453"></path>
                        <path d="M23.9497102,4.1832399 C21.8903468,2.23032304 19.8993539,1.53457957 19.8993539,1.53457957 L19.8308504,14.5726033 L26.8278907,7.94398575 C26.8278907,7.94681235 26.012,6.13615677 23.9497435,4.18327316 L23.9497102,4.1832399 Z" id="Path" fill="#6468F1"></path>
                        <path d="M27.1186983,9.204019 L17.4985036,18.4073397 L27.2308979,18.4073397 C27.2308979,18.4073397 27.9940808,16.5744038 27.9940808,13.8043325 C27.9911876,11.0370879 27.1186983,9.204019 27.1186983,9.204019 Z" id="Path" fill="#5283F0"></path>
                        <path d="M20.1393824,26.4602328 C20.1393824,26.4602328 22.0286508,25.7006413 24.0644703,23.7798812 C26.1003895,21.8592209 26.8278907,20.0059335 26.8278907,20.0059335 L13.2225511,19.9412209 L20.1393824,26.4602328 Z" id="Path" fill="#00B2FE"></path>
                        <path d="M9.33796675,27.2422375 C9.33796675,27.2422375 11.195677,27.994114 14.0013302,27.994114 C16.80981,27.994114 18.6646936,27.1327648 18.6646936,27.1327648 L9.33530641,17.6403658 L9.33796675,27.2422375 Z" id="Path" fill="#66D020"></path>
                        <path d="M4.43889786,23.8115392 C6.49846081,25.7646223 8.48945368,26.4602328 8.48945368,26.4602328 L8.55785748,13.422209 L1.5608171,20.0507601 C1.56361045,20.0480998 2.37950119,21.8586223 4.43889786,23.8115392 Z" id="Path" fill="#9AD122"></path>
                        <path d="M0.769301663,9.204019 C0.769301663,9.204019 0.0059192399,11.0365558 0.0059192399,13.8056627 C0.0059192399,16.5749359 0.87864133,18.4073397 0.87864133,18.4073397 L10.5014632,9.20684561 L0.769301663,9.20684561 L0.769301663,9.204019 Z" id="Path" fill="#FFC71A"></path>
                        <path d="M8.24935867,1.53457957 C8.24935867,1.53457957 6.36005701,2.29420428 4.32423753,4.21486461 C2.28835154,6.13555819 1.5608171,7.98901188 1.5608171,7.98901188 L15.1661568,8.05359145 L8.24935867,1.53457957 Z" id="Path" fill="#FF7612"></path>
                    </g>
                </g>
            </g>
        </g>
    </g>
</svg>