<?xml version="1.0" encoding="UTF-8"?>
<svg width="21px" height="22px" viewBox="0 0 21 22" version="1.1" xmlns="http://www.w3.org/2000/svg" xmlns:xlink="http://www.w3.org/1999/xlink">
    <!-- Generator: Sketch 52.1 (67048) - http://www.bohemiancoding.com/sketch -->
    <title>my_set</title>
    <desc>Created with Sketch.</desc>
    <g id="Page-1" stroke="none" stroke-width="1" fill="none" fill-rule="evenodd">
        <g id="我的" transform="translate(-16.000000, -31.000000)" fill="#666666" fill-rule="nonzero">
            <g id="Group" transform="translate(15.687500, 31.000000)">
                <path d="M14.8999662,18.6208398 C14.1949303,19.0276662 13.6857735,19.6739278 13.4478918,20.4366326 C13.2393252,21.1070894 12.6740676,21.6015957 11.9774204,21.6985505 C11.4877694,21.7658434 10.9949957,21.8 10.5,21.8 C10.0050043,21.8 9.51223065,21.7658434 9.02122269,21.6983629 C8.32593238,21.6015957 7.76067482,21.1070894 7.55228392,20.4371969 C7.31422647,19.6739278 6.80506968,19.0276662 6.10003375,18.6208398 C5.39675167,18.2148454 4.5848552,18.0963242 3.80671877,18.2700219 C3.12455261,18.421316 2.41737942,18.179329 1.98656052,17.6284897 C1.37560945,16.8464069 0.875125309,15.9865311 0.50091648,15.0705493 C0.234970846,14.4195645 0.378804488,13.6800638 0.854944691,13.1636489 C1.3956071,12.5763847 1.7,11.813053 1.7,11 C1.7,10.186492 1.39563713,9.42323552 0.854876987,8.83627758 C0.378755262,8.31898744 0.235029684,7.57979149 0.50091773,6.92894769 C0.875125309,6.01296891 1.37560945,5.15309312 1.98684467,4.37064681 C2.41761684,3.81986743 3.12530309,3.57795556 3.80739506,3.73012837 C4.58481718,3.90325524 5.39682257,3.78461369 6.10016683,3.37858338 C6.80506968,2.97183381 7.31422647,2.32557225 7.5521983,1.56257781 C7.76098858,0.892298299 8.32669065,0.397403147 9.02171073,0.301569362 C9.50903722,0.234051502 10.0022435,0.2 10.5,0.2 C10.9977565,0.2 11.4909628,0.234051502 11.9777754,0.301498331 C12.6733094,0.397403147 13.2390114,0.892298299 13.4477161,1.56230315 C13.6857735,2.32557225 14.1949303,2.97183381 14.8999662,3.37866019 C15.6031774,3.78461369 16.4151828,3.90325524 17.1923047,3.73019528 C17.8746969,3.57795556 18.5823832,3.81986743 19.0134395,4.37101034 C19.6243906,5.15309312 20.1248747,6.01296891 20.4990835,6.92895075 C20.7649703,7.57979149 20.6212447,8.31898744 20.1448656,8.83655713 C19.6043629,9.42323552 19.3,10.186492 19.3,11 C19.3,11.813053 19.6043929,12.5763847 20.1446553,13.1632147 C20.6211955,13.6800638 20.7650292,14.4195645 20.4990823,15.0705523 C20.1248747,15.9865311 19.6243906,16.8464069 19.0131553,17.6288532 C18.5826206,18.179329 17.8754474,18.421316 17.1922105,18.2697837 C16.4151448,18.0963242 15.6032483,18.2148454 14.8999662,18.6208398 Z M17.5397188,16.7079781 C17.6287103,16.727715 17.7078949,16.7006189 17.7525605,16.6435103 C18.2735002,15.9766517 18.6996622,15.2444679 19.0179165,14.4654507 C19.0458157,14.3971587 19.029707,14.314338 18.9679447,14.2473511 C18.1581458,13.3677527 17.7,12.2188518 17.7,11 C17.7,9.78060321 18.158197,8.63157401 18.967877,7.75272242 C19.0296943,7.68556001 19.0458558,7.6024395 19.0179177,7.53405231 C18.6996622,6.75503208 18.2735002,6.02284827 17.7528447,5.35635319 C17.7079809,5.29899099 17.6291976,5.2720601 17.5403951,5.29187163 C16.3757503,5.55123048 15.1538662,5.37270183 14.1001668,4.76441662 C13.043198,4.15451467 12.2767844,3.18172267 11.9201983,2.03842219 C11.8930227,1.95118027 11.8302914,1.89630082 11.7587107,1.88643064 C11.344092,1.82898625 10.9242514,1.8 10.5,1.8 C10.0757486,1.8 9.65590804,1.82898625 9.24077536,1.88650167 C9.16970862,1.89630082 9.10697732,1.95118027 9.07971608,2.03869685 C8.7232156,3.18172267 7.956802,4.15451467 6.89996625,4.76433981 C5.84613377,5.37270183 4.62424969,5.55123048 3.45930472,5.29180472 C3.3708024,5.2720601 3.2920191,5.29899099 3.24743948,5.35598966 C2.72649975,6.02284827 2.30033776,6.75503208 1.98208352,7.53404925 C1.95414417,7.6024395 1.97030571,7.68556001 2.03186559,7.75244287 C2.84180299,8.63157401 3.3,9.78060321 3.3,11 C3.3,12.2188518 2.84185418,13.3677527 2.0316553,14.2477853 C1.97029303,14.314338 1.95418431,14.3971587 1.98208227,14.4654477 C2.30033776,15.2444679 2.72649975,15.9766517 3.24715533,16.6431468 C3.29210506,16.7006189 3.37128967,16.727715 3.45921053,16.7082163 C4.623795,16.4482534 5.84588589,16.6266551 6.89983317,17.2350834 C7.956802,17.8449853 8.7232156,18.8177773 9.07989185,19.9613674 C9.10707194,20.0487403 9.1698037,20.1036202 9.24042035,20.1134495 C9.65836085,20.1708871 10.0783692,20.2 10.5,20.2 C10.9216308,20.2 11.3416392,20.1708871 11.7582227,20.1136371 C11.8301963,20.1036202 11.8929281,20.0487403 11.9202839,19.9608031 C12.2767769,18.8178013 13.0431658,17.8450262 14.1001003,17.2351218 C15.1541655,16.6266476 16.3762295,16.4482589 17.5397188,16.7079781 Z M13.2,11 C13.2,9.5088278 11.9911722,8.3 10.5,8.3 C9.0088278,8.3 7.8,9.5088278 7.8,11 C7.8,12.4911722 9.0088278,13.7 10.5,13.7 C11.9911722,13.7 13.2,12.4911722 13.2,11 Z M14.8,11 C14.8,13.3748278 12.8748278,15.3 10.5,15.3 C8.1251722,15.3 6.2,13.3748278 6.2,11 C6.2,8.6251722 8.1251722,6.7 10.5,6.7 C12.8748278,6.7 14.8,8.6251722 14.8,11 Z" id="my_set"></path>
            </g>
        </g>
    </g>
</svg>