<?xml version="1.0" encoding="UTF-8"?>
<svg width="76px" height="75px" viewBox="0 0 76 75" version="1.1" xmlns="http://www.w3.org/2000/svg" xmlns:xlink="http://www.w3.org/1999/xlink">
    <!-- Generator: Sketch 52.1 (67048) - http://www.bohemiancoding.com/sketch -->
    <title>tuwen_list_music</title>
    <desc>Created with Sketch.</desc>
    <g id="Page-1" stroke="none" stroke-width="1" fill="none" fill-rule="evenodd">
        <g id="图文编辑详情" transform="translate(-14.000000, -686.000000)" fill-rule="nonzero">
            <g id="Group-3-Copy-3" transform="translate(-0.312500, 671.000000)">
                <g id="tuwen_list_music" transform="translate(15.000000, 15.000000)">
                    <rect id="Rectangle" fill="#D8D8D8" x="0" y="0" width="75" height="75" rx="4"></rect>
                    <path d="M51,29.75 C51,28.9607486 50.4014265,28.5 49.25,28.5 L34.25,28.5 C33.0985735,28.5 32.5,28.9607486 32.5,29.75 L32.5,48.25 L32.4859524,48.25 C32.2268034,52.849725 28.4145443,56.5 23.75,56.5 C18.9176441,56.5 15,52.5823559 15,47.75 C15,42.9176441 18.9176441,39 23.75,39 C26.1983173,39 28.4118325,40.00564 30,41.6263743 L30,22.25 C30,19.9026441 31.9026441,18 34.25,18 L49.25,18 C51.5973559,18 53.5,19.9026441 53.5,22.25 L53.5,48.25 L53.4859524,48.25 C53.2268034,52.849725 49.4145443,56.5 44.75,56.5 C39.9176441,56.5 36,52.5823559 36,47.75 C36,42.9176441 39.9176441,39 44.75,39 C47.1983173,39 49.4118325,40.00564 51,41.6263743 L51,29.75 Z M51,26.2811758 L51,22.25 C51,21.2833559 50.2166441,20.5 49.25,20.5 L34.25,20.5 C33.2833559,20.5 32.5,21.2833559 32.5,22.25 L32.5,26.2811758 C33.0292657,26.0966874 33.6201451,26 34.25,26 L49.25,26 C49.8798549,26 50.4707343,26.0966874 51,26.2811758 Z M30,47.75 C30,44.2983559 27.2016441,41.5 23.75,41.5 C20.2983559,41.5 17.5,44.2983559 17.5,47.75 C17.5,51.2016441 20.2983559,54 23.75,54 C27.2016441,54 30,51.2016441 30,47.75 Z M51,47.75 C51,44.2983559 48.2016441,41.5 44.75,41.5 C41.2983559,41.5 38.5,44.2983559 38.5,47.75 C38.5,51.2016441 41.2983559,54 44.75,54 C48.2016441,54 51,51.2016441 51,47.75 Z" fill="#FFFFFF"></path>
                </g>
            </g>
        </g>
    </g>
</svg>