<?xml version="1.0" encoding="UTF-8"?>
<svg width="24px" height="23px" viewBox="0 0 24 23" version="1.1" xmlns="http://www.w3.org/2000/svg" xmlns:xlink="http://www.w3.org/1999/xlink">
    <!-- Generator: Sketch 52.1 (67048) - http://www.bohemiancoding.com/sketch -->
    <title>tuwen_tupian</title>
    <desc>Created with Sketch.</desc>
    <g id="Page-1" stroke="none" stroke-width="1" fill="none" fill-rule="evenodd">
        <g id="图文编辑" transform="translate(-85.000000, -204.000000)" fill="#333333" fill-rule="nonzero">
            <g id="Group-4" transform="translate(68.000000, 203.000000)">
                <g id="Group" transform="translate(18.000000, 2.000000)">
                    <path d="M21.2666667,17.6 L21.2666667,3.3 C21.2666667,1.88230882 20.1176912,0.733333333 18.7,0.733333333 L3.3,0.733333333 C1.88230882,0.733333333 0.733333333,1.88230882 0.733333333,3.3 L0.733333333,17.6 C0.733333333,19.0176912 1.88230882,20.1666667 3.3,20.1666667 L18.7,20.1666667 C20.1176912,20.1666667 21.2666667,19.0176912 21.2666667,17.6 Z M22.7333333,17.6 C22.7333333,19.8277088 20.9277088,21.6333333 18.7,21.6333333 L3.3,21.6333333 C1.07229118,21.6333333 -0.733333333,19.8277088 -0.733333333,17.6 L-0.733333333,3.3 C-0.733333333,1.07229118 1.07229118,-0.733333333 3.3,-0.733333333 L18.7,-0.733333333 C20.9277088,-0.733333333 22.7333333,1.07229118 22.7333333,3.3 L22.7333333,17.6 Z M8.61666667,6.325 C8.61666667,5.36325882 7.83674118,4.58333333 6.875,4.58333333 C5.91325882,4.58333333 5.13333333,5.36325882 5.13333333,6.325 C5.13333333,7.28674118 5.91325882,8.06666667 6.875,8.06666667 C7.83674118,8.06666667 8.61666667,7.28674118 8.61666667,6.325 Z M10.0833333,6.325 C10.0833333,8.09675882 8.64675882,9.53333333 6.875,9.53333333 C5.10324118,9.53333333 3.66666667,8.09675882 3.66666667,6.325 C3.66666667,4.55324118 5.10324118,3.11666667 6.875,3.11666667 C8.64675882,3.11666667 10.0833333,4.55324118 10.0833333,6.325 Z M7.7,13.1370899 L3.81854497,17.018545 L2.78145503,15.981455 L7.7,11.0629101 L11,14.3629101 L18.731455,6.63145503 L19.768545,7.66854497 L11,16.4370899 L7.7,13.1370899 Z" id="tuwen_tupian"></path>
                </g>
            </g>
        </g>
    </g>
</svg>