<?xml version="1.0" encoding="UTF-8"?>
<svg width="26px" height="26px" viewBox="0 0 26 26" version="1.1" xmlns="http://www.w3.org/2000/svg" xmlns:xlink="http://www.w3.org/1999/xlink">
    <!-- Generator: Sketch 52.1 (67048) - http://www.bohemiancoding.com/sketch -->
    <title>tuwen_shipin</title>
    <desc>Created with Sketch.</desc>
    <g id="Page-1" stroke="none" stroke-width="1" fill="none" fill-rule="evenodd">
        <g id="图文编辑" transform="translate(-205.000000, -202.000000)" fill="#333333" fill-rule="nonzero">
            <g id="Group-4" transform="translate(68.000000, 203.000000)">
                <g id="Group-3" transform="translate(138.000000, 0.000000)">
                    <path d="M9.8,8.28117228 L9.8,15.7187723 C9.8,15.9765443 9.85465558,16.015561 9.90025171,15.9861382 L15.549999,12.2637162 C15.7169679,12.1556774 15.7236897,11.8298047 15.576888,11.7348052 L9.89003726,8.01754078 C9.8432406,7.98790789 9.8,8.0206295 9.8,8.28117228 Z M10.760001,6.67471616 L16.449201,10.3935162 C17.5822465,11.1266633 17.5461249,12.8778424 16.4247483,13.6034063 L10.7745587,17.3261144 C9.55672754,18.1129857 8.2,17.1444652 8.2,15.7187723 L8.2,8.28117228 C8.2,6.85603282 9.54018961,5.88542642 10.760001,6.67471616 Z M23.2,12 C23.2,5.8142278 18.1857722,0.8 12,0.8 C5.8142278,0.8 0.8,5.8142278 0.8,12 C0.8,18.1857722 5.8142278,23.2 12,23.2 C18.1857722,23.2 23.2,18.1857722 23.2,12 Z M24.8,12 C24.8,19.0694278 19.0694278,24.8 12,24.8 C4.9305722,24.8 -0.8,19.0694278 -0.8,12 C-0.8,4.9305722 4.9305722,-0.8 12,-0.8 C19.0694278,-0.8 24.8,4.9305722 24.8,12 Z" id="Combined-Shape"></path>
                </g>
            </g>
        </g>
    </g>
</svg>