<?xml version="1.0" encoding="UTF-8"?>
<svg width="24px" height="24px" viewBox="0 0 24 24" version="1.1" xmlns="http://www.w3.org/2000/svg" xmlns:xlink="http://www.w3.org/1999/xlink">
    <!-- Generator: Sketch 52.1 (67048) - http://www.bohemiancoding.com/sketch -->
    <title>tuwen_yinpin</title>
    <desc>Created with Sketch.</desc>
    <g id="Page-1" stroke="none" stroke-width="1" fill="none" fill-rule="evenodd">
        <g id="图文编辑" transform="translate(-265.000000, -203.000000)" fill="#333333" fill-rule="nonzero">
            <g id="Group-4" transform="translate(68.000000, 203.000000)">
                <g id="Group" transform="translate(197.000000, 0.000000)">
                    <path d="M22.2666667,7.41666667 C22.2666667,6.91546634 21.8857037,6.62222222 21.1666667,6.62222222 L12,6.62222222 C11.280963,6.62222222 10.9,6.91546634 10.9,7.41666667 L10.9,18.7222222 L10.8913657,18.7222222 C10.7330357,21.51628 8.41700856,23.7333333 5.58333333,23.7333333 C2.64710229,23.7333333 0.266666667,21.3528977 0.266666667,18.4166667 C0.266666667,15.4804356 2.64710229,13.1 5.58333333,13.1 C7.0980895,13.1 8.46492803,13.7335216 9.43333333,14.7500493 L9.43333333,2.83333333 C9.43333333,1.41571341 10.5823801,0.266666667 12,0.266666667 L21.1666667,0.266666667 C22.5842866,0.266666667 23.7333333,1.41571341 23.7333333,2.83333333 L23.7333333,18.7222222 L23.7246991,18.7222222 C23.566369,21.51628 21.2503419,23.7333333 18.4166667,23.7333333 C15.4804356,23.7333333 13.1,21.3528977 13.1,18.4166667 C13.1,15.4804356 15.4804356,13.1 18.4166667,13.1 C19.9314228,13.1 21.2982614,13.7335216 22.2666667,14.7500493 L22.2666667,7.41666667 Z M22.2666667,5.34018045 L22.2666667,2.83333333 C22.2666667,2.22573104 21.774269,1.73333333 21.1666667,1.73333333 L12,1.73333333 C11.3923977,1.73333333 10.9,2.22573104 10.9,2.83333333 L10.9,5.34018045 C11.2304032,5.21912873 11.6022211,5.15555556 12,5.15555556 L21.1666667,5.15555556 C21.5644456,5.15555556 21.9362635,5.21912873 22.2666667,5.34018045 Z M9.43333333,18.4166667 C9.43333333,16.2904533 7.70954674,14.5666667 5.58333333,14.5666667 C3.45711993,14.5666667 1.73333333,16.2904533 1.73333333,18.4166667 C1.73333333,20.5428801 3.45711993,22.2666667 5.58333333,22.2666667 C7.70954674,22.2666667 9.43333333,20.5428801 9.43333333,18.4166667 Z M22.2666667,18.4166667 C22.2666667,16.2904533 20.5428801,14.5666667 18.4166667,14.5666667 C16.2904533,14.5666667 14.5666667,16.2904533 14.5666667,18.4166667 C14.5666667,20.5428801 16.2904533,22.2666667 18.4166667,22.2666667 C20.5428801,22.2666667 22.2666667,20.5428801 22.2666667,18.4166667 Z" id="Combined-Shape"></path>
                </g>
            </g>
        </g>
    </g>
</svg>