<?xml version="1.0" encoding="UTF-8"?>
<svg width="375px" height="210px" viewBox="0 0 375 210" version="1.1" xmlns="http://www.w3.org/2000/svg" xmlns:xlink="http://www.w3.org/1999/xlink">
    <!-- Generator: Sketch 52.1 (67048) - http://www.bohemiancoding.com/sketch -->
    <title>chunfen</title>
    <desc>Created with Sketch.</desc>
    <defs>
        <linearGradient x1="50%" y1="0%" x2="50%" y2="100%" id="linearGradient-1">
            <stop stop-color="#E9F4F0" offset="0%"></stop>
            <stop stop-color="#B6E0ED" offset="40%"></stop>
            <stop stop-color="#00B5E4" offset="86%"></stop>
        </linearGradient>
        <path d="M418.980646,49.0973823 C410.274655,53.1875968 407.785536,69.5366672 402.813223,84.9781108 C397.840911,100.419554 387.26808,124.949054 360.53968,134.485029 C333.811279,144.021005 336.887119,127.766233 315.125104,109.142202 C293.363089,90.5181707 274.119826,85.4319242 253.602371,100.425448 C233.084915,115.418972 215.566256,130.406602 193.253079,135.675553 C169.944254,141.174357 143.867766,131.349591 118.976572,112.884689 C99.4666173,98.4392777 81.6160756,90.087932 62.3965182,117.888424 C44.7000648,143.472892 44.0837115,142.641883 44.0837115,142.641883 L36,161.289489 L104.391518,179 L420,167.713601 L420,49.1916812 C419.703733,48.9756291 419.311902,48.9393813 418.980646,49.0973823 Z" id="path-2"></path>
        <filter x="-2.6%" y="-9.2%" width="105.7%" height="116.9%" filterUnits="objectBoundingBox" id="filter-3">
            <feOffset dx="1" dy="-1" in="SourceAlpha" result="shadowOffsetOuter1"></feOffset>
            <feGaussianBlur stdDeviation="3.5" in="shadowOffsetOuter1" result="shadowBlurOuter1"></feGaussianBlur>
            <feColorMatrix values="0 0 0 0 0.108079489   0 0 0 0 0.573820183   0 0 0 0 0.68274341  0 0 0 0.558084239 0" type="matrix" in="shadowBlurOuter1"></feColorMatrix>
        </filter>
        <path d="M432,181 L418.716458,144.654477 C418.716458,144.654477 409.906188,113.89374 397.795769,100.455906 C384.648499,85.8572884 369.729695,88.0485616 359.094567,97.8323001 C348.459438,107.616039 338.387172,135.24977 314.924716,136.067056 C298.222529,136.659292 289.406333,130.340134 275.370334,122.445628 C261.334335,114.551122 248.341111,118.554637 235.792252,131.068584 C223.788481,143.025828 201.522847,164.18642 185.140603,160.443489 C184.008954,162.670296 190.117487,168.876929 188.879191,171.103737 C186.74624,174.894047 208.188318,164.364091 205.468806,167.947119 L381.603119,170.073246 L432,181 Z" id="path-4"></path>
        <filter x="-7.1%" y="-21.4%" width="115.0%" height="140.7%" filterUnits="objectBoundingBox" id="filter-5">
            <feOffset dx="1" dy="-1" in="SourceAlpha" result="shadowOffsetOuter1"></feOffset>
            <feGaussianBlur stdDeviation="6" in="shadowOffsetOuter1" result="shadowBlurOuter1"></feGaussianBlur>
            <feColorMatrix values="0 0 0 0 0.108079489   0 0 0 0 0.573820183   0 0 0 0 0.68274341  0 0 0 1 0" type="matrix" in="shadowBlurOuter1"></feColorMatrix>
        </filter>
        <path d="M185.121778,157.460211 L195,151.033382 C195,151.033382 168.729527,128.857551 154.897635,119.374857 C139.874878,109.077662 122.821697,110.62343 110.668923,117.52588 C98.5161501,124.42833 87.048124,143.922847 60.2119902,144.499538 C56.4705374,144.594404 52.7267354,144.469337 49,144.124986 L49,162.620699 L131.657912,164 L185.121778,157.460211 Z" id="path-6"></path>
        <filter x="-12.0%" y="-37.5%" width="125.3%" height="171.2%" filterUnits="objectBoundingBox" id="filter-7">
            <feOffset dx="1" dy="-1" in="SourceAlpha" result="shadowOffsetOuter1"></feOffset>
            <feGaussianBlur stdDeviation="6" in="shadowOffsetOuter1" result="shadowBlurOuter1"></feGaussianBlur>
            <feColorMatrix values="0 0 0 0 0.108079489   0 0 0 0 0.573820183   0 0 0 0 0.68274341  0 0 0 1 0" type="matrix" in="shadowBlurOuter1"></feColorMatrix>
        </filter>
        <filter x="-5.8%" y="-58.3%" width="111.6%" height="216.7%" filterUnits="objectBoundingBox" id="filter-8">
            <feOffset dx="0" dy="-7" in="SourceAlpha" result="shadowOffsetOuter1"></feOffset>
            <feGaussianBlur stdDeviation="4.5" in="shadowOffsetOuter1" result="shadowBlurOuter1"></feGaussianBlur>
            <feColorMatrix values="0 0 0 0 0.26840682   0 0 0 0 0.614609906   0 0 0 0 0.591217806  0 0 0 0.444746377 0" type="matrix" in="shadowBlurOuter1" result="shadowMatrixOuter1"></feColorMatrix>
            <feMerge>
                <feMergeNode in="shadowMatrixOuter1"></feMergeNode>
                <feMergeNode in="SourceGraphic"></feMergeNode>
            </feMerge>
        </filter>
        <filter x="-1.5%" y="-3.9%" width="103.1%" height="108.3%" filterUnits="objectBoundingBox" id="filter-9">
            <feOffset dx="-2" dy="-3" in="SourceAlpha" result="shadowOffsetOuter1"></feOffset>
            <feGaussianBlur stdDeviation="2" in="shadowOffsetOuter1" result="shadowBlurOuter1"></feGaussianBlur>
            <feColorMatrix values="0 0 0 0 0.555961991   0 0 0 0 0.784476048   0 0 0 0 0.808115434  0 0 0 0.688519022 0" type="matrix" in="shadowBlurOuter1" result="shadowMatrixOuter1"></feColorMatrix>
            <feMerge>
                <feMergeNode in="shadowMatrixOuter1"></feMergeNode>
                <feMergeNode in="SourceGraphic"></feMergeNode>
            </feMerge>
        </filter>
        <filter x="-3.3%" y="-5.3%" width="106.5%" height="110.7%" filterUnits="objectBoundingBox" id="filter-10">
            <feOffset dx="-2" dy="-3" in="SourceAlpha" result="shadowOffsetOuter1"></feOffset>
            <feGaussianBlur stdDeviation="2" in="shadowOffsetOuter1" result="shadowBlurOuter1"></feGaussianBlur>
            <feColorMatrix values="0 0 0 0 0.555961991   0 0 0 0 0.784476048   0 0 0 0 0.808115434  0 0 0 0.688519022 0" type="matrix" in="shadowBlurOuter1" result="shadowMatrixOuter1"></feColorMatrix>
            <feMerge>
                <feMergeNode in="shadowMatrixOuter1"></feMergeNode>
                <feMergeNode in="SourceGraphic"></feMergeNode>
            </feMerge>
        </filter>
        <linearGradient x1="0.00342178331%" y1="49.9960639%" x2="99.9924892%" y2="49.9960639%" id="linearGradient-11">
            <stop stop-color="#F4B6D1" offset="5%"></stop>
            <stop stop-color="#E95B8D" offset="99%"></stop>
        </linearGradient>
        <linearGradient x1="-0.0154144205%" y1="50.0693445%" x2="99.9845516%" y2="50.0693445%" id="linearGradient-12">
            <stop stop-color="#F8CDE0" offset="5%"></stop>
            <stop stop-color="#FFFFFF" offset="99%"></stop>
        </linearGradient>
        <linearGradient x1="0.00487601188%" y1="50.0456551%" x2="100%" y2="50.0456551%" id="linearGradient-13">
            <stop stop-color="#F4B6D1" offset="5%"></stop>
            <stop stop-color="#E95B8D" offset="99%"></stop>
        </linearGradient>
        <linearGradient x1="-0.00254884147%" y1="49.9967853%" x2="100.036437%" y2="49.9967853%" id="linearGradient-14">
            <stop stop-color="#F4B6D1" offset="5%"></stop>
            <stop stop-color="#E95B8D" offset="99%"></stop>
        </linearGradient>
        <linearGradient x1="0.00268176611%" y1="50.0024208%" x2="99.9959081%" y2="50.0024208%" id="linearGradient-15">
            <stop stop-color="#F8CDE0" offset="5%"></stop>
            <stop stop-color="#ED7A9C" offset="99%"></stop>
        </linearGradient>
        <linearGradient x1="-0.00237835654%" y1="50.0142963%" x2="100.003403%" y2="50.0142963%" id="linearGradient-16">
            <stop stop-color="#FBE2ED" offset="5%"></stop>
            <stop stop-color="#F3ACB8" offset="99%"></stop>
        </linearGradient>
        <linearGradient x1="0%" y1="50.1007349%" x2="100.050042%" y2="50.1007349%" id="linearGradient-17">
            <stop stop-color="#F4B6D1" offset="5%"></stop>
            <stop stop-color="#E95B8D" offset="99%"></stop>
        </linearGradient>
        <linearGradient x1="0.00289175588%" y1="50.0528554%" x2="100.002979%" y2="50.0528554%" id="linearGradient-18">
            <stop stop-color="#F8CDE0" offset="5%"></stop>
            <stop stop-color="#FFFFFF" offset="99%"></stop>
        </linearGradient>
        <linearGradient x1="0.0360478666%" y1="50.0085604%" x2="99.9922942%" y2="50.0085604%" id="linearGradient-19">
            <stop stop-color="#F4B6D1" offset="5%"></stop>
            <stop stop-color="#E95B8D" offset="99%"></stop>
        </linearGradient>
        <linearGradient x1="0%" y1="50.0073101%" x2="99.8405685%" y2="50.0073101%" id="linearGradient-20">
            <stop stop-color="#F4B6D1" offset="5%"></stop>
            <stop stop-color="#E95B8D" offset="99%"></stop>
        </linearGradient>
        <linearGradient x1="0.00991388492%" y1="49.979892%" x2="99.9895142%" y2="49.979892%" id="linearGradient-21">
            <stop stop-color="#F8CDE0" offset="5%"></stop>
            <stop stop-color="#ED7A9C" offset="99%"></stop>
        </linearGradient>
        <linearGradient x1="0.000198844918%" y1="49.9868752%" x2="99.9598309%" y2="49.9868752%" id="linearGradient-22">
            <stop stop-color="#FBE2ED" offset="5%"></stop>
            <stop stop-color="#F3ACB8" offset="99%"></stop>
        </linearGradient>
        <linearGradient x1="-0.0110948943%" y1="49.9999655%" x2="99.9937938%" y2="49.9999655%" id="linearGradient-23">
            <stop stop-color="#F8CDE0" offset="5%"></stop>
            <stop stop-color="#FFFFFF" offset="99%"></stop>
        </linearGradient>
        <linearGradient x1="-0.0384916109%" y1="50.0096512%" x2="100.002917%" y2="50.0096512%" id="linearGradient-24">
            <stop stop-color="#F4B6D1" offset="5%"></stop>
            <stop stop-color="#E95B8D" offset="99%"></stop>
        </linearGradient>
        <linearGradient x1="0.00475481217%" y1="49.9911719%" x2="100.001459%" y2="49.9911719%" id="linearGradient-25">
            <stop stop-color="#F8CDE0" offset="5%"></stop>
            <stop stop-color="#ED7A9C" offset="99%"></stop>
        </linearGradient>
        <linearGradient x1="-0.00849712142%" y1="50.0053096%" x2="100.01553%" y2="50.0053096%" id="linearGradient-26">
            <stop stop-color="#FBE2ED" offset="5%"></stop>
            <stop stop-color="#F3ACB8" offset="99%"></stop>
        </linearGradient>
        <linearGradient x1="0.00733847873%" y1="50.0324719%" x2="100.054863%" y2="50.0324719%" id="linearGradient-27">
            <stop stop-color="#F4B6D1" offset="5%"></stop>
            <stop stop-color="#E95B8D" offset="99%"></stop>
        </linearGradient>
        <linearGradient x1="0.00646807465%" y1="50.0723556%" x2="99.9960825%" y2="50.0723556%" id="linearGradient-28">
            <stop stop-color="#F8CDE0" offset="5%"></stop>
            <stop stop-color="#FFFFFF" offset="99%"></stop>
        </linearGradient>
        <linearGradient x1="0.011468411%" y1="49.9783909%" x2="99.9890071%" y2="49.9783909%" id="linearGradient-29">
            <stop stop-color="#F4B6D1" offset="5%"></stop>
            <stop stop-color="#E95B8D" offset="99%"></stop>
        </linearGradient>
        <linearGradient x1="-0.104421511%" y1="49.9980169%" x2="99.9933101%" y2="49.9980169%" id="linearGradient-30">
            <stop stop-color="#F4B6D1" offset="5%"></stop>
            <stop stop-color="#E95B8D" offset="99%"></stop>
        </linearGradient>
        <linearGradient x1="0.0360790317%" y1="49.9732804%" x2="99.9909436%" y2="49.9732804%" id="linearGradient-31">
            <stop stop-color="#F8CDE0" offset="5%"></stop>
            <stop stop-color="#ED7A9C" offset="99%"></stop>
        </linearGradient>
        <linearGradient x1="0.0252631909%" y1="49.9924156%" x2="100.00066%" y2="49.9924156%" id="linearGradient-32">
            <stop stop-color="#FBE2ED" offset="5%"></stop>
            <stop stop-color="#F3ACB8" offset="99%"></stop>
        </linearGradient>
        <linearGradient x1="-0.00618035135%" y1="50.028476%" x2="99.9860004%" y2="50.028476%" id="linearGradient-33">
            <stop stop-color="#F4B6D1" offset="5%"></stop>
            <stop stop-color="#E95B8D" offset="99%"></stop>
        </linearGradient>
        <linearGradient x1="0.0013174829%" y1="49.9940906%" x2="99.993632%" y2="49.9940906%" id="linearGradient-34">
            <stop stop-color="#F4B6D1" offset="5%"></stop>
            <stop stop-color="#E95B8D" offset="99%"></stop>
        </linearGradient>
        <linearGradient x1="0.00955652713%" y1="49.9734212%" x2="100.014694%" y2="49.9734212%" id="linearGradient-35">
            <stop stop-color="#F8CDE0" offset="5%"></stop>
            <stop stop-color="#ED7A9C" offset="99%"></stop>
        </linearGradient>
        <linearGradient x1="0.0362254898%" y1="49.9956794%" x2="100.145976%" y2="49.9956794%" id="linearGradient-36">
            <stop stop-color="#FBE2ED" offset="5%"></stop>
            <stop stop-color="#F3ACB8" offset="99%"></stop>
        </linearGradient>
        <linearGradient x1="0%" y1="49.9900754%" x2="99.9158613%" y2="49.9900754%" id="linearGradient-37">
            <stop stop-color="#F4B6D1" offset="5%"></stop>
            <stop stop-color="#E95B8D" offset="99%"></stop>
        </linearGradient>
        <linearGradient x1="-0.00796094578%" y1="50.2446881%" x2="99.9955238%" y2="50.2446881%" id="linearGradient-38">
            <stop stop-color="#F8CDE0" offset="5%"></stop>
            <stop stop-color="#FFFFFF" offset="99%"></stop>
        </linearGradient>
        <linearGradient x1="0.127146322%" y1="49.9955451%" x2="100.024584%" y2="49.9955451%" id="linearGradient-39">
            <stop stop-color="#F4B6D1" offset="5%"></stop>
            <stop stop-color="#E95B8D" offset="99%"></stop>
        </linearGradient>
        <linearGradient x1="0%" y1="50.0646157%" x2="100.092791%" y2="50.0646157%" id="linearGradient-40">
            <stop stop-color="#F4B6D1" offset="5%"></stop>
            <stop stop-color="#E95B8D" offset="99%"></stop>
        </linearGradient>
        <linearGradient x1="-0.0101189593%" y1="49.9912666%" x2="99.9952333%" y2="49.9912666%" id="linearGradient-41">
            <stop stop-color="#F8CDE0" offset="5%"></stop>
            <stop stop-color="#ED7A9C" offset="99%"></stop>
        </linearGradient>
        <linearGradient x1="0.00310397231%" y1="49.9918748%" x2="100.006817%" y2="49.9918748%" id="linearGradient-42">
            <stop stop-color="#FBE2ED" offset="5%"></stop>
            <stop stop-color="#F3ACB8" offset="99%"></stop>
        </linearGradient>
        <linearGradient x1="-0.358145975%" y1="49.9988257%" x2="100.007392%" y2="49.9988257%" id="linearGradient-43">
            <stop stop-color="#F8CDE0" offset="5%"></stop>
            <stop stop-color="#FFFFFF" offset="99%"></stop>
        </linearGradient>
        <linearGradient x1="100%" y1="50%" x2="0.00457686851%" y2="50%" id="linearGradient-44">
            <stop stop-color="#F8CDE0" offset="5%"></stop>
            <stop stop-color="#ED7A9C" offset="99%"></stop>
        </linearGradient>
        <path d="M0,62 L130,62 L130,22.4532152 C130,22.4532152 125.739851,13.5423566 118.27864,20.6626877 C118.27864,20.6626877 117.921644,12.8261456 111.53142,15.6730843 C111.53142,15.6730843 111.174424,0 99.0960685,0 C87.0177125,0 87.731704,13.1842511 87.731704,13.1842511 C87.731704,13.1842511 76.7243352,6.41008856 73.8802691,16.0311898 C73.8802691,16.0311898 67.8410911,3.56314979 53.6505103,11.399692 C39.4599295,19.2362341 44.4102705,36.3417405 44.4102705,36.3417405 C44.4102705,36.3417405 32.3378644,35.2733924 32.6889102,48.451675 C32.6770104,48.4576434 9.2342899,37.0579515 0,62 Z" id="path-45"></path>
        <filter x="-6.9%" y="-19.4%" width="112.3%" height="125.8%" filterUnits="objectBoundingBox" id="filter-46">
            <feOffset dx="-1" dy="-4" in="SourceAlpha" result="shadowOffsetOuter1"></feOffset>
            <feGaussianBlur stdDeviation="2" in="shadowOffsetOuter1" result="shadowBlurOuter1"></feGaussianBlur>
            <feColorMatrix values="0 0 0 0 0.847549957   0 0 0 0 0.509350831   0 0 0 0 0.297147457  0 0 0 0.48267663 0" type="matrix" in="shadowBlurOuter1"></feColorMatrix>
        </filter>
        <path d="M4.57452575,36.1187939 C16.2312556,20.6416483 29.2393857,30.9902306 29.2393857,30.9902306 C27.4616079,19.2909156 43.0424571,21.0496821 43.0424571,21.0496821 C43.0424571,21.0496821 35.5411021,7.31019793 48.8238482,1.30225142 C55.1111111,-1.51177504 60.2926829,0.662060404 64,3.77155965 L64,49 L0,49 C0.0756005419,44.3413865 1.67838601,39.8281733 4.57452575,36.1187939 Z" id="path-47"></path>
        <filter x="-17.2%" y="-24.5%" width="125.0%" height="132.7%" filterUnits="objectBoundingBox" id="filter-48">
            <feOffset dx="-3" dy="-4" in="SourceAlpha" result="shadowOffsetOuter1"></feOffset>
            <feGaussianBlur stdDeviation="2" in="shadowOffsetOuter1" result="shadowBlurOuter1"></feGaussianBlur>
            <feColorMatrix values="0 0 0 0 0.811862245   0 0 0 0 0.257903367   0 0 0 0 0.425136236  0 0 0 0.388643569 0" type="matrix" in="shadowBlurOuter1"></feColorMatrix>
        </filter>
        <linearGradient x1="0.0532455797%" y1="50.1247053%" x2="100.055321%" y2="50.1247053%" id="linearGradient-49">
            <stop stop-color="#F8CDE0" offset="5%"></stop>
            <stop stop-color="#FFFFFF" offset="99%"></stop>
        </linearGradient>
        <path d="M5.37661344,0.00101885171 C19.8229276,0.00101885171 18.9752366,13.1803536 18.9752366,13.1803536 C18.9752366,13.1803536 32.1470504,6.41161919 35.5733818,16.0334886 C35.5733818,16.0334886 42.7995028,3.55848422 59.8007458,11.4016209 C76.8019887,19.2447577 70.8503681,36.3456608 70.8503681,36.3456608 C70.8503681,36.3456608 85.2966823,35.2772274 84.8758007,48.4565622 C84.8758007,48.4565622 112.926666,37.0559601 124,62 L0,62 L0,0.87844739 C1.72882157,0.277073969 3.54765245,-0.0197474674 5.37661344,0.00101885171 Z" id="path-50"></path>
        <filter x="-7.3%" y="-19.4%" width="112.9%" height="125.8%" filterUnits="objectBoundingBox" id="filter-51">
            <feOffset dx="-1" dy="-4" in="SourceAlpha" result="shadowOffsetOuter1"></feOffset>
            <feGaussianBlur stdDeviation="2" in="shadowOffsetOuter1" result="shadowBlurOuter1"></feGaussianBlur>
            <feColorMatrix values="0 0 0 0 0.847549957   0 0 0 0 0.509350831   0 0 0 0 0.297147457  0 0 0 0.48267663 0" type="matrix" in="shadowBlurOuter1"></feColorMatrix>
        </filter>
        <linearGradient x1="100.000154%" y1="50.0019447%" x2="-9.60194369e-14%" y2="50.0019447%" id="linearGradient-52">
            <stop stop-color="#F8CDE0" offset="5%"></stop>
            <stop stop-color="#ED7A9C" offset="99%"></stop>
        </linearGradient>
        <path d="M181.911286,93 L2,93 L2,65.6364924 C2,65.6364924 3.59591545,47.3245268 19.7033892,43.123683 C40.9545757,37.5825146 50.8741691,52.1288067 50.8741691,52.1288067 C50.8741691,52.1288067 54.0600672,37.5825146 67.8715586,40.3501977 C81.6830499,43.1178807 79.9150841,59.0567177 79.9150841,59.0567177 C79.9150841,59.0567177 83.806982,55.5753554 88.0607789,58.0181113 C92.3145759,60.4608671 90.5406773,62.5206732 90.5406773,62.5206732 C90.5406773,62.5206732 100.389077,39.1085118 120.643558,41.3888041 C148.266541,44.5104256 143.306744,66.6750988 143.306744,66.6750988 C143.306744,66.6750988 146.55197,64.5572701 148.972541,67.7137052 C150.034507,69.1004479 150.034507,71.525797 150.034507,71.525797 C150.034507,71.525797 155.374001,70.4871905 158.536168,73.951146 C160.407207,75.9049747 161.312931,78.5602589 161.016066,81.2213909 C161.016066,81.2213909 166.325897,73.951146 174.827558,79.8404506 C183.329219,85.7297551 181.911286,93 181.911286,93 Z" id="path-53"></path>
        <filter x="-7.5%" y="-42.5%" width="116.1%" height="156.6%" filterUnits="objectBoundingBox" id="filter-54">
            <feOffset dx="1" dy="-8" in="SourceAlpha" result="shadowOffsetOuter1"></feOffset>
            <feGaussianBlur stdDeviation="3.5" in="shadowOffsetOuter1" result="shadowBlurOuter1"></feGaussianBlur>
            <feColorMatrix values="0 0 0 0 0.822571216   0 0 0 0 0.332027444   0 0 0 0 0.513151298  0 0 0 0.529325181 0" type="matrix" in="shadowBlurOuter1"></feColorMatrix>
        </filter>
        <path d="M3,104 L118,104 C118,104 112.664948,95.9159367 104.2,94.1554597 C99.1272203,93.1023423 93.8597823,93.4671715 88.9832474,95.2093907 C88.9832474,95.2093907 88.6275773,85.3707383 77.6610825,87.4786004 C77.6610825,87.4786004 83.8615979,73.5537572 68.4551546,68.8493387 C59.2551546,66.0408185 53.5940722,73.7716088 53.5940722,73.7716088 C53.5940722,73.7716088 47.9389175,66.4117551 41.2167526,71.3104738 C41.2167526,71.3104738 39.8,56.9028241 24.9389175,63.9329564 C19.6690722,66.4235309 19.9832474,73.4183359 19.9832474,73.4183359 C19.9832474,73.4183359 15.0275773,70.6098157 13.2610825,75.5320859 C13.2610825,75.5320859 7.2443299,70.9572008 3.34974227,77.9873331 L3,104 Z" id="path-55"></path>
        <filter x="-7.8%" y="-28.6%" width="113.9%" height="138.1%" filterUnits="objectBoundingBox" id="filter-56">
            <feOffset dx="-1" dy="-4" in="SourceAlpha" result="shadowOffsetOuter1"></feOffset>
            <feGaussianBlur stdDeviation="2" in="shadowOffsetOuter1" result="shadowBlurOuter1"></feGaussianBlur>
            <feColorMatrix values="0 0 0 0 0.811862245   0 0 0 0 0.257903367   0 0 0 0 0.425136236  0 0 0 0.453804348 0" type="matrix" in="shadowBlurOuter1"></feColorMatrix>
        </filter>
        <linearGradient x1="0.0242877619%" y1="49.9587314%" x2="99.958161%" y2="49.9587314%" id="linearGradient-57">
            <stop stop-color="#F8CDE0" offset="5%"></stop>
            <stop stop-color="#FFFFFF" offset="99%"></stop>
        </linearGradient>
        <linearGradient x1="-5.31970272%" y1="73.0309459%" x2="96.9813942%" y2="33.5257048%" id="linearGradient-58">
            <stop stop-color="#F8CDE0" offset="5%"></stop>
            <stop stop-color="#FFFFFF" offset="99%"></stop>
        </linearGradient>
        <linearGradient x1="-0.0300226163%" y1="49.9948386%" x2="99.9753124%" y2="49.9948386%" id="linearGradient-59">
            <stop stop-color="#F8CDE0" offset="5%"></stop>
            <stop stop-color="#FFFFFF" offset="99%"></stop>
        </linearGradient>
        <linearGradient x1="0%" y1="49.9759068%" x2="99.9872746%" y2="49.9759068%" id="linearGradient-60">
            <stop stop-color="#F8CDE0" offset="5%"></stop>
            <stop stop-color="#FFFFFF" offset="99%"></stop>
        </linearGradient>
        <linearGradient x1="0%" y1="50.0840976%" x2="100.134059%" y2="50.0840976%" id="linearGradient-61">
            <stop stop-color="#F8CDE0" offset="5%"></stop>
            <stop stop-color="#FFFFFF" offset="99%"></stop>
        </linearGradient>
    </defs>
    <g id="Page-1" stroke="none" stroke-width="1" fill="none" fill-rule="evenodd">
        <g id="查看别人文章-模板" transform="translate(0.000000, -64.000000)">
            <g id="chunfenjieqijianzhi" transform="translate(-41.000000, 64.000000)">
                <rect id="Rectangle" fill="url(#linearGradient-1)" x="41" y="0" width="377" height="185"></rect>
                <path d="M229.015222,29.0164361 C229.939628,29.4181744 230.330724,29.7567823 230.200358,30.0265208 C229.944333,30.4064582 229.800858,30.8471521 229.785561,31.3006048 C230.378129,31.1686051 231.148468,30.967736 232.072875,30.7266931 C232.955802,30.5889543 233.441708,30.7266931 233.530593,31.1973007 C232.886669,31.5990389 231.590919,31.9127774 229.643344,32.138516 C229.595011,32.1944716 229.571569,32.2667108 229.578162,32.3393851 C229.530756,32.7009495 229.459648,33.1486006 229.364837,33.6880776 C229.957405,33.5503388 230.662562,33.3724262 231.450678,33.1486006 C231.617668,33.1213213 231.78076,33.07509 231.936584,33.0108618 C232.813585,33.0108618 233.121721,33.1945136 232.837288,33.5503388 C232.560756,33.7301645 231.357842,33.9769465 229.228546,34.290685 C229.135937,34.8252674 228.972625,35.3460719 228.74264,35.8402466 C230.224061,35.5685951 231.450678,35.321813 232.42249,35.0999005 C233.163201,34.9162488 233.67281,34.8072055 233.951317,34.7612926 C235.012014,34.7153796 235.545326,34.9621617 235.545326,35.5016387 C235.456441,35.6336384 234.852021,35.7484208 233.767621,35.8402466 C232.582484,35.8804205 231.569192,35.9492899 230.804778,36.0411157 C231.021485,36.2358956 231.253263,36.4143291 231.498083,36.5748537 C231.716298,36.7488183 231.948092,36.9061577 232.191388,37.0454613 C234.364139,38.9585004 236.424302,40.1063239 238.371877,40.4889317 C238.786675,40.5807576 239,40.6898008 239,40.8275396 C239,40.9652784 238.721493,41.0513652 238.300769,41.0972781 C236.523064,41.2751907 235.551252,41.2751907 235.337927,41.0972781 C234.407942,40.3192296 233.52736,39.4874542 232.700997,38.6065012 C232.286199,38.15885 231.98399,37.8202421 231.800293,37.5964165 C231.24907,37.0733837 230.66951,36.5791213 230.064068,36.1157243 C229.554459,36.2534631 229.181141,36.345289 228.950039,36.3854628 C228.718937,36.4256366 228.487836,36.5002451 228.535241,36.4543322 L228.606349,36.3854628 C228.226566,37.2843009 227.711362,38.1236751 227.077523,38.8762397 C227.299463,38.9699016 227.53224,39.0373433 227.770828,39.0771088 C228.882206,38.9755535 229.97779,38.7502404 231.03588,38.4056321 C232.102503,38.6753706 232.677295,39.1459782 232.772106,39.8174549 C232.504301,40.4334761 232.432096,41.1128123 232.564707,41.7687548 C232.555759,41.9943852 232.577677,42.2201702 232.629889,42.4402316 C232.7247,43.7372721 232.398787,44.5924006 231.658077,44.9941388 C231.521786,45.0400517 231.361793,44.8162261 231.172171,44.322662 C231.052135,43.9246353 230.889273,43.5399177 230.686265,43.1748386 C229.732161,43.1897187 228.780899,43.2799305 227.841936,43.4445771 C227.794531,44.1619668 227.676017,44.5407485 227.492321,44.5924006 C227.308624,44.6440526 227.124928,44.368575 226.935306,43.783185 C226.889805,43.5615286 226.889805,43.3333647 226.935306,43.1117083 C227.054398,42.5811247 227.125774,42.0415407 227.148631,41.4990163 C227.158671,40.7726225 227.064948,40.0483733 226.870124,39.3468473 L226.870124,39.1459782 C225.716412,40.3525242 224.352453,41.3529995 222.840658,42.1016236 C222.331049,42.3713622 222.052542,42.463188 222.005137,42.3713622 C221.957731,42.2795363 222.242164,42.0614498 222.704368,41.6998854 C225.110195,40.0852804 226.753585,38.3807626 227.634537,36.5863319 C226.336812,36.8560704 225.365,37.0397222 224.713175,37.1258089 C223.930984,37.0397222 223.67618,36.8331139 223.954687,36.5518972 L224.440593,36.5518972 C224.855391,36.5059842 225.989172,36.349115 227.841936,36.0812896 C228.046157,35.6253255 228.208747,35.1529124 228.327842,34.6694667 C228.327842,34.7096405 228.327842,34.6694667 228.39895,34.4628585 C228.101035,34.5483421 227.798335,34.6173232 227.492321,34.6694667 C227.217346,34.7096658 226.937699,34.7096658 226.662725,34.6694667 C226.392883,34.6719289 226.127843,34.600293 225.898311,34.4628585 C225.756095,34.3767717 225.803501,34.3079023 226.034602,34.2619894 C226.875703,34.2130474 227.711695,34.1017655 228.535241,33.9291206 C228.665653,33.3986785 228.735207,32.8559144 228.74264,32.3106895 C228.149632,32.4423729 227.543674,32.511644 226.935306,32.5172977 C226.583536,32.5410489 226.230492,32.4941558 225.898311,32.3795589 C225.756095,32.2934721 225.898311,32.1786898 226.242001,32.0466901 C226.585691,31.9146904 226.727907,31.9778207 226.591617,31.9778207 C227.69972,31.799908 228.44043,31.6621692 228.813748,31.5760825 C228.908559,30.5889543 228.813748,29.9576514 228.535241,29.6879129 C228.256734,29.4181744 228.233031,29.2861747 228.327842,29.154175 C228.422653,29.0221753 228.606349,28.9705232 229.015222,29.0164361 Z M227.764902,39.4386732 L227.764902,41.0571043 L228.357471,40.9193655 C229.050776,40.7414528 229.542607,40.6266705 229.750006,40.5864967 C230.395906,40.6725834 230.674413,40.8504961 230.579602,41.1202346 C230.490717,41.2579734 230.117399,41.3670166 229.471499,41.4588425 C228.892096,41.5078013 228.308603,41.4846564 227.735274,41.3899731 L227.735274,43.0026651 L230.372203,42.6697963 C230.55598,42.7164424 230.723666,42.809529 230.858109,42.9395348 C230.986095,43.0094643 231.127039,43.0543164 231.272907,43.0715345 C231.462529,42.9395348 231.527712,42.2221451 231.486232,40.9193655 C231.391421,39.8920635 231.25513,39.3066735 231.065508,39.1689347 C230.112143,39.1163456 229.155781,39.1858144 228.22118,39.3755429 C228.075528,39.4106211 227.926672,39.431766 227.776753,39.4386732 L227.764902,39.4386732 Z" id="Shape" fill="#EB6778" fill-rule="nonzero"></path>
                <path d="M231.563226,45.9998839 C231.371497,45.9998839 231.208817,45.7654735 230.982228,45.2125052 C230.86966,44.8299122 230.725828,44.4579214 230.55229,44.1005581 C229.67693,44.1304936 228.803975,44.2127748 227.937799,44.3469896 C227.885509,45.1283578 227.75188,45.5070209 227.513671,45.5490946 C227.275461,45.5911682 227.043062,45.3267051 226.828093,44.6174632 C226.765032,44.3712731 226.765032,44.1123376 226.828093,43.8661476 C226.937875,43.3114548 227.005862,42.7487818 227.031442,42.1832006 C227.041454,41.4489419 226.953474,40.716766 226.769993,40.0073906 C225.672109,41.1952841 224.389748,42.1846654 222.976077,42.9345162 C222.740062,43.1036247 222.469784,43.2146452 222.185919,43.2590846 C222.109797,43.2664182 222.036738,43.2262661 222,43.1569056 L222,43.1028109 C222,43.0066425 222.0581,42.8623899 222.726247,42.3034111 C224.9689,40.6986009 226.549214,38.9856013 227.420711,37.218507 C226.258715,37.470949 225.381408,37.6452542 224.78879,37.7294016 L224.75974,37.7294016 C224.178742,37.6632858 223.899863,37.5310543 223.824334,37.3206859 C223.778223,37.1701797 223.821383,37.0056821 223.934723,36.8999492 L223.969583,36.8578755 L224.504101,36.8578755 C224.88175,36.8097913 225.950786,36.6535176 227.75769,36.371023 C227.94224,35.917126 228.091829,35.4488509 228.205058,34.9705706 C227.961039,35.0366864 227.72864,35.0847706 227.519481,35.1208338 C227.23524,35.1749291 226.943844,35.1749291 226.659604,35.1208338 C226.383497,35.1216659 226.112371,35.0447923 225.875256,34.8984443 C225.776487,34.826318 225.730007,34.7481812 225.747437,34.6640339 C225.764867,34.5798865 225.915926,34.4897286 226.049556,34.4656865 C226.84825,34.4107793 227.642271,34.2983099 228.425837,34.1290971 L228.425837,34.0870235 C228.525571,33.6267677 228.58392,33.1579514 228.600137,32.6865712 C228.055295,32.8038169 227.50076,32.8662167 226.944293,32.8728974 C226.581318,32.8983188 226.217211,32.8450929 225.875256,32.7166238 C225.797496,32.6781484 225.74947,32.595342 225.753247,32.5062554 C225.753247,32.3740239 225.904306,32.2658344 226.223855,32.1456239 C226.346858,32.1327104 226.469061,32.1126436 226.589884,32.0855187 C227.59501,31.9112134 228.298018,31.7789819 228.675666,31.6828135 C228.768626,30.5167716 228.594327,30.0659823 228.431647,29.879656 C228.158578,29.5971613 228.088859,29.3567403 228.210868,29.158393 C228.332878,28.9600457 228.611757,28.9840878 229.070745,29.0381825 L229.105605,29.0381825 C229.849282,29.3807824 230.238551,29.6752982 230.337321,29.9517823 C230.377687,30.0496946 230.377687,30.1604068 230.337321,30.2583191 C230.122388,30.59432 229.992528,30.9808134 229.959672,31.3822872 C230.54067,31.2440452 231.214627,31.0456978 232.039645,30.7812347 C232.23115,30.7437074 232.425737,30.7255901 232.620643,30.72714 C233.20164,30.72714 233.544429,30.9375084 233.625769,31.3642557 L233.625769,31.4423925 L233.556049,31.4904767 C232.905332,31.9232345 231.661996,32.2478028 229.744703,32.4882238 C229.740752,32.5201497 229.740752,32.5524664 229.744703,32.5843922 C229.704033,32.9330027 229.640123,33.3477289 229.564593,33.8345814 C230.116541,33.6963394 230.726589,33.5220341 231.429597,33.3116658 C231.587536,33.2886034 231.741857,33.2441447 231.888585,33.1794342 L231.940875,33.1794342 C232.579973,33.1794342 232.905332,33.2756026 233.009911,33.4919815 C233.067336,33.646161 233.030816,33.8208948 232.916951,33.9367603 C232.626452,34.1351077 231.481887,34.3875497 229.430964,34.7181286 C229.350085,35.1817642 229.221535,35.6351286 229.047505,36.0704967 C230.40704,35.8000231 231.545796,35.5596021 232.434723,35.3372127 C233.172591,35.1448759 233.666439,35.0306759 233.939508,34.9825917 L234.189337,34.9825917 C235.153794,34.9825917 235.641832,35.2831179 235.641832,35.8841704 L235.641832,35.9202336 L235.641832,35.9502862 C235.560492,36.0825178 235.275803,36.2267704 233.782638,36.3590019 C232.736842,36.4010756 231.842105,36.4611808 231.121668,36.5393177 C231.243677,36.6475071 231.406357,36.7677176 231.598086,36.9119702 C231.809583,37.0901364 232.032841,37.2528158 232.266234,37.3988227 C234.392686,39.4063381 236.414559,40.6084431 238.291183,40.9750851 C238.622351,41.0532219 239,41.1734324 239,41.4499165 L239,41.4859797 C238.93609,41.684327 238.686261,41.798527 238.215653,41.8526217 C237.355776,41.9427796 236.670198,41.9908638 236.18216,41.9908638 C235.490772,41.9908638 235.293233,41.8946954 235.206083,41.8225691 C235.118934,41.7504428 234.694805,41.431885 232.609023,39.2079907 C232.196514,38.7331593 231.894395,38.3785383 231.714286,38.1441278 C231.193768,37.6179057 230.646876,37.1203493 230.075871,36.6535176 C229.593643,36.7857492 229.250854,36.8759071 229.035885,36.9179807 L228.722146,37.0021281 C228.37038,37.8424151 227.91539,38.632294 227.368421,39.3522433 C227.525112,39.4198335 227.688903,39.4682462 227.856459,39.4964959 C228.927866,39.3890009 229.984179,39.157139 231.005468,38.8052856 L231.046138,38.8052856 L231.086808,38.8052856 C232.173274,39.0998013 232.777512,39.634738 232.876282,40.3860536 L232.876282,40.4281273 L232.876282,40.470201 C232.631828,41.0929481 232.567246,41.7756837 232.690362,42.4356426 C232.681191,42.6640075 232.702699,42.8925843 232.754272,43.114832 C232.847232,44.5152843 232.504443,45.4589367 231.737526,45.9037155 C231.700203,45.9656805 231.63376,46.0023396 231.563226,45.9998839 Z M230.709159,43.848116 L230.749829,43.9082213 C230.947014,44.2922173 231.108482,44.6947279 231.232057,45.1103262 C231.429597,45.6693051 231.551606,45.7113787 231.563226,45.7113787 C232.219754,45.3267051 232.521873,44.4672001 232.434723,43.1749372 C232.381948,42.9365815 232.360452,42.6919572 232.370813,42.4476637 C232.244899,41.7639706 232.309376,41.0573375 232.556733,40.4100957 C232.457963,39.8090432 231.929255,39.3462328 230.988038,39.0817697 C229.950855,39.4348615 228.879229,39.6686786 227.79255,39.7789906 C227.539185,39.7464503 227.292231,39.6734566 227.060492,39.5626117 L227.014012,39.5626117 L227.014012,39.9412748 C227.204664,40.6821942 227.296537,41.4465938 227.287081,42.2132532 C227.264531,42.7913492 227.19456,43.3664194 227.077922,43.9322634 C227.019822,44.4070948 227.077922,44.5333158 227.077922,44.5333158 C227.304511,45.2966525 227.461381,45.3206946 227.478811,45.3206946 C227.496241,45.3206946 227.67635,45.2365473 227.74026,44.2267791 L227.74026,44.1486423 L227.809979,44.1486423 C228.741959,43.9725546 229.686359,43.8760609 230.63363,43.8601371 L230.709159,43.848116 Z M227.856459,36.8999492 L227.75769,37.1223386 C226.892003,39.0096434 225.247779,40.8308325 222.883117,42.531811 C222.696674,42.6819789 222.518239,42.8424952 222.348599,43.012653 C222.538386,42.9380902 222.72283,42.8497148 222.900547,42.7481899 C224.367542,41.9635378 225.692362,40.9224088 226.816473,39.6708012 L226.944293,39.5385696 L227.043062,39.4063381 C227.616125,38.6743252 228.091024,37.8656163 228.454887,37.0021281 L228.425837,36.9239913 L228.553657,36.7797387 L228.913876,36.4130966 L228.867396,36.4130966 L228.646617,36.4551703 L228.739576,36.2448019 C228.960659,35.7390785 229.116915,35.2056363 229.204375,34.6580233 L229.204375,34.5678655 L229.285714,34.5678655 C231.778195,34.1771813 232.556733,33.966813 232.771702,33.8225604 C232.806562,33.7684657 232.853042,33.6903288 232.829802,33.6482552 C232.806562,33.6061815 232.690362,33.4739499 231.993165,33.4739499 C231.839375,33.536851 231.679724,33.5831767 231.516746,33.612192 C230.767259,33.8405919 230.075871,34.0269182 229.477444,34.1711708 L229.308954,34.2132445 L229.338004,34.0329287 C229.425154,33.4739499 229.494874,32.9991185 229.541353,32.6324764 C229.532994,32.5279323 229.569051,32.4248039 229.640123,32.3499818 L229.669173,32.3499818 L229.709843,32.3499818 C231.516746,32.1275923 232.760082,31.815045 233.39918,31.4303714 C233.3527,31.2861188 233.20745,31.0637294 232.643882,31.0637294 C232.470604,31.0664386 232.297762,31.0825112 232.126794,31.1118136 C231.232057,31.3882978 230.47676,31.6046767 229.884142,31.7128661 L229.727273,31.7489293 L229.727273,31.5866451 C229.747559,31.0885638 229.89598,30.6051094 230.157211,30.1861928 C230.165346,30.1546889 230.165346,30.1215282 230.157211,30.0900244 C230.104921,29.9457718 229.878332,29.6993403 229.064935,29.3206772 C228.958556,29.3127756 228.851766,29.3127756 228.745386,29.3206772 C228.501367,29.3206772 228.443267,29.3687614 228.431647,29.3807824 C228.420027,29.3928035 228.536227,29.6692876 228.634997,29.7714666 C228.937116,30.0840139 229.035885,30.7632032 228.942925,31.8390871 L228.942925,31.929245 L228.861586,31.929245 C228.507177,32.0194029 227.815789,32.157645 226.793233,32.3319502 C226.644741,32.3912135 226.487537,32.4237395 226.328435,32.4281186 C226.232838,32.459278 226.142629,32.5059394 226.061176,32.5663607 C226.363029,32.6558644 226.677241,32.6924335 226.990772,32.6745501 C227.577054,32.6692318 228.161204,32.6007428 228.733766,32.4701923 L228.873206,32.4701923 L228.873206,32.6144449 C228.86668,33.1934371 228.798485,33.7699213 228.669856,34.333455 L228.669856,34.4115918 L228.594327,34.4115918 L228.483937,34.4115918 L228.483937,34.6940865 L228.600137,34.6580233 L228.547847,34.8623812 C228.532053,34.9557733 228.504715,35.0466766 228.466507,35.1328548 C228.352033,35.6293492 228.194526,36.1141568 227.995899,36.5813913 L227.995899,36.6354861 L227.937799,36.6354861 C226.090226,36.9179807 224.997949,37.0802649 224.597061,37.1283491 L224.161312,37.1283491 C224.12972,37.1665496 224.114978,37.2166601 224.120643,37.2665912 C224.120643,37.3026543 224.236842,37.4408964 224.8527,37.5190332 C225.480178,37.4228648 226.433014,37.2365386 227.69378,36.9600544 L227.856459,36.8999492 Z M230.064252,36.4431493 L230.110731,36.4852229 C230.706626,36.9721372 231.276824,37.4917936 231.818865,38.0419489 C232.004785,38.2823699 232.301094,38.6369909 232.707792,39.1058118 C233.503453,40.021213 234.355419,40.8825098 235.258373,41.684327 C235.322283,41.7324112 235.484962,41.810548 236.11244,41.810548 C236.594668,41.810548 237.274436,41.7624638 238.122693,41.672306 C238.541012,41.6242218 238.657211,41.5340639 238.703691,41.4919902 C238.750171,41.4499165 238.587491,41.3657692 238.192413,41.2756113 C236.27512,40.8969483 234.218387,39.6768117 232.080314,37.6692963 C231.841902,37.525432 231.614632,37.36266 231.400547,37.1824438 C231.15848,37.0076545 230.92754,36.8169269 230.709159,36.611444 L230.54067,36.4371387 L230.778879,36.4070861 C231.551606,36.3109177 232.521873,36.2387914 233.718729,36.1907072 C234.281593,36.1930342 234.840998,36.0996276 235.374573,35.9142231 C235.374573,35.7158757 235.269993,35.3131706 234.154477,35.3131706 L233.933698,35.3131706 C233.678059,35.3612548 233.190021,35.4754547 232.457963,35.661781 C231.534176,35.890181 230.343131,36.1486335 228.913876,36.4251177 L228.768626,36.8097913 L228.925496,36.7677176 C229.152085,36.7196334 229.506494,36.6294755 230.017772,36.4852229 L230.064252,36.4431493 Z M226.049556,34.7361602 C226.24832,34.8506434 226.472817,34.9087049 226.700273,34.9044549 C226.963816,34.9494146 227.232698,34.9494146 227.496241,34.9044549 C227.74026,34.8623812 228.007519,34.7962654 228.292208,34.7181286 L228.367738,34.4055813 C227.616807,34.5662092 226.855666,34.6706619 226.090226,34.7181286 L226.049556,34.7361602 Z M231.394737,44.0164107 L231.354067,44.0164107 C231.192322,44.0014809 231.035679,43.9501991 230.895079,43.8661476 C230.775958,43.7460562 230.633305,43.6538201 230.47676,43.595674 C230.151401,43.6437582 229.314764,43.7639687 227.897129,43.9442844 L227.76931,43.9442844 L227.76931,41.9728322 L227.908749,41.9728322 C228.459134,42.0721715 229.019734,42.0964203 229.576213,42.0449585 C230.343131,41.9307585 230.52905,41.8045375 230.56972,41.7564533 C230.583646,41.7197498 230.583646,41.6789568 230.56972,41.6422533 C230.52905,41.5761376 230.3838,41.4499165 229.872522,41.3717797 C229.645933,41.4198639 229.210185,41.5340639 228.542037,41.7203902 C228.309638,41.7684744 228.106288,41.810548 227.926179,41.8586322 L227.78093,41.8946954 L227.78093,39.9292537 L227.897129,39.9292537 C228.04821,39.925045 228.198321,39.9028604 228.344498,39.863138 C229.148332,39.7281798 229.95935,39.6438771 230.773069,39.6106959 C230.917573,39.6040706 231.062267,39.6182303 231.203008,39.6527696 C231.354067,39.7669696 231.534176,40.0915379 231.661996,41.570127 C231.720096,43.4454108 231.557416,43.8180634 231.412167,43.9322634 L231.394737,44.0164107 Z M230.46514,43.355253 C230.54648,43.355253 230.685919,43.3913161 231.017088,43.6617897 C231.107369,43.7144565 231.205573,43.7510303 231.307587,43.7699792 C231.371497,43.6678003 231.493506,43.253074 231.441217,41.6482639 C231.325017,40.3199379 231.168148,40.00138 231.092618,39.9232432 C230.980838,39.9070409 230.867419,39.9070409 230.755639,39.9232432 C229.957336,39.9564888 229.161786,40.0407972 228.373548,40.1756853 C228.248956,40.2050002 228.122876,40.2270734 227.995899,40.241801 L227.995899,41.6122007 L228.466507,41.5040113 C229.157895,41.317685 229.628503,41.203485 229.831852,41.1554008 L229.872522,41.1554008 C230.354751,41.2275271 230.63363,41.3477376 230.749829,41.5400744 C230.799795,41.6463172 230.799795,41.770421 230.749829,41.8766638 C230.674299,41.9968743 230.47095,42.153148 229.587833,42.2853795 C229.053349,42.3347167 228.515103,42.3185769 227.984279,42.2372953 L227.984279,43.6497687 L230.43609,43.3131793 L230.46514,43.355253 Z" id="Shape" fill="#EB6778" fill-rule="nonzero"></path>
                <path d="M228.406211,61.4484869 C229.18381,61.9600652 229.481987,62.334826 229.300742,62.5668208 C228.964787,62.8804378 228.664709,63.231646 228.406211,63.6137716 C227.212583,65.3452465 225.602092,66.735991 223.72892,67.6528605 C223.360583,67.8432152 223.144258,67.9086496 223.039019,67.8670095 C222.93378,67.8253694 223.039019,67.6350147 223.38397,67.44466 C225.85124,65.6759476 227.33628,63.794212 227.839089,61.7994534 C227.792316,61.5198699 227.839089,61.3592582 227.903402,61.3116695 C227.967715,61.2640808 228.119727,61.3116695 228.406211,61.4484869 Z M231.914179,65.8444908 C232.095424,65.6600847 232.53392,65.7493134 233.217974,66.1240743 C234.036499,66.5880638 234.387296,66.9092874 234.246977,67.0996421 C233.88059,67.3772427 233.559026,68.2596161 233.282286,69.7467622 C233.194587,70.2583404 233.101041,70.7461243 233.013342,71.2101139 C232.510533,72.69726 231.779707,73.627222 230.820862,74 C230.592844,74 230.405752,73.8096453 230.27128,73.4408331 C230.119553,72.9838879 229.8878,72.558652 229.587227,72.1856818 C229.312436,71.8644582 229.195503,71.6741035 229.242276,71.6265148 C229.289049,71.5789262 229.493681,71.5610804 229.862017,71.6978978 C230.405752,72.02507 230.774089,72.1380931 230.955334,72.0488643 C231.594564,71.7712637 232.097373,70.3991236 232.46376,67.9324439 C232.510533,67.0996421 232.323442,66.7010869 231.914179,66.742727 L231.844019,66.742727 C231.690582,66.8101707 231.529561,66.8581207 231.364597,66.8854931 C230.739795,66.9436333 230.121437,67.059109 229.517067,67.230511 C229.973103,67.4625058 230.154348,67.6945005 230.066649,67.9264953 C230.010476,67.9888288 229.963237,68.058921 229.92633,68.1346958 C228.14896,70.7877644 226.394976,72.3462935 224.664378,72.8102831 C224.334776,72.9361174 223.987217,73.0064399 223.635374,73.0184836 C223.588601,72.9233062 223.863392,72.7626944 224.459746,72.5306997 C226.927017,70.9444105 228.341898,69.2470811 228.704388,67.4387114 C227.69877,67.6707062 227.108262,67.8134722 226.950404,67.8610609 C226.307276,67.6707062 226.055872,67.4625058 226.196191,67.230511 C229.61646,66.6772926 231.539995,66.243046 231.902485,65.8444908 L231.914179,65.8444908 Z M228.990872,59.0095673 C229.625809,58.9487561 230.2542,59.1800573 230.70393,59.6401173 C233.217974,62.8126956 235.730068,64.740037 238.240215,65.4221413 C238.69625,65.612496 238.947655,65.7493134 238.994428,65.8444908 C239.041201,65.9396681 238.789796,66.0526912 238.380533,66.0526912 C236.64214,66.2390802 235.544926,66.2152859 235.08889,65.9813082 C234.586081,65.612496 233.192638,63.9389609 230.908561,60.960703 C230.380035,60.3243951 229.693631,59.8437486 228.920713,59.5687343 C228.806418,59.5405996 228.7089,59.465107 228.651768,59.3605338 C228.51145,59.3129451 228.488063,59.2415621 228.581609,59.1523334 C228.695403,59.079159 228.822767,59.0305647 228.955792,59.0095673 L228.990872,59.0095673 Z" id="Shape" fill="#EB6778" fill-rule="nonzero"></path>
                <path d="M230.838111,73.9824058 C230.560062,73.9824058 230.33994,73.7712759 230.183538,73.3548808 C230.034671,72.9269704 229.810987,72.5296622 229.523172,72.1819367 C229.181404,71.777271 229.088721,71.5954647 229.181404,71.4898997 C229.274087,71.3843347 229.436282,71.3256875 229.92866,71.4898997 C230.612196,71.8945654 230.820733,71.8887007 230.919209,71.8417829 C231.330489,71.6599766 231.909757,70.8271863 232.350001,67.8713673 C232.384757,67.2848952 232.280489,67.0209828 232.187806,66.9212826 C232.122283,66.8516227 232.026163,66.8206588 231.932928,66.8391765 L231.880794,66.8391765 C231.726049,66.9022983 231.564765,66.9475472 231.400001,66.9740651 C230.878693,67.0260517 230.361791,67.1162134 229.853355,67.2438422 C230.177745,67.4667016 230.293599,67.6954257 230.195123,67.9358792 L230.195123,67.9769322 C230.149062,68.0280399 230.110087,68.0852574 230.07927,68.1470091 C228.300916,70.7861333 226.51677,72.3520136 224.778966,72.8387854 C224.450815,72.9455815 224.113289,73.0202109 223.771039,73.0616448 L223.70732,73.0616448 L223.626222,73.0323211 L223.626222,72.9678092 C223.61196,72.9300443 223.61196,72.8882797 223.626222,72.8505148 C223.666771,72.7508146 223.800002,72.6217907 224.50671,72.3461489 C226.823782,70.8741041 228.196648,69.2789002 228.607928,67.5957254 L227.020734,67.9652028 L226.962807,67.9652028 C226.464636,67.8185848 226.19238,67.6602373 226.117075,67.4667016 C226.081185,67.3690118 226.094132,67.2597849 226.151831,67.1734656 L226.151831,67.1265478 L226.209758,67.1265478 C230.438416,66.452105 231.608538,66.0239804 231.846038,65.7893916 C232.083538,65.5548028 232.523782,65.6369088 233.271037,66.0415745 C234.186281,66.5576699 234.342684,66.8039882 234.37744,66.9623356 C234.391327,67.0380318 234.374633,67.1162041 234.331098,67.1793303 C234.099391,67.3552719 233.75183,67.9358792 233.421647,69.7187542 C233.334757,70.2231201 233.242074,70.7040272 233.149391,71.1614754 C232.639635,72.6687085 231.886586,73.6187932 230.907623,74 L230.838111,73.9824058 Z M229.378355,71.5896 C229.468143,71.7356149 229.570907,71.8730283 229.685367,72.0001304 C229.990971,72.3794073 230.228231,72.8101981 230.386282,73.2727747 C230.496343,73.5718754 230.635367,73.7302229 230.797562,73.747817 C231.701221,73.3842044 232.402135,72.4869022 232.882928,71.0793693 C232.964025,70.6336505 233.056708,70.1527435 233.149391,69.6483775 C233.421647,68.170468 233.728659,67.3024894 234.116769,66.9857945 C234.116769,66.8860943 233.971952,66.6690996 233.137806,66.199922 C232.558538,65.8773624 232.118294,65.7717974 231.979269,65.906686 C231.602745,66.2937575 229.737501,66.7512057 226.27927,67.3024894 C226.273043,67.3154476 226.273043,67.3305843 226.27927,67.3435424 C226.27927,67.3963249 226.400917,67.5370782 226.939636,67.6954257 L228.677441,67.29076 L228.851221,67.2497069 L228.816465,67.4256485 C228.451526,69.2378471 227.014941,70.9444807 224.553051,72.5220905 C224.383226,72.5852105 224.216923,72.6576494 224.05488,72.7390851 L224.668905,72.5807377 C226.348783,72.1350189 228.086587,70.5984622 229.830184,68.02385 C229.863036,67.9515603 229.905952,67.8844108 229.957623,67.8244495 C230.009758,67.6309137 229.720123,67.4315133 229.465245,67.3024894 L229.187197,67.1617361 L229.488416,67.0854948 C230.094699,66.9124618 230.715059,66.7946979 231.342074,66.7336115 C231.490133,66.713967 231.634552,66.6724737 231.770733,66.6104524 L231.822867,66.6104524 L231.956099,66.6104524 C232.096453,66.6066096 232.231606,66.6643363 232.32683,66.7687999 C232.54329,67.1047583 232.624154,67.5120069 232.552745,67.9065556 C232.182013,70.4166559 231.666465,71.7714063 230.988721,72.0646423 C230.79177,72.1702073 230.409453,72.0646423 229.795428,71.7127591 C229.66325,71.6508732 229.522669,71.6093605 229.378355,71.5896 Z M223.220734,67.9769322 C223.178827,67.9869211 223.135202,67.9869211 223.093295,67.9769322 L223.064332,67.9769322 C223.018959,67.9279908 222.995857,67.8620759 223.000612,67.7951259 C223.000612,67.6661021 223.151222,67.5370782 223.429271,67.3787308 C225.815856,65.6720972 227.287197,63.8598986 227.779575,61.9069467 C227.750612,61.7016815 227.733234,61.4319044 227.901221,61.3204747 C227.937349,61.2966201 227.979745,61.2843562 228.022868,61.2852864 C228.189153,61.305055 228.34923,61.3610785 228.492075,61.4494985 C229.135063,61.8717584 229.447867,62.1825886 229.488416,62.4523657 C229.506317,62.5519559 229.480989,62.6545273 229.418904,62.7338723 C229.094552,63.034427 228.806748,63.3730607 228.561587,63.7426042 C227.367524,65.4606437 225.763327,66.8446994 223.898478,67.7658023 C223.688792,67.8813806 223.458326,67.953175 223.220734,67.9769322 Z M228.02866,61.4846869 C228.02866,61.4846869 227.970733,61.5374693 228.02866,61.8424348 L228.02866,61.8893526 C227.524697,63.8774927 226.024392,65.7717974 223.574088,67.5253488 C223.467739,67.5783656 223.370057,67.6475932 223.284454,67.730614 C223.463188,67.6872064 223.634853,67.6180815 223.79421,67.5253488 C225.358234,66.8509059 226.893295,65.5196144 228.364636,63.5725273 C228.624023,63.1948522 228.923133,62.8467956 229.256709,62.5344718 C229.267981,62.5062587 229.267981,62.4747141 229.256709,62.446501 C229.256709,62.340936 229.106099,62.0887531 228.376221,61.6137107 C228.268132,61.5449582 228.15117,61.4916709 228.02866,61.4553633 L228.02866,61.4846869 Z M236.370122,66.2996222 C235.895612,66.3336331 235.419438,66.2636193 234.974086,66.094357 C234.446952,65.7072855 233.085672,64.082758 230.79177,61.1152095 C230.285311,60.5031451 229.624806,60.0411208 228.880185,59.7780532 C228.754001,59.7417673 228.643717,59.6631953 228.56738,59.5551939 C228.492121,59.532637 228.433257,59.4730411 228.410977,59.3968464 C228.396119,59.3119152 228.429716,59.225744 228.497868,59.1739871 C228.544209,59.1270693 228.631099,59.0684221 228.961282,59.0039102 C229.028765,58.9986966 229.096543,58.9986966 229.164026,59.0039102 C229.763414,58.9913978 230.341524,59.2289107 230.762806,59.6607588 C233.236281,62.7514664 235.727135,64.6575005 238.177439,65.3378081 C238.82622,65.6017205 238.959451,65.7248796 239,65.8128504 L239,65.8656329 C239,66.1881925 238.472866,66.1881925 238.275915,66.1881925 C237.642454,66.2485236 237.006355,66.2759283 236.370122,66.2702986 L236.370122,66.2996222 Z M228.660063,59.3381992 L228.706404,59.3381992 L228.706404,59.385117 C228.751015,59.460306 228.824428,59.5133962 228.909148,59.531735 C229.693651,59.8125781 230.391027,60.2981126 230.930794,60.9392679 C233.178355,63.871628 234.562806,65.5137497 235.049391,65.8714977 C235.443293,66.0650334 236.543903,66.094357 238.223781,65.9184154 C238.389198,65.93455 238.556028,65.9104207 238.710366,65.8480388 C238.507789,65.7143448 238.289937,65.6060332 238.061586,65.5254792 C235.570732,64.8393069 233.03933,62.9098139 230.531099,59.783918 C230.109676,59.3592853 229.524594,59.1446627 228.932319,59.1974459 C228.814485,59.2095524 228.700243,59.2454477 228.596343,59.3030109 L228.660063,59.3381992 Z" id="Shape" fill="#EB6778" fill-rule="nonzero"></path>
                <g id="Path">
                    <use fill="black" fill-opacity="1" filter="url(#filter-3)" xlink:href="#path-2"></use>
                    <use fill="#80CAC5" fill-rule="evenodd" xlink:href="#path-2"></use>
                </g>
                <g id="Path">
                    <use fill="black" fill-opacity="1" filter="url(#filter-5)" xlink:href="#path-4"></use>
                    <use fill="#80CAC5" fill-rule="evenodd" xlink:href="#path-4"></use>
                </g>
                <g id="Path">
                    <use fill="black" fill-opacity="1" filter="url(#filter-7)" xlink:href="#path-6"></use>
                    <use fill="#80CAC5" fill-rule="evenodd" xlink:href="#path-6"></use>
                </g>
                <path d="M313.472843,167.004497 C360.752295,151.692993 422,153.029526 422,153.029526 L422,181.002917 C422,181.002917 393.297376,190.968291 338.404276,192 C331.978404,182.140142 323.557067,173.323717 312,167.491042 C312.498866,167.315182 312.991794,167.162771 313.472843,167.004497 Z" id="Path" fill="#FCE5C7"></path>
                <path d="M297,170.957357 C302.370381,169.723663 307.381165,168.406531 311.790654,167 C323.268296,172.930076 332.621567,180.98145 339,191 C331.690151,191.137077 322.891014,192.025517 314.655643,191.787122 C310.35816,183.777049 304.946513,176.321245 297,170.957357 Z" id="Path" fill="#FCE5C7"></path>
                <path d="M172.228049,182 C149.847354,181 257.125424,176.567382 297.20339,170 C305.2,175.407725 312.026367,185.066912 315,191 C242.333333,204.333333 194.742683,201.333333 172.228049,182 Z" id="Path" fill="#FCE5C7"></path>
                <g id="Group-12" filter="url(#filter-8)" transform="translate(36.000000, 147.000000)">
                    <path d="M363,6.73645282 C363,6.73645282 323.121479,12.3141964 291.96045,18.7253275 C272.377247,22.7553514 242.575174,28.0533148 215.550354,32 C211.396342,20.0944641 202.388069,9.77236448 193,0.724157193 C261.594617,-1.246209 332.088212,0.81940148 363,6.73645282 Z" id="Path" fill="#FCE5C7"></path>
                    <path d="M178,0.464936886 C183.007892,0.298036466 188.025849,0.143057504 193.053869,0 C202.58859,9.06030856 211.773081,19.4081346 216,31.3176718 C209.092007,32.3131136 202.359129,33.2191445 196.018751,34 C193.549023,21.5480365 188.041951,9.82328191 178,0.464936886 Z" id="Path" fill="#FFFFFF"></path>
                    <path d="M140.682124,1.61679979 C153.283442,0.992667515 166.263924,0.427976414 179.339198,0 C189.191567,9.33226347 194.594671,21.0243413 197,33.4416014 C188.628744,34.487766 180.932876,35.3080541 174.439673,35.8192482 C143.893179,38.0780126 0,18.4208181 0,18.4208181 L6.74795501,14.5511981 C6.74795501,14.5511981 66.1761699,5.290264 140.682124,1.61679979 Z" id="Path" fill="#FCE5C7"></path>
                </g>
                <g id="Group-8" filter="url(#filter-9)" transform="translate(0.000000, 9.000000)">
                    <g id="鸟" transform="translate(248.000000, 89.000000)">
                        <path d="M30,1.40983101 C29.7926336,3.31838547 29.4638269,5.2117001 29.0155905,7.07819796 C27.2194749,14.5071066 22.0729128,15.6096097 20.518582,15.9790349 C18.9642512,16.34846 21.3993695,11.713329 21.3993695,11.713329 L23.9381098,7.61501887 L26.8165002,2.99720465 L29.6948906,1 L30,1.40983101 Z" id="Path" fill="#FFFFFF"></path>
                        <path d="M21.8529812,4.23650593 C21.8529812,4.23650593 24.1598776,0.684729973 26.6217593,0.147131231 C27.9416934,-0.230522506 29.3602487,0.130568795 30.3473672,1.09547957 L33,0.304182549 C32.2120204,1.05192908 31.2835268,1.63124261 30.2698745,2.00758531 C28.9518539,2.64874865 27.8444897,3.66180814 27.0807542,4.92511556 C25.9660523,6.92449965 26.2819839,13.2186332 22.7411662,15.4052708 C19.2003484,17.5919084 13.5314635,17.2838462 10.0800604,15.9549504 C8.65545579,15.3560021 7.19392044,14.851568 5.70470647,14.4448416 C5.70470647,14.4448416 2.31291306,16.8247731 0.995538115,16.9395414 C-0.32183683,17.0543097 0.0477434716,11.9078588 0.0477434716,11.9078588 C0.0477434716,11.9078588 3.57067828,10.9715913 5.10264824,11.4971092 C5.10264824,11.4971092 6.24715497,11.6420796 9.09649988,10.023243 C11.9458448,8.4044063 14.9024872,5.31170342 21.8529812,4.23650593 Z" id="Path" fill="#B7C372"></path>
                        <path d="M20.7890525,11.4589371 C20.7890525,11.4589371 24.4587893,8.54466742 22.3425744,5.75855877 C20.2263595,2.97245012 20.1346161,4.55495983 13.4862762,3.04488894 C4.97860305,1.10575732 2,2.45980613 2,2.45980613 C2,2.45980613 6.6483333,4.59953757 9.65751749,7.11260757 C14.7829166,11.3753538 16.26916,12.9300024 20.7890525,11.4589371 Z" id="Path" fill="#FDCF00"></path>
                        <path d="M27.9937431,2.42154214 C28.0364235,2.69030304 27.8563282,2.94384314 27.5885184,2.99202177 C27.3207086,3.04020039 27.0635531,2.86532115 27.0099039,2.59853353 C26.9562546,2.33174591 27.1258174,2.07104315 27.3914299,2.01193751 C27.5260546,1.98198003 27.6670737,2.00897384 27.781121,2.08653198 C27.8951683,2.16409012 27.9721107,2.28532164 27.9937431,2.42154214 Z" id="Path" fill="#231815"></path>
                    </g>
                    <path d="M275.527951,54.5264653 C275.527951,54.5264653 266.81413,52.2901728 265.339026,56.2645165 C263.863921,60.2388602 267.474358,61.5481921 270.924198,62.5099138 C270.924198,62.5099138 271.745022,67.144717 278.317563,68.7495176 C284.890104,70.3543182 287.834364,67.6313713 287.834364,67.6313713 C287.834364,67.6313713 288.304256,70.777244 293.419537,70.9916037 C297.202465,71.1538218 297.529605,68.9117357 297.529605,68.9117357 C299.087505,69.5947782 300.858832,69.6530519 302.460498,69.0739538 C304.124992,68.4979008 305.523511,67.3617126 306.404022,65.8701461 C306.404022,65.8701461 315.439035,68.9117357 316.920088,63.3094174 C316.920088,63.3094174 318.068052,60.1056097 311.662055,58.5066025 C311.662055,58.5066025 308.045671,47.6206086 299.171254,54.1846486 C299.171254,54.1846486 293.586081,49.063191 289.476012,54.5032913 C289.493856,54.5264653 281.933948,49.0863651 275.527951,54.5264653 Z" id="Path" fill="#FFFFFF"></path>
                    <path d="M10.0208162,115.549981 C10.0208162,115.549981 17.8071777,117.444798 21.8183337,117.257132 C25.8294897,117.069467 27.7819788,114.769051 27.7819788,114.769051 C29.5682053,117.604616 32.7172305,119.217013 35.9989498,118.97639 C39.2762679,118.801595 42.3253888,117.200647 44.381086,114.575331 C44.381086,114.575331 47.607707,116.682028 56.4676427,116.106924 C65.3275784,115.53182 72.6066467,109.998714 73.2496114,107.885964 C73.8925761,105.773213 73.7333096,106.929475 73.7333096,106.929475 C73.7333096,106.929475 81.549165,106.584413 82.8409931,101.226865 C84.1328213,95.8693172 77.4377301,91.8375355 66.9615345,94.8643986 C59.6263563,90.525223 50.6480902,90.2973196 43.1128528,94.259026 C43.1128528,94.259026 33.5981549,87.9873655 26.1893139,94.6827868 C26.1893139,94.6827868 19.4175389,89.1375735 16.0316513,91.6559237 C16.0316513,91.6559237 5.69702598,94.1863812 0.983917727,103.158004 C-3.72919053,112.129626 10.0208162,115.549981 10.0208162,115.549981 Z" id="Path" fill="#FFFFFF"></path>
                    <path d="M421,13.3488798 C418.273958,11.4867592 414.730994,11.4044247 411.923984,13.1379633 C411.923984,13.1379633 409.242703,7.05754241 400.575997,9.36557136 C400.575997,9.36557136 390.877117,-1.95763071 375.815675,6.00898618 C375.815675,6.00898618 358.689884,-9.05647693 347.134276,8.52190542 C347.134276,8.52190542 338.236221,6.84662592 336.1956,16.4885223 C334.15498,26.1304187 348.575761,28.0166147 356.417914,26.5522517 C356.417914,26.5522517 361.578786,32.4217561 369.415007,31.9758184 C377.251228,31.5298807 383.859517,25.4795907 383.859517,25.4795907 C387.896664,28.9905372 393.315729,30.3857497 398.511648,29.2519826 C407.385975,27.3718129 409.224907,22.5508647 409.224907,22.5508647 C412.658418,24.5931967 416.786275,25.0513328 420.572893,23.8103374 L421,13.3488798 Z" id="Path" fill="#FFFFFF"></path>
                    <g id="鸟" transform="translate(276.000000, 6.000000)">
                        <path d="M21.7870963,13.9769306 C21.1043635,9.35030883 24.4527224,4.13745673 26.6196568,1.33274688 C27.6111035,0.0395917308 26.5365415,-0.328239068 24.8682989,0.298222761 C21.9972335,1.34124134 19.3607088,2.91014171 17.102956,4.91909718 C14.2809336,7.51306519 12.7879473,11.1821758 13.0243699,14.9424865 L13.4221359,16 L21.7870963,13.9769306 Z" id="Path" fill="#FDCF00"></path>
                        <path d="M31,12.3729035 C30.7241985,14.1030371 30.0908414,15.7682229 29.1343284,17.2780194 C27.5733831,19.6818131 24.5447761,21.8676015 22.9838308,21.993815 C21.4228856,22.1200285 21,20.2727217 21,20.2727217 L24.1094527,17.0026445 L27.6604478,13.3481897 L30.7699005,12 L31,12.3729035 Z" id="Path" fill="#FFFFFF"></path>
                        <path d="M21.3172396,13.7719906 C21.3172396,13.7719906 23.9368591,11.1164886 26.2560636,11.0202337 C27.5063939,10.889772 28.7358084,11.396779 29.4825216,12.3508157 L32,12.0620511 C31.1762681,12.5793294 30.2507328,12.935525 29.2782393,13.1095306 C27.9898404,13.4578385 26.8359082,14.1500199 25.9556485,15.1025726 C24.6458387,16.6200023 23.2338878,20.5154935 19.7070147,21.8460755 C16.1801416,23.1766575 11.8481561,23.5446909 8.92812143,21.9366683 C7.73040446,21.2271481 6.48393485,20.5934871 5.19696606,20.0398812 C5.19696606,20.0398812 1.77223409,21.5573109 0.564565443,21.4667181 C-0.643103201,21.3761253 0.462424314,17.0956146 0.462424314,17.0956146 C0.462424314,17.0956146 3.79102346,16.812512 5.10083324,17.474972 C5.10083324,17.474972 6.10421962,17.7637366 8.92812143,16.812512 C11.7520232,15.8612874 14.8703318,13.6813977 21.3172396,13.7719906 Z" id="Path" fill="#B7C372"></path>
                        <path d="M13.5785545,19.0011536 C13.5785545,19.0011536 16.1243335,15.835784 18.9511035,17.4671227 C21.7778735,19.0984615 18.6701125,19.8654769 23.8515875,25.3376167 C29.0330626,30.8097566 31,32.4410953 31,32.4410953 C31,32.4410953 30.3368611,33.9751262 24.1213389,31.9602797 C17.9058168,29.9454332 10.925999,24.954109 13.5785545,19.0011536 Z" id="Path" fill="#FDCF00"></path>
                        <path d="M27,12.5000358 C26.9999824,12.7028586 26.8774389,12.8855763 26.6897954,12.9625643 C26.5021518,13.0395522 26.2865896,12.9955553 26.1441249,12.8511912 C26.0016601,12.7068272 25.960522,12.4907016 26.0399885,12.3040945 C26.1194551,12.1174874 26.3037801,11.9973749 26.5065858,12.0000436 C26.7801517,12.0036434 27.0000237,12.2264466 27,12.5000358 Z" id="Path" fill="#231815"></path>
                    </g>
                    <g id="风筝" transform="translate(320.000000, 32.000000)">
                        <path d="M29,19.7913947 L27.2628836,1 L27.1065431,1.03382789 C24.402432,5.17774481 21.7330631,9.31038576 19,13.4091988 C22.2136653,15.6080119 25.3694268,17.8462908 28.5773017,20 L29,19.7913947 Z" id="Path" fill="#F29131"></path>
                        <path d="M6.49652352,5 L6.29038855,5.05903437 L4,33 L4.91615542,32.4745941 C9.55419223,26.0575585 13.8200409,19.439806 18,12.7394054 C14.2723926,10.0356315 10.4817996,7.39089184 6.49652352,5 Z" id="Path" fill="#F29131"></path>
                        <path d="M18.9223153,14 C14.4744859,20.4507927 9.93526276,26.8220162 5,33 L29,20.6440323 C25.6367098,18.4729285 22.3038842,16.2165719 18.9223153,14 Z" id="Path" fill="#F2C160"></path>
                        <path d="M7.48916705,57 C5.84723819,57 4.14666902,56.1098467 2.29949906,54.2874383 C-3.40033968,48.6457912 3.25533621,33.0199926 3.54267376,32.3583922 C3.67383768,32.0544526 4.02039264,31.9171195 4.31672594,32.0516502 C4.61305923,32.1861808 4.74695547,32.5416311 4.61579155,32.8455707 C4.54542317,33.0019489 -1.99883612,48.3570929 3.11459946,53.4213433 C4.9031291,55.1836062 6.46882554,55.9534684 7.91724136,55.773032 C10.3566785,55.4602754 12.6084667,52.4590154 15.5052983,47.7195507 C18.2203449,43.2387116 22.5421362,40.6464409 26.3068445,41.2659394 C29.2388603,41.7531179 31.3264556,44.1108212 32.2060603,47.8819435 C32.8393758,50.5945052 33.9242216,52.2665498 35.4195497,52.8499611 C37.6068335,53.6980125 40.0697267,51.9537933 40.110775,51.9417642 C40.3741371,51.77889 40.7154365,51.8523647 40.892725,52.110102 C41.0700135,52.3678392 41.0230551,52.7222692 40.7851386,52.9221357 C40.6619939,53.0123539 37.7944825,55.0512861 35.0207955,53.9746818 C33.1384414,53.2469213 31.8073062,51.2921929 31.0801663,48.1586128 C30.3119781,44.8746689 28.5586327,42.8417513 26.1309236,42.4387765 C22.8881141,41.9034817 18.9416208,44.327345 16.5080477,48.3390492 C13.3766548,53.5115615 10.9899939,56.572967 8.07557021,56.9458691 C7.88138923,56.9763946 7.68554162,56.9944733 7.48916705,57 Z" id="Path" fill="#F29131"></path>
                        <polyline id="Path" stroke="#FFFFFF" points="6 6 14.990991 32 28 20.5159838"></polyline>
                        <path d="M15,33 C15,33 44.5138889,105.218391 100,136" id="Path" stroke="#FFFFFF"></path>
                        <path d="M6,5.23553531 C10.312115,7.60455581 14.3655031,10.2874715 18.37577,13 C21.2525667,8.69430524 24.0924025,4.35307517 27,0 L6,5.23553531 Z" id="Path" fill="#F2C160"></path>
                    </g>
                </g>
                <g id="Group-7" filter="url(#filter-10)" transform="translate(37.000000, 8.000000)">
                    <path d="M108.844098,52.3867831 C108.844098,52.3867831 78.5655089,65.8822766 56.9546783,58.170566 L52,57.7415186 C52,57.7415186 79.0750326,72.2678404 107.37995,53.0331404 C116.838349,46.6085723 108.844098,52.3867831 108.844098,52.3867831 Z" id="Path" fill="#AC5A25"></path>
                    <path d="M174,99.2365137 C174,99.2365137 153.431823,107.898725 139.713758,105.165474 C125.995694,102.432223 110.915932,96.046733 105.427517,95.590203 C99.9391019,95.1336731 125.145376,95.7799297 134.48698,83.3765445 L134.23129,79.1847695 C134.23129,79.1847695 133.083658,92.1929087 101.883535,94.1198208 C101.883535,94.1198208 79.8287882,104.708944 73.8825097,103.795884 C67.9362313,102.882824 61.0861185,89.2106416 61.0861185,89.2106416 L59.7125282,84.651271 C59.7125282,84.651271 85.7691204,97.8728528 92.1732623,93.7700122 C98.5774041,89.6671715 90.7996719,91.4873624 90.7996719,91.4873624 C90.7996719,91.4873624 73.7279065,91.9201765 53.1537831,77.9515457 C34.5240927,65.3050731 29.9989748,54.1111958 29.9989748,54.1111958 C29.9989748,54.1111958 36.4031167,52.2910049 45.0846832,56.3938455 C53.7662497,60.4966862 71.4385893,61.8307023 71.4385893,61.8307023 C71.4385893,61.8307023 46.0955505,53.5657314 38.5080992,51.7870433 C30.9206479,50.0083551 28.167521,48.6446942 28.167521,48.6446942 L25.1527578,30.9289604 L1.52819356,25 L0,32.6305721 C0,32.6305721 17.1966373,34.0298068 20.8535985,40.8718271 C24.5105598,47.7138474 22.6850523,57.2772606 26.799877,60.9235713 C30.9147017,64.569882 29.0832479,58.1903205 29.0832479,58.1903205 C29.0832479,58.1903205 37.3128973,71.4119023 43.2532294,75.9772019 C49.1935616,80.5425014 53.772196,81.4496324 56.0555669,86.0090029 C58.3389379,90.5683735 64.7430798,106.973807 72.0570023,106.973807 C79.3709247,106.973807 82.2608161,112.363232 92.018659,105.562714 C101.776502,98.7621968 103.602009,97.8550659 110.915932,100.137716 C118.229854,102.420365 147.485544,117.473996 174,99.2365137 Z" id="Path" fill="#A95824"></path>
                    <path d="M110.077997,47.4998522 C110.077997,47.4998522 113.023924,52.6666974 117.36622,48.1449543 C121.708516,43.6232111 122.503916,40.5785708 129.020306,38.0825685 C135.536697,35.5865663 142.930973,33.6512603 146.471977,29.3646478 C150.012981,25.0780353 152.894097,17.0655064 149.453255,13.5928077 C146.012412,10.120109 140.927743,13.2973871 138.641703,14.044982 C136.355664,14.7925769 133.244766,15.7692734 128.625552,20.640698 C124.006339,25.5121226 108.781789,44.0452405 110.077997,47.4998522 Z" id="Path" fill="url(#linearGradient-11)"></path>
                    <path d="M113.288086,44.4603052 C113.288086,44.4603052 110.095619,47.8289288 113.762563,48.9041432 C117.429507,49.9793575 125.47804,41.6521657 131.078038,41.7608309 C136.678036,41.8694962 148.844559,41.1488738 152.066316,36.6135283 C155.288072,32.0781827 154.116524,30.1851192 151.240375,30.0192617 C148.364225,29.8534042 144.117364,30.7570417 138.862973,32.7930859 C133.608581,34.82913 130.076365,39.0842336 124.218626,39.1128297 C118.360888,39.1414258 114.459634,40.5140399 113.288086,44.4603052 Z" id="Path" fill="url(#linearGradient-12)"></path>
                    <path d="M103,45.6851062 C103,45.6851062 102.911307,30.1494553 100.438992,24.5880322 C97.966676,19.026609 95.8325023,15.6920993 93.6373521,8.64802066 C91.442202,1.60394205 88.709351,-0.505765361 86.9410356,0.0978453693 C85.1727202,0.701456099 83.3267986,9.83180093 87.7004689,15.0005841 C92.0741392,20.1693672 96.3092268,24.1602304 97.4178885,30.0146685 C98.5265501,35.8691065 100.633007,51.6215885 103,45.6851062 Z" id="Path" fill="url(#linearGradient-13)"></path>
                    <path d="M103.891821,39.9679729 C103.891821,39.9679729 104.764079,24.3713426 101.756293,20.3005985 C98.7485059,16.2298543 100.108025,8.84571368 102.087149,5.80448911 C104.066273,2.76326453 104.168537,2 104.168537,2 C104.168537,2 110.256298,6.65058855 109.991613,16.1174355 C109.726927,25.5842824 107.332729,40.7904053 103.891821,39.9679729 Z" id="Path" fill="url(#linearGradient-14)"></path>
                    <path d="M113.782686,18.2170717 C113.782686,18.2170717 122.735618,6.17946625 119.154445,2.94241374 C115.573272,-0.294638767 112.786636,5.37460928 111.462408,11.3376007 C110.13818,17.3005922 110,27 110,27 L113.35663,17.353466 L113.782686,18.2170717 Z" id="Path" fill="#FFFFFF"></path>
                    <path d="M127.574334,23.6902671 C127.574334,23.6902671 132.728972,13.4860828 130.392203,6.82558662 C128.055434,0.165090395 121.291404,-1.16817838 115.936309,13.0650506 C110.581213,27.2982796 118.032528,28 118.032528,28 L127.574334,23.6902671 Z" id="Path" fill="url(#linearGradient-15)"></path>
                    <path d="M105.27078,47.1839117 C105.27078,47.1839117 100.953169,46.2849062 101.000384,48.4621852 C101.0476,50.6394643 104.672715,49.8668814 104.672715,49.8668814 L106,48.546467 L105.27078,47.1839117 Z" id="Path" fill="#56BDAE"></path>
                    <path d="M107.442292,48.325483 C107.442292,48.325483 102.86404,49.9768207 104.267336,53.7766732 C105.670631,57.5765257 108.652634,58.1624843 110.272271,54.7532708 C111.891908,51.3440574 110.576318,49.1363549 108.594163,48.3550768 C106.612009,47.5737987 107.442292,48.325483 107.442292,48.325483 Z" id="Path" fill="#56BDAE"></path>
                    <path d="M110.585559,48.6044375 C110.585559,48.6044375 108.275444,57.994015 112.832093,57.9999957 C117.388741,58.0059763 116.34495,51.8399543 113.965956,49.3400541 C111.586962,46.8401538 110.585559,48.6044375 110.585559,48.6044375 Z" id="Path" fill="#56BDAE"></path>
                    <path d="M103.17311,45.7347212 C103.17311,45.7347212 104.808326,50.5067705 109.079057,49.9556984 C113.349788,49.4046264 114.038616,42.9207364 117.177273,38.1017874 C120.315931,33.2828384 129.5582,28.6104511 127.773238,17.583148 C125.988276,6.55584501 119.177868,9.96193914 115.607945,12.9459355 C112.038021,15.929932 107.44983,15.0857365 105.772685,21.5637641 C104.09554,28.0417916 106.317757,29.8181195 105.395327,34.4611945 C104.472897,39.1042695 102.388445,41.7013429 103.17311,45.7347212 Z" id="Path" fill="url(#linearGradient-16)"></path>
                    <path d="M44,50.1481903 C44,50.1481903 44.2216287,54.0450273 48.1929759,52.7282879 C52.164323,51.4115484 53.5420151,49.8694211 58.2201781,50.3557843 C62.8983412,50.8421476 67.9239223,51.975018 71.3382026,50.5455846 C74.752483,49.1161512 78.8735793,45.3082831 77.8373152,42.2418223 C76.8010512,39.1753615 72.7877743,39.4956494 71.1884535,39.2406053 C69.5891327,38.9855612 67.4207652,38.6118919 63.1738796,40.059119 C58.9269941,41.5063462 44.2515786,47.7400992 44,50.1481903 Z" id="Path" fill="url(#linearGradient-17)"></path>
                    <path d="M46.7648279,49.4278508 C46.7648279,49.4278508 43.7130434,50.5412838 45.6356676,52.3311572 C47.5582919,54.1210307 55.1938567,51.4272412 58.6179589,53.2111284 C62.0420611,54.9950157 69.7935937,58.2814388 73.2237995,56.4736068 C76.6540052,54.6657747 76.5502446,53.1153493 74.8290381,52.1276265 C73.1078316,51.1399037 70.1903257,50.397615 66.2840415,50.0504155 C62.3777574,49.703216 58.8315838,51.2476552 55.2243745,49.4877128 C51.6171652,47.7277704 48.7484878,47.3147227 46.7648279,49.4278508 Z" id="Path" fill="url(#linearGradient-18)"></path>
                    <path d="M42.4019108,48.5191166 C42.4019108,48.5191166 47.1024174,39.1644159 47.2220231,35.0417038 C47.3416289,30.9189916 47.0007525,28.2199499 47.7542688,23.2845593 C48.5077851,18.3491686 47.4074121,16.2077311 46.0917486,16.0060445 C44.7760852,15.8043578 40.7991936,20.6863608 42.0131921,25.1946503 C43.2271906,29.7029399 44.7222626,33.4400746 43.6458108,37.3136444 C42.5693589,41.1872142 39.0768705,51.3130697 42.4019108,48.5191166 Z" id="Path" fill="url(#linearGradient-19)"></path>
                    <path d="M44,44.8167838 C44,44.8167838 49.0573088,35.6744218 48.5331458,32.316003 C48.0089828,28.9575843 50.9465996,24.913037 52.962611,23.6731907 C54.9786225,22.4333444 55.2666242,22 55.2666242,22 C55.2666242,22 57.3690361,26.6343771 54.4544595,32.2678537 C51.5398829,37.9013302 45.7164898,46.3515451 44,44.8167838 Z" id="Path" fill="url(#linearGradient-20)"></path>
                    <path d="M55.5874046,33.2204757 C55.5874046,33.2204757 64.0113482,29.0993618 62.8987519,26.2729829 C61.7861556,23.446604 58.6182704,25.799165 56.2067316,28.7357341 C53.7951928,31.6723033 51,37 51,37 L55.5983661,32.5923915 L55.5874046,33.2204757 Z" id="Path" fill="#FFFFFF"></path>
                    <path d="M63.2248672,42 C63.2248672,42 69.3605062,37.4944041 69.9404343,32.8003388 C70.5203624,28.1062734 66.855217,25.2144465 59.4031412,32.0641303 C51.9510654,38.913814 56.2135368,41.6289509 56.2135368,41.6289509 L63.2248672,42 Z" id="Path" fill="url(#linearGradient-21)"></path>
                    <path d="M42,48.1400835 C42,48.1400835 39.8063435,45.9530156 39.1243251,47.6372396 C38.4423066,49.3214637 40.7886537,50 40.7886537,50 L41.9796412,49.4486893 L42,48.1400835 Z" id="Path" fill="#56BDAE"></path>
                    <path d="M42.6419913,50.2021162 C42.6419913,50.2021162 39.3505351,49.8295703 39.0382071,52.240475 C38.7258792,54.6513797 40.3716073,55.7796618 42.3957327,54.4065637 C44.4198581,53.0334657 44.2877194,51.4900609 43.320704,50.5320855 C42.3536886,49.5741102 42.6419913,50.2021162 42.6419913,50.2021162 Z" id="Path" fill="#56BDAE"></path>
                    <path d="M44.0389917,51.1042334 C44.0389917,51.1042334 40.3266991,56.0432546 42.9202186,57.6422627 C45.513738,59.2412708 46.4799511,55.0986668 45.7781753,52.7402842 C45.0763994,50.3819016 44.0389917,51.1042334 44.0389917,51.1042334 Z" id="Path" fill="#56BDAE"></path>
                    <path d="M41.036214,47.4984358 C41.036214,47.4984358 40.5359136,50.889891 43.2544137,51.8459928 C45.9729138,52.8020945 48.3779727,49.073899 51.7474662,47.0714973 C55.1169598,45.0690956 62.0669169,45.0330162 64.4056709,37.7991144 C66.7444249,30.5652126 61.6329213,30.5832523 58.5708413,31.3108517 C55.5087613,32.0384512 53.0434253,30.1563138 50.0476502,33.5898615 C47.0518751,37.0234093 47.8234228,38.7732558 45.8282486,41.3409001 C43.8330745,43.9085444 41.7896786,44.8165404 41.036214,47.4984358 Z" id="Path" fill="url(#linearGradient-22)"></path>
                    <path d="M132.032675,81.1229886 C132.032675,81.1229886 133.74955,84.7462136 136.90812,81.9247496 C140.06669,79.1032855 140.724726,77.0897027 145.229278,75.7309933 C149.733829,74.3722839 154.800703,73.4481167 157.390969,70.7429386 C159.981236,68.0377605 162.302307,62.7865323 160.154718,60.2772042 C158.00713,57.7678761 154.42981,59.6651729 152.856507,60.038512 C151.283204,60.4118511 149.141598,60.9320776 145.791599,63.973873 C142.4416,67.0156683 131.320801,78.7360667 132.032675,81.1229886 Z" id="Path" fill="url(#linearGradient-23)"></path>
                    <path d="M133.208001,73.9637185 C133.208001,73.9637185 134.423763,63.7456827 132.799112,60.9269142 C131.174461,58.1081457 132.31935,53.2927495 133.644149,51.4076981 C134.968948,49.5226467 135.061629,49 135.061629,49 C135.061629,49 138.512649,52.3472876 137.934753,58.5661956 C137.356857,64.7851036 135.24154,74.6742831 133.208001,73.9637185 Z" id="Path" fill="url(#linearGradient-24)"></path>
                    <path d="M139.057651,61.4391896 C139.057651,61.4391896 145.832447,54.0073983 143.518225,51.7193565 C141.204002,49.4313147 139.003693,52.9995014 137.798618,56.8341435 C136.593544,60.6687857 136,67 136,67 L138.793854,60.8599385 L139.057651,61.4391896 Z" id="Path" fill="#FFFFFF"></path>
                    <path d="M150.049643,65.5979139 C150.049643,65.5979139 154.004982,59.0392769 152.756233,54.4823783 C151.507485,49.9254797 147.017797,48.6949993 142.737203,57.9265458 C138.456608,67.1580924 143.434179,68 143.434179,68 L150.049643,65.5979139 Z" id="Path" fill="url(#linearGradient-25)"></path>
                    <path d="M131.621093,80.3191081 C131.621093,80.3191081 129.077681,79.1431855 129.0019,81.3060432 C128.926118,83.468901 131.142723,82.9439355 131.142723,82.9439355 L132,81.7190161 L131.621093,80.3191081 Z" id="Path" fill="#56BDAE"></path>
                    <path d="M133.102955,80.2189159 C133.102955,80.2189159 130.445848,81.0921741 131.10513,83.6881863 C131.764412,86.2841985 133.412618,86.8247869 134.466471,84.6386713 C135.520323,82.4525558 134.866036,80.9139581 133.777221,80.2961429 C132.688406,79.6783276 133.102955,80.2189159 133.102955,80.2189159 Z" id="Path" fill="#56BDAE"></path>
                    <path d="M134.617418,80.3038987 C134.617418,80.3038987 132.659383,85.7653336 135.717137,85.9902162 C138.77489,86.2150988 138.340368,82.5045357 136.854407,80.90894 C135.368446,79.3133443 134.617418,80.3038987 134.617418,80.3038987 Z" id="Path" fill="#56BDAE"></path>
                    <path d="M131.044373,79.9018776 C131.044373,79.9018776 131.85191,83.1588526 134.583789,82.9939425 C137.315667,82.8290324 138.060205,78.5590381 140.276635,75.4846422 C142.493065,72.4102463 148.569634,69.7540153 147.956822,62.3330597 C147.344011,54.9121041 142.865333,56.8380188 140.465633,58.6696991 C138.065932,60.5013794 135.190873,59.7121666 133.82207,63.9409334 C132.453267,68.1697002 133.781979,69.4654226 132.974443,72.5339289 C132.166906,75.6024351 130.729377,77.1808606 131.044373,79.9018776 Z" id="Path" fill="url(#linearGradient-26)"></path>
                    <path d="M86.0381017,111.814467 C86.0381017,111.814467 88.0558082,116.037135 91.7588931,112.743454 C95.461978,109.449772 96.2393885,107.109208 101.526966,105.504594 C106.814544,103.89998 112.748975,102.844312 115.769601,99.6893758 C118.790226,96.5344392 121.531933,90.4176022 119.0098,87.4918961 C116.487667,84.56619 112.297959,86.7680101 110.452351,87.2144065 C108.606743,87.6608028 106.090544,88.2519764 102.144147,91.8050504 C98.1977507,95.3581243 85.2072813,109.027506 86.0381017,111.814467 Z" id="Path" fill="url(#linearGradient-27)"></path>
                    <path d="M88.1748976,109.34238 C88.1748976,109.34238 85.4582444,111.82411 88.2868638,112.877838 C91.1154831,113.931566 97.9513132,107.810731 102.359245,108.213797 C106.767177,108.616862 116.408055,108.726265 119.213102,105.334759 C122.01815,101.943252 121.204922,100.377056 118.947919,100.083394 C116.690916,99.7897318 113.284787,100.267652 109.024179,101.580493 C104.763572,102.893335 101.71102,106.043002 97.1145133,105.743582 C92.5180069,105.444162 89.3299172,106.296357 88.1748976,109.34238 Z" id="Path" fill="url(#linearGradient-28)"></path>
                    <path d="M82.8097799,110.008005 C82.8097799,110.008005 83.6239411,97.3988786 81.8835241,92.7409616 C80.1431071,88.0830447 78.5442834,85.2385615 77.1165515,79.3979703 C75.6888196,73.5573792 73.5295226,71.6651004 72.0250944,72.0471951 C70.5206661,72.4292899 68.4498649,79.7194151 71.8068048,84.1771872 C75.1637447,88.6349593 78.4557876,92.122332 79.0634586,96.9136789 C79.6711296,101.705026 80.4911905,114.659857 82.8097799,110.008005 Z" id="Path" fill="url(#linearGradient-29)"></path>
                    <path d="M83.609201,103.957095 C83.609201,103.957095 85.2329062,91.6929812 83.0618156,88.3140926 C80.890725,84.9352039 82.4467758,79.1785789 84.1873385,76.8842718 C85.9279012,74.5899647 86.0816611,74 86.0816611,74 C86.0816611,74 90.682159,78.0165272 89.9133592,85.4774947 C89.1445594,92.9384622 86.327677,104.803307 83.609201,103.957095 Z" id="Path" fill="url(#linearGradient-30)"></path>
                    <path d="M90.4323938,88.390976 C90.4323938,88.390976 98.0624738,79.5673187 95.458195,76.8527944 C92.8539162,74.13827 90.3752824,78.3757181 88.9931871,82.9386766 C87.6110917,87.5016351 87,95 87,95 L90.1411258,87.7167045 L90.4323938,88.390976 Z" id="Path" fill="#FFFFFF"></path>
                    <path d="M101.560481,94.029151 C101.560481,94.029151 106.179198,85.9285129 104.712211,80.3005069 C103.245224,74.672501 98.0248133,73.1532469 93.0278887,84.5568786 C88.0309641,95.9605104 93.841608,97 93.841608,97 L101.560481,94.029151 Z" id="Path" fill="url(#linearGradient-31)"></path>
                    <path d="M81.4930148,111.321142 C81.4930148,111.321142 78.1095556,110.140366 78.0028219,112.307089 C77.8960882,114.473811 80.8526124,113.942463 80.8526124,113.942463 L82,112.72036 L81.4930148,111.321142 Z" id="Path" fill="#56BDAE"></path>
                    <path d="M83.6347355,111.25699 C83.6347355,111.25699 80.3295356,112.276835 81.1229938,115.307064 C81.916452,118.337293 83.9920544,118.958578 85.3267457,116.408965 C86.6614369,113.859353 85.8206865,112.065833 84.4649765,111.344908 C83.1092665,110.623983 83.6347355,111.25699 83.6347355,111.25699 Z" id="Path" fill="#56BDAE"></path>
                    <path d="M85.769593,111.408653 C85.769593,111.408653 83.3259993,118.685121 87.1473035,118.986799 C90.9686077,119.288476 90.424327,114.340961 88.5703708,112.211116 C86.7164146,110.081271 85.769593,111.408653 85.769593,111.408653 Z" id="Path" fill="#56BDAE"></path>
                    <path d="M82.0531567,111.185746 C82.0531567,111.185746 83.0580376,115.189206 86.4315664,114.993018 C89.8050952,114.79683 90.7202546,109.530411 93.4597513,105.741532 C96.1992481,101.952653 103.705948,98.6910294 102.946306,89.5560301 C102.186663,80.4210309 96.6598185,82.812071 93.6930272,85.0498392 C90.726236,87.2876075 87.1792457,86.3250606 85.4924813,91.5363018 C83.8057169,96.747543 85.4446298,98.3354388 84.4457303,102.112056 C83.4468309,105.888673 81.670345,107.83216 82.0531567,111.185746 Z" id="Path" fill="url(#linearGradient-32)"></path>
                    <path d="M24.0590122,30.5427722 C24.0590122,30.5427722 25.9847337,33.6523372 28.6189754,30.7866596 C31.2532171,27.9209821 31.6468394,26.0369515 35.6860099,24.3663225 C39.7251805,22.6956934 44.2730322,21.3604096 46.3985928,18.6593561 C48.5241533,15.9583025 50.1591999,10.9769013 47.9428034,8.90385797 C45.726407,6.83081462 42.6198185,8.90385797 41.2088339,9.40382725 C39.7978493,9.90379653 37.8721278,10.6171673 35.1107158,13.6657605 C32.3493038,16.7143536 23.1809316,28.4514373 24.0590122,30.5427722 Z" id="Path" fill="url(#linearGradient-33)"></path>
                    <path d="M25.8130404,24.9848509 C25.8130404,24.9848509 23.0376085,16.2244703 21.1496,13.718866 C19.2615916,11.2132617 20.0179862,6.17127176 21.1496,4.21357602 C22.2812139,2.25588029 25.2174542,1 25.2174542,1 C25.2174542,1 28.9696476,3.81341809 28.9994269,9.79731827 C29.0292062,15.7812185 27.8975923,25.4342591 25.8130404,24.9848509 Z" id="Path" fill="url(#linearGradient-34)"></path>
                    <path d="M29.8802521,11.7079873 C29.8802521,11.7079873 34.4772825,4.38985693 32.510775,2.52445115 C30.5442676,0.659045368 29.124296,4.09713171 28.5164665,7.69019023 C27.9086369,11.2832487 28.0056853,17 28.0056853,17 L29.6452928,11.2143722 L29.8802521,11.7079873 Z" id="Path" fill="#FFFFFF"></path>
                    <path d="M38.1893718,15.1715178 C38.1893718,15.1715178 41.0830652,8.84557619 39.5541078,4.83758167 C38.0251505,0.829587142 33.9366052,0.143005357 30.9976093,8.94533594 C28.0586135,17.7476665 32.5492179,18 32.5492179,18 L38.1893718,15.1715178 Z" id="Path" fill="url(#linearGradient-35)"></path>
                    <path d="M24.5251032,30.1320462 C24.5251032,30.1320462 21.9441422,29.3651088 22.0009233,31.5278721 C22.0577045,33.6906354 24.2360355,32.8316656 24.2360355,32.8316656 L25,31.4818559 L24.5251032,30.1320462 Z" id="Path" fill="#56BDAE"></path>
                    <path d="M24.8935842,31.1798136 C24.8935842,31.1798136 22.308349,32.1821734 23.1792811,34.2681653 C24.0502132,36.3541573 25.7700285,36.6250653 26.6354484,34.7016182 C27.5008682,32.7781711 26.7015951,31.5699212 25.5330027,31.1743954 C24.3644103,30.7788697 24.8935842,31.1798136 24.8935842,31.1798136 Z" id="Path" fill="#56BDAE"></path>
                    <path d="M28.2993932,31.389744 C28.2993932,31.389744 26.9535826,37.0995797 29.9686603,36.9986783 C32.9837379,36.8977768 32.1750964,33.2119057 30.5462614,31.7577375 C28.9174263,30.3035694 28.2993932,31.389744 28.2993932,31.389744 Z" id="Path" fill="#56BDAE"></path>
                    <path d="M24.1421412,30.4613407 C24.1421412,30.4613407 25.1758743,33.3819784 27.6374156,32.9579185 C30.0989569,32.5338587 30.373096,28.5202215 32.0921771,25.4681849 C33.8112581,22.4161483 39.0770147,19.3521664 37.8034098,12.5791537 C36.5298049,5.80614098 32.6633003,8.02200316 30.6700801,9.95117697 C28.6768599,11.8803508 25.9868693,11.4383729 25.1473181,15.4759007 C24.3077669,19.5134286 25.6213504,20.570592 25.1758743,23.4792844 C24.7303981,26.3879768 23.6052853,27.9886535 24.1421412,30.4613407 Z" id="Path" fill="url(#linearGradient-36)"></path>
                    <path d="M167,101.404338 C167,101.404338 167.465427,105.166657 171.17117,103.632105 C174.876912,102.097553 176.084666,100.515602 180.597542,100.705199 C185.110417,100.894796 189.953216,101.641335 193.116942,100.029759 C196.280668,98.4181827 199.956953,94.4721915 198.772765,91.5749096 C197.588577,88.6776277 193.776788,89.2464192 192.23322,89.0982964 C190.689651,88.9501736 188.598175,88.7368768 184.650882,90.4136269 C180.703588,92.0903769 167.076589,99.0639981 167,101.404338 Z" id="Path" fill="url(#linearGradient-37)"></path>
                    <path d="M169.585225,100.528738 C169.585225,100.528738 166.725097,101.73194 168.688405,103.251477 C170.651713,104.771013 177.826272,101.839268 181.243882,103.251477 C184.661493,104.663685 192.332938,107.205661 195.514224,105.341545 C198.69551,103.47743 198.489484,102.065221 196.7625,101.274385 C195.035516,100.483548 192.187507,99.9695039 188.412381,99.8904202 C184.637254,99.8113365 181.322657,101.44385 177.729318,100.048588 C174.13598,98.6533254 171.354626,98.4951581 169.585225,100.528738 Z" id="Path" fill="url(#linearGradient-38)"></path>
                    <path d="M164.256061,99.4779316 C164.256061,99.4779316 168.149398,90.1856123 167.995558,86.2157924 C167.841718,82.2459724 167.332862,79.6758816 167.729296,74.8885728 C168.12573,70.1012641 166.930511,68.1075323 165.658372,68.0016704 C164.386233,67.8958085 160.88933,72.8419101 162.35081,77.0881471 C163.812291,81.3343842 165.486781,84.8395881 164.717581,88.6329716 C163.948381,92.4263551 161.256179,102.37737 164.256061,99.4779316 Z" id="Path" fill="url(#linearGradient-39)"></path>
                    <path d="M166,94.8556195 C166,94.8556195 170.136066,85.6701459 169.446721,82.458232 C168.757377,79.246318 171.239017,75.1338674 173.031312,73.8010732 C174.823607,72.468279 175.060741,72 175.060741,72 C175.060741,72 177.266643,76.3405865 174.917358,81.9839494 C172.568072,87.6273122 167.676485,96.2184316 166,94.8556195 Z" id="Path" fill="url(#linearGradient-40)"></path>
                    <path d="M175.20734,83.7936206 C175.20734,83.7936206 183.132539,79.001249 181.862087,76.1931281 C180.591635,73.3850072 177.671246,76.0074672 175.515328,79.1695042 C173.35941,82.3315411 171,88 171,88 L175.179841,83.1902227 L175.20734,83.7936206 Z" id="Path" fill="#FFFFFF"></path>
                    <path d="M184.116713,91.8816361 C184.116713,91.8816361 189.734298,87.0878996 189.987809,82.4717088 C190.241321,77.855518 186.530834,75.2988585 179.795494,82.4717088 C173.060154,89.6445591 177.341042,92 177.341042,92 L184.116713,91.8816361 Z" id="Path" fill="url(#linearGradient-41)"></path>
                    <path d="M163.943179,100.00109 C163.943179,100.00109 161.670342,97.9447033 161.091801,99.7264793 C160.513261,101.508255 162.858416,102 162.858416,102 L164,101.361371 L163.943179,100.00109 Z" id="Path" fill="#56BDAE"></path>
                    <path d="M164.773793,101.197076 C164.773793,101.197076 162.099573,101.030681 162.004601,103.403154 C161.909629,105.775628 163.299223,106.779367 164.848771,105.319383 C166.398319,103.859399 166.193379,102.361842 165.348625,101.481558 C164.503872,100.601274 164.773793,101.197076 164.773793,101.197076 Z" id="Path" fill="#56BDAE"></path>
                    <path d="M165.807981,102.115619 C165.807981,102.115619 162.314397,106.58973 165.039926,107.767985 C167.765455,108.94624 168.522843,105.351748 167.664114,103.39161 C166.805386,101.431471 165.807981,102.115619 165.807981,102.115619 Z" id="Path" fill="#56BDAE"></path>
                    <path d="M162.006907,98.7394757 C162.006907,98.7394757 161.740607,102.137811 164.515078,102.901205 C167.289548,103.664599 169.426138,99.8230029 172.646505,97.6005408 C175.866872,95.3780787 182.778276,94.8794099 184.611408,87.5471318 C186.44454,80.2148538 181.360076,80.5472996 178.36885,81.5015423 C175.377624,82.4557851 172.795137,80.7258354 170.033053,84.3334885 C167.270969,87.9411417 168.175149,89.6279966 166.360596,92.3368147 C164.546043,95.0456328 162.595243,96.0183448 162.006907,98.7394757 Z" id="Path" fill="url(#linearGradient-42)"></path>
                    <path d="M127.122529,111.451807 C127.122529,111.451807 124.896764,107.522948 123.41292,112.59156 C121.929076,117.660172 124.921494,122 124.921494,122 C124.921494,122 133.428865,115.890267 131.790454,112.481968 C130.152043,109.073669 127.122529,111.451807 127.122529,111.451807 Z" id="Path" fill="url(#linearGradient-43)"></path>
                </g>
                <g id="Group-16" transform="translate(271.000000, 124.000000)">
                    <g id="Path">
                        <use fill="black" fill-opacity="1" filter="url(#filter-46)" xlink:href="#path-45"></use>
                        <use fill="url(#linearGradient-44)" fill-rule="evenodd" xlink:href="#path-45"></use>
                    </g>
                    <g id="Group-13" transform="translate(83.000000, 25.000000)">
                        <g id="Path">
                            <use fill="black" fill-opacity="1" filter="url(#filter-48)" xlink:href="#path-47"></use>
                            <use fill="url(#linearGradient-44)" fill-rule="evenodd" xlink:href="#path-47"></use>
                        </g>
                        <path d="M27,40.5 C27,41.8807119 25.8807119,43 24.5,43 C23.1192881,43 22,41.8807119 22,40.5 C22,39.1192881 23.1192881,38 24.5,38 C25.8791586,38.0037426 26.9962574,39.1208414 27,40.5 Z" id="Path" fill="#FFFFFF"></path>
                        <path d="M52,37.4999724 C51.9999962,38.5117321 51.3901599,39.4237374 50.4551509,39.8102816 C49.5201419,40.1968259 48.4443305,39.9816882 47.7298848,39.2652906 C47.0154391,38.5488931 46.8032374,37.4724991 47.1923316,36.5385485 C47.5814257,35.6045979 48.4950917,34.9972525 49.5068481,35.0000093 C50.884879,35.0037642 52.0000051,36.1219368 52,37.4999724 Z" id="Path" fill="#FFFFFF"></path>
                        <path d="M55.9999907,19.5000047 C55.9999907,20.880714 54.8807046,22 53.4999953,22 C52.119286,22 51,20.880714 51,19.5000047 C51,18.1192954 52.119286,17.0000093 53.4999953,17.0000093 C54.1635902,16.9981938 54.8005293,17.2610023 55.2697635,17.7302365 C55.7389977,18.1994707 56.0018062,18.8364098 55.9999907,19.5000047 Z" id="Path" fill="#FFFFFF"></path>
                    </g>
                    <path d="M32.9999925,53.9999779 C32.9999895,54.8093857 32.5121214,55.5389899 31.7641156,55.8482253 C31.0161097,56.1574607 30.1554622,55.9853505 29.5839067,55.4122325 C29.0123512,54.8391145 28.8425902,53.9779993 29.153865,53.2308388 C29.4651397,52.4836784 30.1960712,51.997802 31.0054747,52.0000075 C31.5353993,52.0000055 32.0435403,52.2108898 32.417742,52.5861145 C32.7919437,52.9613392 33.0014404,53.4700545 32.9999925,53.9999779 Z" id="Path" fill="#FFFFFF"></path>
                    <path d="M58,36 C58,37.1045695 57.1045695,38 56,38 C54.8954305,38 54,37.1045695 54,36 C54,34.8954305 54.8954305,34 56,34 C57.1045695,34 58,34.8954305 58,36 Z" id="Path" fill="#FFFFFF"></path>
                    <path d="M87,37 C87,38.1045695 86.1045695,39 85,39 C83.8954305,39 83,38.1045695 83,37 C83,35.8954305 83.8954305,35 85,35 C86.1045695,35 87,35.8954305 87,37 Z" id="Path" fill="#FFFFFF"></path>
                    <path d="M73,33.9999708 C73,34.8088834 72.5127228,35.5381454 71.7653849,35.8477028 C71.0180471,36.1572603 70.157824,35.9861513 69.5858363,35.4141637 C69.0138487,34.842176 68.8427397,33.9819529 69.1522972,33.2346151 C69.4618546,32.4872772 70.1911166,32 71.0000292,32 C72.1045826,32 73,32.8954174 73,33.9999708 Z" id="Path" fill="#FFFFFF"></path>
                    <path d="M69.5688109,38.5155389 C69.5688109,38.5155389 71.1611238,37.2077527 71.8487134,39.5986393 C72.5363031,41.989526 70.8293919,45.2503497 67.7593644,47.5432964 C64.6893368,49.8362431 63.8931804,51 63.8931804,51 C63.8931804,51 60.8110899,45.6766765 62.5119696,40.7854409 C64.2128493,35.8942053 69.9126057,36.4472779 69.5688109,38.5155389 Z" id="Path" fill="url(#linearGradient-49)"></path>
                    <path d="M103,10.9999779 C102.999997,11.8093857 102.512128,12.5389899 101.764121,12.8482253 C101.016114,13.1574607 100.155464,12.9853505 99.5839078,12.4122325 C99.0123512,11.8391145 98.84259,10.9779993 99.1538652,10.2308388 C99.4651405,9.48367835 100.196073,8.99780201 101.005478,9.00000748 C102.107903,9.00301137 103.000004,9.89754941 103,10.9999779 Z" id="Path" fill="#FFFFFF"></path>
                </g>
                <g id="Group-14" transform="translate(16.000000, 102.000000)">
                    <g id="Path">
                        <use fill="black" fill-opacity="1" filter="url(#filter-51)" xlink:href="#path-50"></use>
                        <use fill="url(#linearGradient-44)" fill-rule="evenodd" xlink:href="#path-50"></use>
                    </g>
                    <g id="Path">
                        <use fill="black" fill-opacity="1" filter="url(#filter-54)" xlink:href="#path-53"></use>
                        <use fill="url(#linearGradient-52)" fill-rule="evenodd" xlink:href="#path-53"></use>
                    </g>
                    <g id="Path">
                        <use fill="black" fill-opacity="1" filter="url(#filter-56)" xlink:href="#path-55"></use>
                        <use fill="url(#linearGradient-44)" fill-rule="evenodd" xlink:href="#path-55"></use>
                    </g>
                    <path d="M31.9999925,32.9999779 C31.9999895,33.8093857 31.5121214,34.5389899 30.7641156,34.8482253 C30.0161097,35.1574607 29.1554622,34.9853505 28.5839067,34.4122325 C28.0123512,33.8391145 27.8425902,32.9779993 28.153865,32.2308388 C28.4651397,31.4836784 29.1960712,30.997802 30.0054747,31.0000075 C30.5353993,31.0000055 31.0435403,31.2108898 31.417742,31.5861145 C31.7919437,31.9613392 32.0014404,32.4700545 31.9999925,32.9999779 Z" id="Path" fill="#FFFFFF"></path>
                    <path d="M48.9999925,19.9999779 C48.9999895,20.8093857 48.5121214,21.5389899 47.7641156,21.8482253 C47.0161097,22.1574607 46.1554622,21.9853505 45.5839067,21.4122325 C45.0123512,20.8391145 44.8425902,19.9779993 45.153865,19.2308388 C45.4651397,18.4836784 46.1960712,17.997802 47.0054747,18.0000075 C47.5353993,18.0000055 48.0435403,18.2108898 48.417742,18.5861145 C48.7919437,18.9613392 49.0014404,19.4700545 48.9999925,19.9999779 Z" id="Path" fill="#FFFFFF"></path>
                    <path d="M67.9999925,50.0000037 C67.9999925,51.1045712 67.1045637,52 65.9999963,52 C64.8954288,52 64,51.1045712 64,50.0000037 C64,48.8954363 64.8954288,48.0000075 65.9999963,48.0000075 C66.5308722,47.998555 67.0404234,48.2088018 67.4158108,48.5841892 C67.7911982,48.9595766 68.001445,49.4691278 67.9999925,50.0000037 Z" id="Path" fill="#FFFFFF"></path>
                    <path d="M105.999993,73.0000037 C105.999993,74.1045712 105.104564,75 103.999996,75 C102.895429,75 102,74.1045712 102,73.0000037 C102,71.8954363 102.895429,71.0000075 103.999996,71.0000075 C104.530872,70.998555 105.040423,71.2088018 105.415811,71.5841892 C105.791198,71.9595766 106.001445,72.4691278 105.999993,73.0000037 Z" id="Path" fill="#FFFFFF"></path>
                    <path d="M124.999993,55.9945216 C125.002198,56.8039266 124.516322,57.5348595 123.769161,57.8461348 C123.022001,58.15741 122.160886,57.9876488 121.587767,57.4160922 C121.014649,56.8445356 120.842539,55.9838865 121.151775,55.2358793 C121.46101,54.4878721 122.190614,54.000003 123.000022,54 C124.102451,53.9999959 124.996989,54.8920968 124.999993,55.9945216 Z" id="Path" fill="#FFFFFF"></path>
                    <path d="M138,80.9999779 C137.999997,81.8093857 137.512128,82.5389899 136.764121,82.8482253 C136.016114,83.1574607 135.155464,82.9853505 134.583908,82.4122325 C134.012351,81.8391145 133.84259,80.9779993 134.153865,80.2308388 C134.465141,79.4836784 135.196073,78.997802 136.005478,79.0000075 C137.107903,79.0030114 138.000004,79.8975494 138,80.9999779 Z" id="Path" fill="#FFFFFF"></path>
                    <path d="M66.9999925,96.9945287 C67.0021964,97.8044289 66.5157287,98.5357055 65.7678981,98.8466598 C65.0200674,99.1576141 64.1585244,98.9868517 63.5858363,98.4141637 C63.0131483,97.8414756 62.8423859,96.9799326 63.1533402,96.2321019 C63.4642945,95.4842713 64.1955711,94.9978036 65.0054713,95.0000075 C66.107015,95.0000075 66.9999925,95.892985 66.9999925,96.9945287 Z" id="Path" fill="#FFFFFF"></path>
                    <path d="M51,82 C51,83.1045695 50.1045695,84 49,84 C47.8954305,84 47,83.1045695 47,82 C47,80.8954305 47.8954305,80 49,80 C49.530433,80 50.0391408,80.2107137 50.4142136,80.5857864 C50.7892863,80.9608592 51,81.469567 51,82 Z" id="Path" fill="#FFFFFF"></path>
                    <path d="M39.9999925,93.9945216 C40.002198,94.8039266 39.5163216,95.5348595 38.7691612,95.8461348 C38.0220007,96.15741 37.1608855,95.9876488 36.5877675,95.4160922 C36.0146495,94.8445356 35.8425393,93.9838865 36.1517747,93.2358793 C36.4610101,92.4878721 37.1906143,92.000003 38.0000221,92 C39.1024506,91.9999959 39.9969886,92.8920968 39.9999925,93.9945216 Z" id="Path" fill="#FFFFFF"></path>
                    <path d="M33,75.9999779 C32.999997,76.8093857 32.5121279,77.5389899 31.7641207,77.8482253 C31.0161135,78.1574607 30.1554644,77.9853505 29.5839078,77.4122325 C29.0123512,76.8391145 28.84259,75.9779993 29.1538652,75.2308388 C29.4651405,74.4836784 30.1960734,73.997802 31.0054784,74.0000075 C32.1079032,74.0030114 33.0000041,74.8975494 33,75.9999779 Z" id="Path" fill="#FFFFFF"></path>
                </g>
                <path d="M124.284761,145 C124.284761,145 113.931053,150.380171 119.802076,154.449208 C124.51419,157.738346 128.349768,145.231709 124.284761,145 Z" id="Path" fill="url(#linearGradient-57)"></path>
                <path d="M330.237366,142.822212 C330.237366,142.822212 335.689026,143.97788 331.275778,148.02817 C326.862529,152.078461 320.348858,150.922792 319.292746,150.595716 C318.236635,150.26864 320.018454,144.746509 324.956808,141.503006 C329.895163,138.259503 331.47638,141.006941 330.237366,142.822212 Z" id="Path" fill="url(#linearGradient-58)"></path>
                <path d="M216,200.899776 C216,200.899776 221.424787,215.708964 232.029075,212.560832 C238.11556,210.750951 232.96458,206.718513 232.96458,206.718513 C232.96458,206.718513 235.594261,202.426679 227.305917,199.909353 C219.017573,197.392027 216,200.899776 216,200.899776 Z" id="Path" fill="url(#linearGradient-59)"></path>
                <path d="M291.730413,191.722985 C291.730413,191.722985 291.629508,195.584477 288.456619,193.250199 C285.283731,190.915921 284,184 284,184 C284,184 293.630782,186.563981 294.796791,189.71774 C295.9628,192.871499 291.730413,191.722985 291.730413,191.722985 Z" id="Path" fill="url(#linearGradient-60)"></path>
                <path d="M387.648802,81.4568348 C387.648802,81.4568348 390.17144,84.4329153 386.666484,86.2634169 C383.161528,88.0939186 378,85.9361087 378,85.9361087 C378,85.9361087 383.690468,74.9470374 387.30005,77.3412366 C390.909632,79.7354358 387.648802,81.4568348 387.648802,81.4568348 Z" id="Path" fill="url(#linearGradient-61)"></path>
            </g>
        </g>
    </g>
</svg>