<?xml version="1.0" encoding="UTF-8"?>
<svg width="60px" height="60px" viewBox="0 0 60 60" version="1.1" xmlns="http://www.w3.org/2000/svg" xmlns:xlink="http://www.w3.org/1999/xlink">
    <!-- Generator: Sketch 52.1 (67048) - http://www.bohemiancoding.com/sketch -->
    <title>details_share_weixin</title>
    <desc>Created with Sketch.</desc>
    <g id="Page-1" stroke="none" stroke-width="1" fill="none" fill-rule="evenodd">
        <g id="查看别人文章分享" transform="translate(-51.000000, -500.000000)" fill-rule="nonzero">
            <g id="Group-11" transform="translate(0.000000, 467.000000)">
                <g id="Group-10" transform="translate(51.000000, 33.000000)">
                    <circle id="Oval" fill="#F2F2F2" cx="30" cy="30" r="30"></circle>
                    <g id="微信-(5)" transform="translate(13.000000, 16.000000)" fill="#09BB07">
                        <path d="M23.4248072,8.46418902 C23.818166,8.46418902 24.2115249,8.50052107 24.6028455,8.53485057 C23.5501814,3.64979821 18.2695888,0 12.2542375,0 C5.52765773,0.0236015326 0.0158773946,4.56986462 0.0158773946,10.3426922 C0.0158773946,13.6707944 1.85318519,16.4156884 4.90514943,18.5408633 L3.6732567,22.1865134 L7.95714943,20.0635198 C9.49189272,20.3637241 10.7238927,20.6639285 12.2391111,20.6639285 C12.63247,20.6639285 13.0065185,20.6467637 13.3803525,20.6123627 C13.1374119,19.7833592 13.0115705,18.9244603 13.0064828,18.0606079 C13.0238263,12.7680715 17.610355,8.46633461 23.4270243,8.46633461 L23.4248787,8.46418902 L23.4248072,8.46418902 Z M16.8409451,5.1745645 C17.7703448,5.1745645 18.3755096,5.77497318 18.3755096,6.69704215 C18.3755096,7.59776245 17.7703448,8.21966284 16.8409451,8.21966284 C15.9308557,8.21966284 15.0036015,7.61710856 15.0036015,6.69700639 C15.0036015,5.77497318 15.9308557,5.1745645 16.8409451,5.1745645 Z M8.27487612,8.21966284 C7.36714687,8.21966284 6.43774713,7.61710856 6.43774713,6.69700639 C6.43774713,5.77497318 7.36714687,5.1745645 8.27487612,5.1745645 C9.18496552,5.1745645 9.80961941,5.77497318 9.80961941,6.69704215 C9.80961941,7.59776245 9.2044189,8.21966284 8.27487612,8.21966284 Z M34.5997037,17.9340179 C34.5997037,13.083295 29.7104317,9.11823755 24.1941814,9.11823755 C18.3776552,9.11823755 13.7909834,13.083295 13.7909834,17.9340179 C13.7909834,22.8019413 18.3776552,26.7519438 24.1941814,26.7519438 C25.4090166,26.7519438 26.6409808,26.4517395 27.8709425,26.1493895 L31.2255428,27.9721788 L30.2982886,24.9441379 C32.7623959,23.0871264 34.5997037,20.6595658 34.5997037,17.9340179 Z M20.8223091,16.4113614 C20.2171443,16.4113614 19.5903091,15.8109527 19.5903091,15.1891239 C19.5903091,14.5887152 20.2171443,13.9668506 20.8223091,13.9668506 C21.7517088,13.9668506 22.3570524,14.5694049 22.3570524,15.1891239 C22.3570524,15.8109885 21.7517088,16.4113972 20.8223091,16.4113972 L20.8223091,16.4113614 Z M27.5510702,16.4113614 C26.9437241,16.4113614 26.336235,15.8109527 26.336235,15.1891239 C26.336235,14.5887152 26.9415428,13.9668506 27.5510702,13.9668506 C28.4783244,13.9668506 29.0856347,14.5694049 29.0856347,15.1891239 C29.0856347,15.8109885 28.4783244,16.4113972 27.5510702,16.4113972 L27.5510702,16.4113614 Z" id="Shape"></path>
                    </g>
                </g>
            </g>
        </g>
    </g>
</svg>