<?xml version="1.0" encoding="UTF-8"?>
<svg width="30px" height="30px" viewBox="0 0 30 30" version="1.1" xmlns="http://www.w3.org/2000/svg" xmlns:xlink="http://www.w3.org/1999/xlink">
    <!-- Generator: Sketch 52.1 (67048) - http://www.bohemiancoding.com/sketch -->
    <title>musicstop</title>
    <desc>Created with Sketch.</desc>
    <g id="模板" stroke="none" stroke-width="1" fill="none" fill-rule="evenodd">
        <g id="查看别人文章-模板" transform="translate(-330.000000, -112.000000)" fill-rule="nonzero">
            <g id="Group-17-Copy" transform="translate(330.000000, 112.000000)">
                <circle id="Oval" stroke="#FFFFFF" fill-opacity="0.2" fill="#000000" cx="15" cy="15" r="14.5"></circle>
                <path d="M17.6966158,7.93057078 L17.6966158,18.2837716 C17.8092715,19.1227231 17.6592376,19.9620536 17.2298209,20.7016046 C16.7164706,21.5857078 15.8894063,22.2416554 14.8912253,22.4983305 L12.8378243,23.0402002 C12.5241103,23.1257586 12.1818768,23.1827975 11.8396433,23.1827975 C11.1836958,23.1827975 10.5277482,23.0116807 9.9288396,22.6694472 C9.04473639,22.156097 8.38878886,21.3290327 8.13211373,20.3308517 C7.87543861,19.3326706 7.98951644,18.3059701 8.50286669,17.4218669 C9.01621694,16.5377637 9.84328122,15.8818162 10.8414623,15.6251411 L12.8948632,15.0832714 C13.8930443,14.8265962 14.9197448,14.9406741 15.803848,15.4540243 C15.8655106,15.4898284 15.9260634,15.5271586 15.9854483,15.5659665 L15.9854483,6.99818104 C15.9854483,6.83948107 16.0251727,6.69300401 16.0956195,6.56775196 C16.2311505,6.18415919 16.6217638,5.93697656 17.0587041,6.01408368 C19.3402608,6.4133561 21.3936618,7.61117334 22.8196347,9.43641866 C23.1048293,9.80717162 23.0477903,10.3490413 22.6770374,10.6342359 C22.5344401,10.7768332 22.3633233,10.8338721 22.1636871,10.8338721 C21.907012,10.8338721 21.6503369,10.7197943 21.4792201,10.5201581 C20.5109728,9.292137 19.1907306,8.39655542 17.6966158,7.93057078 Z M15.9854483,18.3635967 C15.9743803,18.3155092 15.9613919,18.2677429 15.9464453,18.2204118 C15.803848,17.6785421 15.433095,17.2222307 14.9482642,16.9370362 C14.6345502,16.7373999 14.2637972,16.6518416 13.8930443,16.6518416 C13.6934081,16.6518416 13.5222913,16.680361 13.3511746,16.7373999 L11.2977736,17.2792697 C10.7559039,17.4218669 10.2995926,17.7926199 10.014398,18.2774507 C9.72920339,18.7622815 9.64364501,19.3611901 9.81476176,19.9030598 C9.95735905,20.4449295 10.328112,20.9012408 10.8129428,21.1864354 C11.2977736,21.47163 11.8966822,21.5571884 12.4385519,21.3860716 L14.4919529,20.8442019 C15.0053031,20.7016046 15.4616145,20.3308517 15.7468091,19.8460209 C15.9047845,19.5774626 16.0015058,19.2739019 16.0272785,18.9644216 C16.0000612,18.8791693 15.9854483,18.7874122 15.9854483,18.6911589 L15.9854483,18.3635967 Z" id="Combined-Shape" fill="#FF467D"></path>
                <rect id="Rectangle" fill="#FFFFFF" transform="translate(15.000000, 15.500000) rotate(30.000000) translate(-15.000000, -15.500000) " x="0" y="15" width="30" height="1" rx="0.5"></rect>
            </g>
        </g>
    </g>
</svg>