<?xml version="1.0" encoding="UTF-8"?>
<svg width="21px" height="19px" viewBox="0 0 21 19" version="1.1" xmlns="http://www.w3.org/2000/svg" xmlns:xlink="http://www.w3.org/1999/xlink">
    <!-- Generator: Sketch 52.1 (67048) - http://www.bohemiancoding.com/sketch -->
    <title>my_share</title>
    <desc>Created with Sketch.</desc>
    <g id="Page-1" stroke="none" stroke-width="1" fill="none" fill-rule="evenodd">
        <g id="我的" transform="translate(-56.000000, -32.000000)" fill="#666666" fill-rule="nonzero">
            <g id="Group" transform="translate(56.687500, 32.000000)">
                <path d="M10.7272727,2.66450806 L10.7272727,12.7272727 L9.27272727,12.7272727 L9.27272727,2.66488259 L5.7415322,6.19607766 L4.71301325,5.1675587 L9.00301325,0.877558705 C9.55332152,0.327250439 10.4461943,0.327250439 10.9974685,0.877585951 L15.287014,5.16758595 L14.2584406,6.19605041 L10.7272727,2.66450806 Z M16.3636364,3.45454545 L16.3636364,2 C18.2716616,2 19.8181818,3.54652018 19.8181818,5.45454545 L19.8181818,15.4545455 C19.8181818,17.3625707 18.2716616,18.9090909 16.3636364,18.9090909 L3.63636364,18.9090909 C1.72833836,18.9090909 0.181818182,17.3625707 0.181818182,15.4545455 L0.181818182,5.45454545 C0.181818182,3.54652018 1.72833836,2 3.63636364,2 L3.63636364,3.45454545 C2.53166164,3.45454545 1.63636364,4.34984345 1.63636364,5.45454545 L1.63636364,15.4545455 C1.63636364,16.5592475 2.53166164,17.4545455 3.63636364,17.4545455 L16.3636364,17.4545455 C17.4683384,17.4545455 18.3636364,16.5592475 18.3636364,15.4545455 L18.3636364,5.45454545 C18.3636364,4.34984345 17.4683384,3.45454545 16.3636364,3.45454545 Z" id="my_share"></path>
            </g>
        </g>
    </g>
</svg>