<?xml version="1.0" encoding="UTF-8"?>
<svg width="24px" height="22px" viewBox="0 0 24 22" version="1.1" xmlns="http://www.w3.org/2000/svg" xmlns:xlink="http://www.w3.org/1999/xlink">
    <!-- Generator: Sketch 52.1 (67048) - http://www.bohemiancoding.com/sketch -->
    <title>tuwen_wenzi</title>
    <desc>Created with Sketch.</desc>
    <g id="Page-1" stroke="none" stroke-width="1" fill="none" fill-rule="evenodd">
        <g id="图文编辑" transform="translate(-146.000000, -204.000000)" fill="#333333" fill-rule="nonzero">
            <g id="Group-4" transform="translate(68.000000, 203.000000)">
                <g id="复制文字" transform="translate(78.000000, 1.000000)">
                    <path d="M23.95,20.534375 L16.6,0.540625 C16.478125,0.2125 16.165625,0.015625 15.834375,0.025 C15.503125,0.015625 15.190625,0.2125 15.06875,0.540625 L9.06875,16.865625 L5.9875,8.484375 C5.86875,8.159375 5.559375,7.965625 5.23125,7.96875 C4.903125,7.9625 4.59375,8.159375 4.475,8.484375 L0.05,20.534375 C-0.1,20.94375 0.109375,21.4 0.51875,21.55 C0.609375,21.584375 0.7,21.6 0.790625,21.6 C1.1125,21.6 1.415625,21.403125 1.534375,21.08125 L2.959375,17.2 L7.509375,17.2 L8.228125,19.159375 L7.721875,20.5375 C7.571875,20.946875 7.78125,21.403125 8.190625,21.553125 C8.28125,21.5875 8.371875,21.603125 8.4625,21.603125 C8.784375,21.603125 9.0875,21.40625 9.20625,21.084375 L11.70625,14.284375 C11.7625,14.296875 11.81875,14.303125 11.878125,14.303125 L19.971875,14.303125 L22.465625,21.084375 C22.584375,21.403125 22.884375,21.603125 23.209375,21.603125 C23.3,21.603125 23.390625,21.5875 23.48125,21.553125 C23.890625,21.4 24.103125,20.94375 23.95,20.534375 Z M3.540625,15.61875 L5.234375,11.0125 L6.928125,15.61875 L3.540625,15.61875 Z M12.28125,12.71875 L15.8375,3.04375 L19.39375,12.71875 L12.28125,12.71875 Z" id="tuwen_wenzi"></path>
                </g>
            </g>
        </g>
    </g>
</svg>