<?xml version="1.0" encoding="UTF-8"?>
<svg width="76px" height="75px" viewBox="0 0 76 75" version="1.1" xmlns="http://www.w3.org/2000/svg" xmlns:xlink="http://www.w3.org/1999/xlink">
    <!-- Generator: Sketch 52.1 (67048) - http://www.bohemiancoding.com/sketch -->
    <title>tuwen_list_pic</title>
    <desc>Created with Sketch.</desc>
    <g id="Page-1" stroke="none" stroke-width="1" fill="none" fill-rule="evenodd">
        <g id="图文编辑详情" transform="translate(-14.000000, -360.000000)">
            <g id="Group-3-Copy" transform="translate(-0.312500, 345.000000)">
                <g id="tuwen_list_pic" transform="translate(15.000000, 15.000000)">
                    <rect id="Rectangle" fill="#D8D8D8" fill-rule="nonzero" x="0" y="0" width="75" height="75" rx="4"></rect>
                    <path d="M0,55 L75,55 L75,71 C75,73.209139 73.209139,75 71,75 L4,75 C1.790861,75 2.705415e-16,73.209139 0,71 L0,55 Z" id="Rectangle-Copy-5" fill="#C4C4C4" fill-rule="nonzero"></path>
                    <g id="多行文字" transform="translate(19.000000, 11.000000)" fill="#FFFFFF" fill-rule="nonzero">
                        <path d="M14.2256847,14.964765 L5.35764181,14.9647232 L3.8977731,18.9460713 C3.5539432,19.8837629 2.66137929,20.5071559 1.66263785,20.5071559 C1.52191595,20.5071559 1.38241241,20.4810789 1.25119268,20.4302455 C0.664615748,20.2030106 0.373311473,19.5432857 0.600546369,18.9567088 L7.27685362,1.72270171 C7.6790966,0.68436449 8.67813573,2.04551691e-16 9.79166328,0 C10.9058287,-2.04668869e-16 11.9060887,0.682956684 12.3117364,1.72065344 L18.978043,18.7738867 C19.0295344,18.905608 19.0559603,19.0457909 19.0559603,19.1872188 C19.0559603,19.814212 18.5476819,20.3224904 17.9206887,20.3224904 C16.9198326,20.3224904 16.0232297,19.7036495 15.6682654,18.767854 L14.2256847,14.964765 Z M9.05270847,4.61856158 L9.05279209,4.61851977 C9.05279209,4.80335254 8.12900452,7.38984068 6.09680565,12.5628169 L13.4868554,12.5628169 C11.6392384,7.38984068 10.5308689,4.80335254 10.5308689,4.61851977 C10.5308689,4.61851977 10.3460362,4.43389605 10.3460362,4.24906328 C9.97653785,3.32544294 9.79187232,2.95586102 9.79187232,2.77119548 L9.60703955,2.77119548 C9.42224859,3.51019209 9.23754124,4.06439774 9.05270847,4.61856158 Z M21.2461944,7.7594226 L35.6566701,7.7594226 C36.370909,7.7594226 36.9499141,8.33842769 36.9499141,9.05266667 C36.9499141,9.76690564 36.370909,10.3459107 35.6566701,10.3459107 L21.2461944,10.3459107 C20.5319554,10.3459107 19.9529503,9.76690564 19.9529503,9.05266667 C19.9529503,8.33842769 20.5319554,7.7594226 21.2461944,7.7594226 Z M1.29324407,23.0936859 L35.6566701,23.0936859 C36.370909,23.0936859 36.9499141,23.672691 36.9499141,24.3869299 C36.9499141,25.1011689 36.370909,25.680174 35.6566701,25.680174 L1.29324407,25.680174 C0.579005091,25.680174 2.27461144e-13,25.1011689 2.27373675e-13,24.3869299 C2.27286206e-13,23.672691 0.579005091,23.0936859 1.29324407,23.0936859 Z M21.2461944,15.5187616 L35.6566701,15.5187616 C36.370909,15.5187616 36.9499141,16.0977667 36.9499141,16.8120056 C36.9499141,17.5262446 36.370909,18.1052497 35.6566701,18.1052497 L21.2461944,18.1052497 C20.5319554,18.1052497 19.9529503,17.5262446 19.9529503,16.8120056 C19.9529503,16.0977667 20.5319554,15.5187616 21.2461944,15.5187616 Z M1.29324407,30.6683593 L35.6566701,30.6683593 C36.370909,30.6683593 36.9499141,31.2473644 36.9499141,31.9616034 C36.9499141,32.6758424 36.370909,33.2548475 35.6566701,33.2548475 L1.29324407,33.2548475 C0.579005091,33.2548475 2.27461144e-13,32.6758424 2.27373675e-13,31.9616034 C2.27286206e-13,31.2473644 0.579005091,30.6683593 1.29324407,30.6683593 Z M21.2461734,0.184832768 L35.656691,0.184832768 C36.3709184,0.184832768 36.9499141,0.763828501 36.9499141,1.47805593 C36.9499141,2.19228336 36.3709184,2.7712791 35.656691,2.7712791 L21.2461734,2.7712791 C20.531946,2.7712791 19.9529503,2.19228336 19.9529503,1.47805593 C19.9529503,0.763828501 20.531946,0.184832768 21.2461734,0.184832768 Z" id="tuwen_list_pic"></path>
                    </g>
                    <path d="M16.456,60.48 L23.164,60.48 L23.164,61.284 L19.9,61.284 C19.7639993,61.884003 19.6240007,62.387998 19.48,62.796 L23.692,62.796 L23.692,63.624 L21.172,63.624 C21.7960031,64.6000049 22.7559935,65.3639972 24.052,65.916 L23.68,66.672 C22.087992,65.8959961 20.9600033,64.8800063 20.296,63.624 L19.144,63.624 C19.0639996,63.7840008 18.9440008,64.0079986 18.784,64.296 C18.175997,65.2160046 17.268006,66.0439963 16.06,66.78 L15.52,66.096 C16.6480056,65.4799969 17.5039971,64.7320044 18.088,63.852 L18.232,63.624 L15.904,63.624 L15.904,62.796 L18.616,62.796 C18.7920009,62.3559978 18.9319995,61.8520028 19.036,61.284 L16.456,61.284 L16.456,60.48 Z M17.908,67.164 C17.4599978,68.3960062 16.9440029,69.4599955 16.36,70.356 L15.652,69.852 C16.252003,68.9799956 16.7639979,67.9680058 17.188,66.816 L17.908,67.164 Z M13.876,60.168 C14.6200037,60.6800026 15.2639973,61.2079973 15.808,61.752 L15.22,62.34 C14.7639977,61.8599976 14.1160042,61.324003 13.276,60.732 L13.876,60.168 Z M13.588,63.036 C14.4040041,63.6520031 15.0639975,64.2479971 15.568,64.824 L14.968,65.412 C14.4799976,64.8439972 13.8240041,64.2400032 13,63.6 L13.588,63.036 Z M15.448,66.648 C14.9759976,68.1600076 14.4480029,69.5919932 13.864,70.944 L13.06,70.584 C13.7080032,69.1519928 14.2519978,67.740007 14.692,66.348 L15.448,66.648 Z M17.644,71.016 L17.464,70.2 C17.8480019,70.2400002 18.1799986,70.26 18.46,70.26 C18.7080012,70.26 18.832,70.1000016 18.832,69.78 L18.832,65.388 L19.66,65.388 L19.66,69.984 C19.66,70.6720034 19.360003,71.016 18.76,71.016 L17.644,71.016 Z M22.468,66.528 C23.0440029,67.6160054 23.531998,68.755994 23.932,69.948 L23.164,70.284 C22.7079977,68.9239932 22.2240026,67.7560049 21.712,66.78 L22.468,66.528 Z M20.884,66.96 C21.3800025,67.9920052 21.8159981,69.1199939 22.192,70.344 L21.424,70.692 C21.0399981,69.3719934 20.6160023,68.212005 20.152,67.212 L20.884,66.96 Z M35.9953846,61.512 L35.9953846,70.824 L35.1553846,70.824 L35.1553846,70.032 L32.9953846,70.032 L32.9953846,70.824 L32.1553846,70.824 L32.1553846,61.512 L35.9953846,61.512 Z M32.9953846,69.192 L35.1553846,69.192 L35.1553846,62.352 L32.9953846,62.352 L32.9953846,69.192 Z M27.6913846,60.036 L28.5793846,60.036 L28.5793846,62.124 L31.0393846,62.124 C31.0393846,66.0520196 30.9793852,68.4799954 30.8593846,69.408 C30.739384,70.400005 30.14339,70.896 29.0713846,70.896 L28.1593846,70.848 L27.9433846,70.056 C28.4553872,70.0880002 28.7913838,70.104 28.9513846,70.104 C29.5833878,70.104 29.9473841,69.7600034 30.0433846,69.072 C30.115385,68.3999966 30.1633845,66.364017 30.1873846,62.964 L28.5793846,62.964 L28.5793846,63.192 C28.5393844,66.784018 27.7553922,69.4119917 26.2273846,71.076 L25.5313846,70.452 C26.9473917,68.9559925 27.6673845,66.5360167 27.6913846,63.192 L27.6913846,62.964 L25.7833846,62.964 L25.7833846,62.124 L27.6913846,62.124 L27.6913846,60.036 Z M43.3427692,61.656 C43.2307686,61.9280014 43.1267697,62.1479992 43.0307692,62.316 L46.1987692,62.316 L46.1987692,62.916 C45.8547675,63.5640032 45.3467726,64.1239976 44.6747692,64.596 C45.5147734,64.996002 46.4307642,65.3119988 47.4227692,65.544 L46.9667692,66.192 C45.7987634,65.8799984 44.7987734,65.4920023 43.9667692,65.028 C43.0387646,65.5240025 41.894776,65.9199985 40.5347692,66.216 L40.1507692,65.52 C41.3827754,65.3039989 42.422765,64.996002 43.2707692,64.596 C42.7907668,64.2759984 42.3867708,63.9400018 42.0587692,63.588 C41.6987674,63.9240017 41.2907715,64.2359986 40.8347692,64.524 L40.3547692,63.9 C41.4507747,63.2519968 42.1907673,62.4720046 42.5747692,61.56 L43.3427692,61.656 Z M43.9667692,64.224 C44.5587722,63.8639982 45.0147676,63.4440024 45.3347692,62.964 L42.6107692,62.964 C42.562769,63.0120002 42.5267693,63.0599998 42.5027692,63.108 C42.9187713,63.508002 43.4067664,63.8799983 43.9667692,64.224 Z M41.5907692,67.452 C43.1747771,67.7480015 44.7067618,68.1759972 46.1867692,68.736 L45.8987692,69.432 C44.4107618,68.8559971 42.8627772,68.4120016 41.2547692,68.1 L41.5907692,67.452 Z M42.8387692,65.772 C43.7507738,66.0760015 44.6107652,66.4519978 45.4187692,66.9 L45.0107692,67.524 C44.2027652,67.0359976 43.3467737,66.6440015 42.4427692,66.348 L42.8387692,65.772 Z M48.6227692,60.528 L48.6227692,71.004 L47.7827692,71.004 L47.7827692,70.512 L39.6707692,70.512 L39.6707692,71.004 L38.8307692,71.004 L38.8307692,60.528 L48.6227692,60.528 Z M39.6707692,69.744 L47.7827692,69.744 L47.7827692,61.296 L39.6707692,61.296 L39.6707692,69.744 Z M53.5461538,66.684 C53.2821525,68.4680089 52.6941584,69.8399952 51.7821538,70.8 L51.1341538,70.224 C52.2301593,69.0639942 52.7861537,67.1960129 52.8021538,64.62 L52.8021538,60.144 L53.6901538,60.144 L53.6901538,62.94 L57.4581538,62.94 L57.4581538,60 L58.2981538,60 L58.2981538,62.94 L61.6101538,62.94 L61.6101538,63.78 L53.6901538,63.78 L53.6901538,64.62 C53.6821538,64.9240015 53.662154,65.3359974 53.6301538,65.856 L59.1141538,65.856 L59.1141538,71.028 L58.2381538,71.028 L58.2381538,66.684 L53.5461538,66.684 Z" id="添加图片" fill="#FFFFFF"></path>
                </g>
            </g>
        </g>
    </g>
</svg>