<?xml version="1.0" encoding="UTF-8"?>
<svg width="100px" height="100px" viewBox="0 0 100 100" version="1.1" xmlns="http://www.w3.org/2000/svg" xmlns:xlink="http://www.w3.org/1999/xlink">
    <!-- Generator: Sketch 52.1 (67048) - http://www.bohemiancoding.com/sketch -->
    <title>tuwen</title>
    <desc>Created with Sketch.</desc>
    <defs>
        <rect id="path-1" x="0" y="0" width="80" height="80" rx="32"></rect>
        <filter x="-21.9%" y="-15.6%" width="143.8%" height="143.8%" filterUnits="objectBoundingBox" id="filter-2">
            <feOffset dx="0" dy="5" in="SourceAlpha" result="shadowOffsetOuter1"></feOffset>
            <feGaussianBlur stdDeviation="5" in="shadowOffsetOuter1" result="shadowBlurOuter1"></feGaussianBlur>
            <feColorMatrix values="0 0 0 0 0   0 0 0 0 0   0 0 0 0 0  0 0 0 0.0890794837 0" type="matrix" in="shadowBlurOuter1"></feColorMatrix>
        </filter>
        <linearGradient x1="93.1386719%" y1="132.677734%" x2="36.7929688%" y2="29.8945312%" id="linearGradient-3">
            <stop stop-color="#FF761F" offset="0%"></stop>
            <stop stop-color="#FD6258" offset="100%"></stop>
        </linearGradient>
    </defs>
    <g id="Page-1" stroke="none" stroke-width="1" fill="none" fill-rule="evenodd">
        <g id="添加" transform="translate(-138.000000, -382.000000)" fill-rule="nonzero">
            <g id="Group-5" transform="translate(148.000000, 387.000000)">
                <g id="Rectangle">
                    <use fill="black" fill-opacity="1" filter="url(#filter-2)" xlink:href="#path-1"></use>
                    <use fill="#FFFFFF" xlink:href="#path-1"></use>
                </g>
                <g id="图文咨询" transform="translate(22.000000, 22.000000)" fill="url(#linearGradient-3)">
                    <path d="M29.3758331,35.6070704 L5.34106056,35.6070704 C2.39127427,35.6070704 5.92976841e-16,33.2157962 0,30.2660099 L0,16.9133585 C-1.10666995e-08,15.9690002 0.375144832,15.0633205 1.04290694,14.3955583 C1.71066905,13.7277962 2.61634884,13.3526514 3.56070707,13.3526514 L8.01159084,13.3526514 L8.01159084,3.56070707 C8.01159083,2.61634884 8.38673567,1.71066905 9.05449779,1.04290694 C9.7222599,0.375144832 10.6279397,-1.10666965e-08 11.5722979,0 L31.1561866,0 C32.1005449,0 33.0062246,0.375144848 33.6739867,1.04290696 C34.3417488,1.71066907 34.7168937,2.61634884 34.7168937,3.56070707 L34.7168937,30.2660099 C34.7168937,33.2157962 32.3256194,35.6070704 29.3758331,35.6070704 Z M8.01159084,16.9133585 C8.01159085,16.6772689 7.91780465,16.450849 7.75086413,16.2839084 C7.5839236,16.1169679 7.35750366,16.0231817 7.1214141,16.0231817 L3.56070707,16.0231817 C3.3246175,16.0231817 3.09819755,16.1169679 2.93125701,16.2839084 C2.76431648,16.450849 2.67053027,16.6772689 2.67053028,16.9133585 L2.67053028,30.2660099 C2.67053028,31.740903 3.86616741,32.9365402 5.34106056,32.9365402 C6.81595371,32.9365402 8.01159084,31.740903 8.01159084,30.2660099 L8.01159084,16.9133585 Z M16.0231817,5.34106056 C15.0399196,5.34106056 14.2428282,6.13815199 14.2428282,7.1214141 C14.2428282,8.1046762 15.0399196,8.90176763 16.0231817,8.90176763 C17.0064438,8.90176763 17.8035352,8.1046762 17.8035352,7.1214141 C17.8035352,6.13815199 17.0064438,5.34106056 16.0231817,5.34106056 Z M25.8151261,7.1214141 C23.075162,7.16058189 21.3642422,14.2428282 21.3642422,14.2428282 L20.4740655,14.2428282 C20.4740655,14.2428282 19.0141756,10.6082365 16.9133585,10.6821211 C14.7591307,10.7577861 13.3526514,15.1330049 13.3526514,15.1330049 L30.2660099,15.1330049 C30.2660099,15.1330049 28.5114715,7.08313651 25.8151261,7.1214141 Z M28.9307447,19.5838888 L18.2486236,19.5838888 C17.511177,19.5838888 16.9133585,20.1817073 16.9133585,20.9191539 C16.9133585,21.6566005 17.511177,22.254419 18.2486236,22.254419 L28.9307447,22.254419 C29.6681913,22.254419 30.2660099,21.6566005 30.2660099,20.9191539 C30.2660099,20.1817073 29.6681913,19.5838888 28.9307447,19.5838888 Z M28.9307447,25.8151261 L13.7977398,25.8151261 C13.0602932,25.8151261 12.4624747,26.4129446 12.4624747,27.1503912 C12.4624747,27.8878378 13.0602932,28.4856563 13.7977398,28.4856563 L28.9307447,28.4856563 C29.6681913,28.4856563 30.2660099,27.8878378 30.2660099,27.1503912 C30.2660099,26.4129446 29.6681913,25.8151261 28.9307447,25.8151261 Z" id="Shape"></path>
                </g>
            </g>
        </g>
    </g>
</svg>