<?xml version="1.0" encoding="UTF-8"?>
<svg width="24px" height="24px" viewBox="0 0 24 24" version="1.1" xmlns="http://www.w3.org/2000/svg" xmlns:xlink="http://www.w3.org/1999/xlink">
    <!-- Generator: Sketch 52.1 (67048) - http://www.bohemiancoding.com/sketch -->
    <title>fabu_pengyouquan</title>
    <desc>Created with Sketch.</desc>
    <g id="Page-1" stroke="none" stroke-width="1" fill="none" fill-rule="evenodd">
        <g id="发布成功" transform="translate(-118.000000, -299.000000)">
            <g id="Group-9" transform="translate(118.000000, 299.000000)">
                <g id="朋友圈">
                    <path d="M15.995886,0.645178147 C15.995886,0.645178147 14.403677,0.000598574822 11.9987173,0.000598574822 C9.59387173,0.000598574822 8.00166271,0.738926366 8.00166271,0.738926366 L15.9983088,8.8752399 L15.995886,0.645178147 Z" id="Path" fill="#FB5453"></path>
                    <path d="M20.528323,3.5856342 C18.7631544,1.91170546 17.0565891,1.31535392 17.0565891,1.31535392 L16.9978717,12.4908029 L22.9953349,6.80913064 C22.9953349,6.81155344 22.296,5.25956295 20.5283515,3.58566271 L20.528323,3.5856342 Z" id="Path" fill="#6468F1"></path>
                    <path d="M23.2445986,7.88915914 L14.9987173,15.7777197 L23.3407696,15.7777197 C23.3407696,15.7777197 23.9949264,14.2066318 23.9949264,11.832285 C23.9924466,9.46036105 23.2445986,7.88915914 23.2445986,7.88915914 Z" id="Path" fill="#5283F0"></path>
                    <path d="M17.2623278,22.6801995 C17.2623278,22.6801995 18.8817007,22.0291211 20.6266888,20.3827553 C22.3717625,18.7364751 22.9953349,17.147943 22.9953349,17.147943 L11.3336152,17.0924751 L17.2623278,22.6801995 Z" id="Path" fill="#00B2FE"></path>
                    <path d="M8.0039715,23.3504893 C8.0039715,23.3504893 9.59629454,23.9949549 12.0011401,23.9949549 C14.4084086,23.9949549 15.9983088,23.2566556 15.9983088,23.2566556 L8.00169121,15.1203135 L8.0039715,23.3504893 Z" id="Path" fill="#66D020"></path>
                    <path d="M3.8047696,20.4098907 C5.57010926,22.083962 7.27667458,22.6801995 7.27667458,22.6801995 L7.33530641,11.5047506 L1.33784323,17.1863658 C1.34023753,17.1840855 2.03957245,18.735962 3.8047696,20.4098907 Z" id="Path" fill="#9AD122"></path>
                    <path d="M0.659401425,7.88915914 C0.659401425,7.88915914 0.0050736342,9.45990499 0.0050736342,11.8334252 C0.0050736342,14.2070879 0.75312114,15.7777197 0.75312114,15.7777197 L9.00125416,7.89158195 L0.659401425,7.89158195 L0.659401425,7.88915914 Z" id="Path" fill="#FFC71A"></path>
                    <path d="M7.07087886,1.31535392 C7.07087886,1.31535392 5.45147743,1.96646081 3.70648931,3.61274109 C1.96144418,5.25904988 1.33784323,6.84772447 1.33784323,6.84772447 L12.9995629,6.90307838 L7.07087886,1.31535392 Z" id="Path" fill="#FF7612"></path>
                </g>
            </g>
        </g>
    </g>
</svg>