<?xml version="1.0" encoding="UTF-8"?>
<svg width="40px" height="40px" viewBox="0 0 40 40" version="1.1" xmlns="http://www.w3.org/2000/svg" xmlns:xlink="http://www.w3.org/1999/xlink">
    <!-- Generator: Sketch 52.1 (67048) - http://www.bohemiancoding.com/sketch -->
    <title>family_add</title>
    <desc>Created with Sketch.</desc>
    <g id="Page-1" stroke="none" stroke-width="1" fill="none" fill-rule="evenodd">
        <g id="我的家庭" transform="translate(-270.000000, -284.000000)" fill-rule="nonzero">
            <g id="Group-10-Copy" transform="translate(270.000000, 284.000000)">
                <circle id="Oval-Copy-2" fill="#ECECEC" cx="20" cy="19.625" r="19.53125"></circle>
                <path d="M19.0234375,18.6484375 L19.0234375,11.2265625 C19.0234375,10.6872219 19.4606594,10.25 20,10.25 C20.5393406,10.25 20.9765625,10.6872219 20.9765625,11.2265625 L20.9765625,18.6484375 L28.3984375,18.6484375 C28.9377781,18.6484375 29.375,19.0856594 29.375,19.625 C29.375,20.1643406 28.9377781,20.6015625 28.3984375,20.6015625 L20.9765625,20.6015625 L20.9765625,28.0234375 C20.9765625,28.5627781 20.5393406,29 20,29 C19.4606594,29 19.0234375,28.5627781 19.0234375,28.0234375 L19.0234375,20.6015625 L11.6015625,20.6015625 C11.0622219,20.6015625 10.625,20.1643406 10.625,19.625 C10.625,19.0856594 11.0622219,18.6484375 11.6015625,18.6484375 L19.0234375,18.6484375 Z" id="Combined-Shape" fill="#999999"></path>
            </g>
        </g>
    </g>
</svg>