<?xml version="1.0" encoding="UTF-8"?>
<svg width="16px" height="17px" viewBox="0 0 16 17" version="1.1" xmlns="http://www.w3.org/2000/svg" xmlns:xlink="http://www.w3.org/1999/xlink">
    <!-- Generator: Sketch 52.1 (67048) - http://www.bohemiancoding.com/sketch -->
    <title>family_huangguan</title>
    <desc>Created with Sketch.</desc>
    <g id="Page-1" stroke="none" stroke-width="1" fill="none" fill-rule="evenodd">
        <g id="我的家庭" transform="translate(-18.000000, -222.000000)" fill="#FDB220" fill-rule="nonzero">
            <g id="皇冠-(1)" transform="translate(24.745191, 231.750000) rotate(-30.000000) translate(-24.745191, -231.750000) translate(16.245191, 224.250000)">
                <path d="M6.00887516,1.80318803 C6.22583173,1.67792809 6.45916204,1.60106987 6.70886606,1.57261335 C6.95857009,1.54415684 7.19885876,1.56452761 7.42973205,1.63372565 C7.66060535,1.7029237 7.87705289,1.81227076 8.07907467,1.96176684 C8.28109644,2.11126291 8.4472425,2.29882837 8.57751283,2.52446321 C8.76790794,2.85423721 8.85364839,3.19814953 8.83473419,3.55620018 C8.81581998,3.91425083 8.71193298,4.24036342 8.52307319,4.53453795 C8.58293462,4.85867848 8.69553689,5.16394009 8.86088001,5.45032277 C9.04626472,5.77141851 9.2889751,6.05652449 9.58901117,6.30564073 C9.88904723,6.55475697 10.2149382,6.7484473 10.5666841,6.88671172 C10.91843,7.02497613 11.2773318,7.09546852 11.6433895,7.09818886 C12.0094471,7.10090921 12.3486847,7.01208222 12.6611021,6.83170791 C12.9301283,6.67638559 13.1463895,6.46474449 13.3098858,6.19678461 C13.4733821,5.92882473 13.5938885,5.63650822 13.6714051,5.31983509 C13.7489216,5.00316197 13.7810331,4.67799044 13.7677394,4.34432051 C13.7544458,4.01065059 13.7055221,3.70044442 13.6209684,3.41370201 C13.3215202,3.43616532 13.0328956,3.37716794 12.7550948,3.23670985 C12.477294,3.09625177 12.2582272,2.88717052 12.0978945,2.6094661 C11.9876658,2.41854431 11.9196657,2.22059833 11.8938942,2.01562815 C11.8681228,1.81065797 11.8809121,1.61235225 11.9322622,1.420711 C11.9836124,1.22906975 12.0704367,1.04876773 12.1927353,0.879804942 C12.315034,0.710842152 12.467305,0.573751582 12.6495486,0.468533234 C12.8317921,0.363314885 13.0266515,0.299989552 13.2341269,0.278557235 C13.4416023,0.257124918 13.6411606,0.272083819 13.8328019,0.323433937 C14.0244431,0.374784055 14.2025756,0.462861024 14.3671992,0.587664843 C14.5318229,0.712468662 14.6692491,0.870331466 14.7794778,1.06125325 C14.9398106,1.33895767 15.0122638,1.62979352 14.9968376,1.93376079 C14.9814114,2.23772806 14.8934485,2.51125557 14.7329488,2.75434333 C14.9400774,3.21330847 15.1305207,3.69347787 15.3042787,4.19485153 C15.4780367,4.69622519 15.6288465,5.20795528 15.756708,5.73004179 C15.8845696,6.25212831 15.9819672,6.77155385 16.0489011,7.28831843 C16.1158349,7.80508302 16.1453706,8.29715534 16.1375082,8.76453541 C15.5725347,9.44942456 14.945201,10.0864275 14.2555071,10.6755442 C13.5658133,11.2646609 12.813088,11.794708 11.9973312,12.2656854 C11.1815745,12.7366627 10.3483472,13.1222658 9.49764936,13.4224947 C8.64695151,13.7227235 7.77945437,13.9487616 6.89515795,14.1006088 C6.48646373,13.8737278 6.07508445,13.602113 5.6610201,13.2857643 C5.24695576,12.9694156 4.84581888,12.625354 4.45760946,12.2535794 C4.06940003,11.8818048 3.69946411,11.4965873 3.34780167,11.0979268 C2.99613923,10.6992663 2.67769155,10.2930002 2.39245862,9.87912865 C2.10168861,9.89658157 1.8251645,9.83349075 1.56288628,9.6898562 C1.30060807,9.54622165 1.0893026,9.33555217 0.928969876,9.05784775 C0.81874113,8.86692596 0.750741033,8.66897998 0.724969584,8.4640098 C0.699198136,8.25903962 0.709817905,8.0619865 0.756828891,7.87285045 C0.803839878,7.6837144 0.886325116,7.50591758 1.0042846,7.33945999 C1.12224409,7.1730024 1.2723456,7.03716443 1.45458913,6.93194608 C1.63683265,6.82672773 1.8316921,6.7634024 2.03916748,6.74197008 C2.24664286,6.72053776 2.44620118,6.73549666 2.63784242,6.78684678 C2.82948367,6.8381969 3.00761613,6.92627387 3.17223979,7.05107769 C3.33686345,7.17588151 3.47428965,7.33374431 3.58451839,7.5246661 C3.74986151,7.81104878 3.823903,8.10964592 3.80664287,8.42045752 C3.78938273,8.73126912 3.6936585,9.00638487 3.51947016,9.24580476 C3.73052993,9.47107987 3.97721972,9.67289123 4.25953952,9.85123883 C4.54185933,10.0295864 4.84077446,10.1665324 5.15628493,10.2620768 C5.47179539,10.3576212 5.78645472,10.4015873 6.10026292,10.3939754 C6.41407112,10.3863634 6.70548829,10.3048962 6.97451445,10.1495739 C7.28693192,9.96919958 7.53347713,9.71982473 7.71415006,9.40144934 C7.894823,9.08307395 8.01539526,8.7357571 8.07586684,8.3594988 C8.13633843,7.98324049 8.13246015,7.60074329 8.06423199,7.21200719 C7.99600383,6.82327109 7.8691974,6.46835517 7.68381269,6.14725943 C7.50844877,5.84352022 7.27734742,5.58353206 6.99050861,5.36729494 C6.66234049,5.3600556 6.34841826,5.27227253 6.04874192,5.10394572 C5.74906559,4.93561891 5.51154547,4.69958591 5.33618155,4.3958467 C5.20591122,4.17021186 5.12654779,3.93254242 5.09809128,3.68283839 C5.06963477,3.43313437 5.08533077,3.18975917 5.14517929,2.95271281 C5.2050278,2.71566645 5.30753053,2.49738498 5.45268748,2.2978684 C5.59784442,2.09835182 5.78324032,1.93345837 6.00887516,1.80318803 Z" id="Path"></path>
            </g>
        </g>
    </g>
</svg>